# staff_rings - original Tiangang Star staff recreation
o staff_rings
v 1.99000 0.00000 50.20000
v 1.94314 -0.11314 50.20000
v 1.83000 -0.16000 50.20000
v 1.71686 -0.11314 50.20000
v 1.67000 -0.00000 50.20000
v 1.71686 0.11314 50.20000
v 1.83000 0.16000 50.20000
v 1.94314 0.11314 50.20000
v 1.99000 0.00000 50.20000
v 1.94399 0.00000 50.49048
v 1.89942 -0.11314 50.47599
v 1.79182 -0.16000 50.44103
v 1.68422 -0.11314 50.40607
v 1.63966 -0.00000 50.39159
v 1.68422 0.11314 50.40607
v 1.79182 0.16000 50.44103
v 1.89942 0.11314 50.47599
v 1.94399 0.00000 50.49048
v 1.81048 0.00000 50.75252
v 1.77256 -0.11314 50.72497
v 1.68103 -0.16000 50.65847
v 1.58950 -0.11314 50.59197
v 1.55159 -0.00000 50.56443
v 1.58950 0.11314 50.59197
v 1.68103 0.16000 50.65847
v 1.77256 0.11314 50.72497
v 1.81048 0.00000 50.75252
v 1.60252 0.00000 50.96048
v 1.57497 -0.11314 50.92256
v 1.50847 -0.16000 50.83103
v 1.44197 -0.11314 50.73950
v 1.41443 -0.00000 50.70159
v 1.44197 0.11314 50.73950
v 1.50847 0.16000 50.83103
v 1.57497 0.11314 50.92256
v 1.60252 0.00000 50.96048
v 1.34048 0.00000 51.09399
v 1.32599 -0.11314 51.04942
v 1.29103 -0.16000 50.94182
v 1.25607 -0.11314 50.83422
v 1.24159 -0.00000 50.78966
v 1.25607 0.11314 50.83422
v 1.29103 0.16000 50.94182
v 1.32599 0.11314 51.04942
v 1.34048 0.00000 51.09399
v 1.05000 0.00000 51.14000
v 1.05000 -0.11314 51.09314
v 1.05000 -0.16000 50.98000
v 1.05000 -0.11314 50.86686
v 1.05000 -0.00000 50.82000
v 1.05000 0.11314 50.86686
v 1.05000 0.16000 50.98000
v 1.05000 0.11314 51.09314
v 1.05000 0.00000 51.14000
v 0.75952 0.00000 51.09399
v 0.77401 -0.11314 51.04942
v 0.80897 -0.16000 50.94182
v 0.84393 -0.11314 50.83422
v 0.85841 -0.00000 50.78966
v 0.84393 0.11314 50.83422
v 0.80897 0.16000 50.94182
v 0.77401 0.11314 51.04942
v 0.75952 0.00000 51.09399
v 0.49748 0.00000 50.96048
v 0.52503 -0.11314 50.92256
v 0.59153 -0.16000 50.83103
v 0.65803 -0.11314 50.73950
v 0.68557 -0.00000 50.70159
v 0.65803 0.11314 50.73950
v 0.59153 0.16000 50.83103
v 0.52503 0.11314 50.92256
v 0.49748 0.00000 50.96048
v 0.28952 0.00000 50.75252
v 0.32744 -0.11314 50.72497
v 0.41897 -0.16000 50.65847
v 0.51050 -0.11314 50.59197
v 0.54841 -0.00000 50.56443
v 0.51050 0.11314 50.59197
v 0.41897 0.16000 50.65847
v 0.32744 0.11314 50.72497
v 0.28952 0.00000 50.75252
v 0.15601 0.00000 50.49048
v 0.20058 -0.11314 50.47599
v 0.30818 -0.16000 50.44103
v 0.41578 -0.11314 50.40607
v 0.46034 -0.00000 50.39159
v 0.41578 0.11314 50.40607
v 0.30818 0.16000 50.44103
v 0.20058 0.11314 50.47599
v 0.15601 0.00000 50.49048
v 0.11000 0.00000 50.20000
v 0.15686 -0.11314 50.20000
v 0.27000 -0.16000 50.20000
v 0.38314 -0.11314 50.20000
v 0.43000 -0.00000 50.20000
v 0.38314 0.11314 50.20000
v 0.27000 0.16000 50.20000
v 0.15686 0.11314 50.20000
v 0.11000 0.00000 50.20000
v 0.15601 0.00000 49.90952
v 0.20058 -0.11314 49.92401
v 0.30818 -0.16000 49.95897
v 0.41578 -0.11314 49.99393
v 0.46034 -0.00000 50.00841
v 0.41578 0.11314 49.99393
v 0.30818 0.16000 49.95897
v 0.20058 0.11314 49.92401
v 0.15601 0.00000 49.90952
v 0.28952 0.00000 49.64748
v 0.32744 -0.11314 49.67503
v 0.41897 -0.16000 49.74153
v 0.51050 -0.11314 49.80803
v 0.54841 -0.00000 49.83557
v 0.51050 0.11314 49.80803
v 0.41897 0.16000 49.74153
v 0.32744 0.11314 49.67503
v 0.28952 0.00000 49.64748
v 0.49748 0.00000 49.43952
v 0.52503 -0.11314 49.47744
v 0.59153 -0.16000 49.56897
v 0.65803 -0.11314 49.66050
v 0.68557 -0.00000 49.69841
v 0.65803 0.11314 49.66050
v 0.59153 0.16000 49.56897
v 0.52503 0.11314 49.47744
v 0.49748 0.00000 49.43952
v 0.75952 0.00000 49.30601
v 0.77401 -0.11314 49.35058
v 0.80897 -0.16000 49.45818
v 0.84393 -0.11314 49.56578
v 0.85841 -0.00000 49.61034
v 0.84393 0.11314 49.56578
v 0.80897 0.16000 49.45818
v 0.77401 0.11314 49.35058
v 0.75952 0.00000 49.30601
v 1.05000 0.00000 49.26000
v 1.05000 -0.11314 49.30686
v 1.05000 -0.16000 49.42000
v 1.05000 -0.11314 49.53314
v 1.05000 -0.00000 49.58000
v 1.05000 0.11314 49.53314
v 1.05000 0.16000 49.42000
v 1.05000 0.11314 49.30686
v 1.05000 0.00000 49.26000
v 1.34048 0.00000 49.30601
v 1.32599 -0.11314 49.35058
v 1.29103 -0.16000 49.45818
v 1.25607 -0.11314 49.56578
v 1.24159 -0.00000 49.61034
v 1.25607 0.11314 49.56578
v 1.29103 0.16000 49.45818
v 1.32599 0.11314 49.35058
v 1.34048 0.00000 49.30601
v 1.60252 0.00000 49.43952
v 1.57497 -0.11314 49.47744
v 1.50847 -0.16000 49.56897
v 1.44197 -0.11314 49.66050
v 1.41443 -0.00000 49.69841
v 1.44197 0.11314 49.66050
v 1.50847 0.16000 49.56897
v 1.57497 0.11314 49.47744
v 1.60252 0.00000 49.43952
v 1.81048 0.00000 49.64748
v 1.77256 -0.11314 49.67503
v 1.68103 -0.16000 49.74153
v 1.58950 -0.11314 49.80803
v 1.55159 -0.00000 49.83557
v 1.58950 0.11314 49.80803
v 1.68103 0.16000 49.74153
v 1.77256 0.11314 49.67503
v 1.81048 0.00000 49.64748
v 1.94399 0.00000 49.90952
v 1.89942 -0.11314 49.92401
v 1.79182 -0.16000 49.95897
v 1.68422 -0.11314 49.99393
v 1.63966 -0.00000 50.00841
v 1.68422 0.11314 49.99393
v 1.79182 0.16000 49.95897
v 1.89942 0.11314 49.92401
v 1.94399 0.00000 49.90952
v 1.99000 0.00000 50.20000
v 1.94314 -0.11314 50.20000
v 1.83000 -0.16000 50.20000
v 1.71686 -0.11314 50.20000
v 1.67000 -0.00000 50.20000
v 1.71686 0.11314 50.20000
v 1.83000 0.16000 50.20000
v 1.94314 0.11314 50.20000
v 1.99000 0.00000 50.20000
v -0.11000 0.00000 49.80000
v -0.15686 -0.11314 49.80000
v -0.27000 -0.16000 49.80000
v -0.38314 -0.11314 49.80000
v -0.43000 -0.00000 49.80000
v -0.38314 0.11314 49.80000
v -0.27000 0.16000 49.80000
v -0.15686 0.11314 49.80000
v -0.11000 0.00000 49.80000
v -0.15601 0.00000 50.09048
v -0.20058 -0.11314 50.07599
v -0.30818 -0.16000 50.04103
v -0.41578 -0.11314 50.00607
v -0.46034 -0.00000 49.99159
v -0.41578 0.11314 50.00607
v -0.30818 0.16000 50.04103
v -0.20058 0.11314 50.07599
v -0.15601 0.00000 50.09048
v -0.28952 0.00000 50.35252
v -0.32744 -0.11314 50.32497
v -0.41897 -0.16000 50.25847
v -0.51050 -0.11314 50.19197
v -0.54841 -0.00000 50.16443
v -0.51050 0.11314 50.19197
v -0.41897 0.16000 50.25847
v -0.32744 0.11314 50.32497
v -0.28952 0.00000 50.35252
v -0.49748 0.00000 50.56048
v -0.52503 -0.11314 50.52256
v -0.59153 -0.16000 50.43103
v -0.65803 -0.11314 50.33950
v -0.68557 -0.00000 50.30159
v -0.65803 0.11314 50.33950
v -0.59153 0.16000 50.43103
v -0.52503 0.11314 50.52256
v -0.49748 0.00000 50.56048
v -0.75952 0.00000 50.69399
v -0.77401 -0.11314 50.64942
v -0.80897 -0.16000 50.54182
v -0.84393 -0.11314 50.43422
v -0.85841 -0.00000 50.38966
v -0.84393 0.11314 50.43422
v -0.80897 0.16000 50.54182
v -0.77401 0.11314 50.64942
v -0.75952 0.00000 50.69399
v -1.05000 0.00000 50.74000
v -1.05000 -0.11314 50.69314
v -1.05000 -0.16000 50.58000
v -1.05000 -0.11314 50.46686
v -1.05000 -0.00000 50.42000
v -1.05000 0.11314 50.46686
v -1.05000 0.16000 50.58000
v -1.05000 0.11314 50.69314
v -1.05000 0.00000 50.74000
v -1.34048 0.00000 50.69399
v -1.32599 -0.11314 50.64942
v -1.29103 -0.16000 50.54182
v -1.25607 -0.11314 50.43422
v -1.24159 -0.00000 50.38966
v -1.25607 0.11314 50.43422
v -1.29103 0.16000 50.54182
v -1.32599 0.11314 50.64942
v -1.34048 0.00000 50.69399
v -1.60252 0.00000 50.56048
v -1.57497 -0.11314 50.52256
v -1.50847 -0.16000 50.43103
v -1.44197 -0.11314 50.33950
v -1.41443 -0.00000 50.30159
v -1.44197 0.11314 50.33950
v -1.50847 0.16000 50.43103
v -1.57497 0.11314 50.52256
v -1.60252 0.00000 50.56048
v -1.81048 0.00000 50.35252
v -1.77256 -0.11314 50.32497
v -1.68103 -0.16000 50.25847
v -1.58950 -0.11314 50.19197
v -1.55159 -0.00000 50.16443
v -1.58950 0.11314 50.19197
v -1.68103 0.16000 50.25847
v -1.77256 0.11314 50.32497
v -1.81048 0.00000 50.35252
v -1.94399 0.00000 50.09048
v -1.89942 -0.11314 50.07599
v -1.79182 -0.16000 50.04103
v -1.68422 -0.11314 50.00607
v -1.63966 -0.00000 49.99159
v -1.68422 0.11314 50.00607
v -1.79182 0.16000 50.04103
v -1.89942 0.11314 50.07599
v -1.94399 0.00000 50.09048
v -1.99000 0.00000 49.80000
v -1.94314 -0.11314 49.80000
v -1.83000 -0.16000 49.80000
v -1.71686 -0.11314 49.80000
v -1.67000 -0.00000 49.80000
v -1.71686 0.11314 49.80000
v -1.83000 0.16000 49.80000
v -1.94314 0.11314 49.80000
v -1.99000 0.00000 49.80000
v -1.94399 0.00000 49.50952
v -1.89942 -0.11314 49.52401
v -1.79182 -0.16000 49.55897
v -1.68422 -0.11314 49.59393
v -1.63966 -0.00000 49.60841
v -1.68422 0.11314 49.59393
v -1.79182 0.16000 49.55897
v -1.89942 0.11314 49.52401
v -1.94399 0.00000 49.50952
v -1.81048 0.00000 49.24748
v -1.77256 -0.11314 49.27503
v -1.68103 -0.16000 49.34153
v -1.58950 -0.11314 49.40803
v -1.55159 -0.00000 49.43557
v -1.58950 0.11314 49.40803
v -1.68103 0.16000 49.34153
v -1.77256 0.11314 49.27503
v -1.81048 0.00000 49.24748
v -1.60252 0.00000 49.03952
v -1.57497 -0.11314 49.07744
v -1.50847 -0.16000 49.16897
v -1.44197 -0.11314 49.26050
v -1.41443 -0.00000 49.29841
v -1.44197 0.11314 49.26050
v -1.50847 0.16000 49.16897
v -1.57497 0.11314 49.07744
v -1.60252 0.00000 49.03952
v -1.34048 0.00000 48.90601
v -1.32599 -0.11314 48.95058
v -1.29103 -0.16000 49.05818
v -1.25607 -0.11314 49.16578
v -1.24159 -0.00000 49.21034
v -1.25607 0.11314 49.16578
v -1.29103 0.16000 49.05818
v -1.32599 0.11314 48.95058
v -1.34048 0.00000 48.90601
v -1.05000 0.00000 48.86000
v -1.05000 -0.11314 48.90686
v -1.05000 -0.16000 49.02000
v -1.05000 -0.11314 49.13314
v -1.05000 -0.00000 49.18000
v -1.05000 0.11314 49.13314
v -1.05000 0.16000 49.02000
v -1.05000 0.11314 48.90686
v -1.05000 0.00000 48.86000
v -0.75952 0.00000 48.90601
v -0.77401 -0.11314 48.95058
v -0.80897 -0.16000 49.05818
v -0.84393 -0.11314 49.16578
v -0.85841 -0.00000 49.21034
v -0.84393 0.11314 49.16578
v -0.80897 0.16000 49.05818
v -0.77401 0.11314 48.95058
v -0.75952 0.00000 48.90601
v -0.49748 0.00000 49.03952
v -0.52503 -0.11314 49.07744
v -0.59153 -0.16000 49.16897
v -0.65803 -0.11314 49.26050
v -0.68557 -0.00000 49.29841
v -0.65803 0.11314 49.26050
v -0.59153 0.16000 49.16897
v -0.52503 0.11314 49.07744
v -0.49748 0.00000 49.03952
v -0.28952 0.00000 49.24748
v -0.32744 -0.11314 49.27503
v -0.41897 -0.16000 49.34153
v -0.51050 -0.11314 49.40803
v -0.54841 -0.00000 49.43557
v -0.51050 0.11314 49.40803
v -0.41897 0.16000 49.34153
v -0.32744 0.11314 49.27503
v -0.28952 0.00000 49.24748
v -0.15601 0.00000 49.50952
v -0.20058 -0.11314 49.52401
v -0.30818 -0.16000 49.55897
v -0.41578 -0.11314 49.59393
v -0.46034 -0.00000 49.60841
v -0.41578 0.11314 49.59393
v -0.30818 0.16000 49.55897
v -0.20058 0.11314 49.52401
v -0.15601 0.00000 49.50952
v -0.11000 0.00000 49.80000
v -0.15686 -0.11314 49.80000
v -0.27000 -0.16000 49.80000
v -0.38314 -0.11314 49.80000
v -0.43000 -0.00000 49.80000
v -0.38314 0.11314 49.80000
v -0.27000 0.16000 49.80000
v -0.15686 0.11314 49.80000
v -0.11000 0.00000 49.80000
v 3.04000 0.00000 50.20000
v 2.99314 -0.11314 50.20000
v 2.88000 -0.16000 50.20000
v 2.76686 -0.11314 50.20000
v 2.72000 -0.00000 50.20000
v 2.76686 0.11314 50.20000
v 2.88000 0.16000 50.20000
v 2.99314 0.11314 50.20000
v 3.04000 0.00000 50.20000
v 2.99399 0.00000 50.49048
v 2.94942 -0.11314 50.47599
v 2.84182 -0.16000 50.44103
v 2.73422 -0.11314 50.40607
v 2.68966 -0.00000 50.39159
v 2.73422 0.11314 50.40607
v 2.84182 0.16000 50.44103
v 2.94942 0.11314 50.47599
v 2.99399 0.00000 50.49048
v 2.86048 0.00000 50.75252
v 2.82256 -0.11314 50.72497
v 2.73103 -0.16000 50.65847
v 2.63950 -0.11314 50.59197
v 2.60159 -0.00000 50.56443
v 2.63950 0.11314 50.59197
v 2.73103 0.16000 50.65847
v 2.82256 0.11314 50.72497
v 2.86048 0.00000 50.75252
v 2.65252 0.00000 50.96048
v 2.62497 -0.11314 50.92256
v 2.55847 -0.16000 50.83103
v 2.49197 -0.11314 50.73950
v 2.46443 -0.00000 50.70159
v 2.49197 0.11314 50.73950
v 2.55847 0.16000 50.83103
v 2.62497 0.11314 50.92256
v 2.65252 0.00000 50.96048
v 2.39048 0.00000 51.09399
v 2.37599 -0.11314 51.04942
v 2.34103 -0.16000 50.94182
v 2.30607 -0.11314 50.83422
v 2.29159 -0.00000 50.78966
v 2.30607 0.11314 50.83422
v 2.34103 0.16000 50.94182
v 2.37599 0.11314 51.04942
v 2.39048 0.00000 51.09399
v 2.10000 0.00000 51.14000
v 2.10000 -0.11314 51.09314
v 2.10000 -0.16000 50.98000
v 2.10000 -0.11314 50.86686
v 2.10000 -0.00000 50.82000
v 2.10000 0.11314 50.86686
v 2.10000 0.16000 50.98000
v 2.10000 0.11314 51.09314
v 2.10000 0.00000 51.14000
v 1.80952 0.00000 51.09399
v 1.82401 -0.11314 51.04942
v 1.85897 -0.16000 50.94182
v 1.89393 -0.11314 50.83422
v 1.90841 -0.00000 50.78966
v 1.89393 0.11314 50.83422
v 1.85897 0.16000 50.94182
v 1.82401 0.11314 51.04942
v 1.80952 0.00000 51.09399
v 1.54748 0.00000 50.96048
v 1.57503 -0.11314 50.92256
v 1.64153 -0.16000 50.83103
v 1.70803 -0.11314 50.73950
v 1.73557 -0.00000 50.70159
v 1.70803 0.11314 50.73950
v 1.64153 0.16000 50.83103
v 1.57503 0.11314 50.92256
v 1.54748 0.00000 50.96048
v 1.33952 0.00000 50.75252
v 1.37744 -0.11314 50.72497
v 1.46897 -0.16000 50.65847
v 1.56050 -0.11314 50.59197
v 1.59841 -0.00000 50.56443
v 1.56050 0.11314 50.59197
v 1.46897 0.16000 50.65847
v 1.37744 0.11314 50.72497
v 1.33952 0.00000 50.75252
v 1.20601 0.00000 50.49048
v 1.25058 -0.11314 50.47599
v 1.35818 -0.16000 50.44103
v 1.46578 -0.11314 50.40607
v 1.51034 -0.00000 50.39159
v 1.46578 0.11314 50.40607
v 1.35818 0.16000 50.44103
v 1.25058 0.11314 50.47599
v 1.20601 0.00000 50.49048
v 1.16000 0.00000 50.20000
v 1.20686 -0.11314 50.20000
v 1.32000 -0.16000 50.20000
v 1.43314 -0.11314 50.20000
v 1.48000 -0.00000 50.20000
v 1.43314 0.11314 50.20000
v 1.32000 0.16000 50.20000
v 1.20686 0.11314 50.20000
v 1.16000 0.00000 50.20000
v 1.20601 0.00000 49.90952
v 1.25058 -0.11314 49.92401
v 1.35818 -0.16000 49.95897
v 1.46578 -0.11314 49.99393
v 1.51034 -0.00000 50.00841
v 1.46578 0.11314 49.99393
v 1.35818 0.16000 49.95897
v 1.25058 0.11314 49.92401
v 1.20601 0.00000 49.90952
v 1.33952 0.00000 49.64748
v 1.37744 -0.11314 49.67503
v 1.46897 -0.16000 49.74153
v 1.56050 -0.11314 49.80803
v 1.59841 -0.00000 49.83557
v 1.56050 0.11314 49.80803
v 1.46897 0.16000 49.74153
v 1.37744 0.11314 49.67503
v 1.33952 0.00000 49.64748
v 1.54748 0.00000 49.43952
v 1.57503 -0.11314 49.47744
v 1.64153 -0.16000 49.56897
v 1.70803 -0.11314 49.66050
v 1.73557 -0.00000 49.69841
v 1.70803 0.11314 49.66050
v 1.64153 0.16000 49.56897
v 1.57503 0.11314 49.47744
v 1.54748 0.00000 49.43952
v 1.80952 0.00000 49.30601
v 1.82401 -0.11314 49.35058
v 1.85897 -0.16000 49.45818
v 1.89393 -0.11314 49.56578
v 1.90841 -0.00000 49.61034
v 1.89393 0.11314 49.56578
v 1.85897 0.16000 49.45818
v 1.82401 0.11314 49.35058
v 1.80952 0.00000 49.30601
v 2.10000 0.00000 49.26000
v 2.10000 -0.11314 49.30686
v 2.10000 -0.16000 49.42000
v 2.10000 -0.11314 49.53314
v 2.10000 -0.00000 49.58000
v 2.10000 0.11314 49.53314
v 2.10000 0.16000 49.42000
v 2.10000 0.11314 49.30686
v 2.10000 0.00000 49.26000
v 2.39048 0.00000 49.30601
v 2.37599 -0.11314 49.35058
v 2.34103 -0.16000 49.45818
v 2.30607 -0.11314 49.56578
v 2.29159 -0.00000 49.61034
v 2.30607 0.11314 49.56578
v 2.34103 0.16000 49.45818
v 2.37599 0.11314 49.35058
v 2.39048 0.00000 49.30601
v 2.65252 0.00000 49.43952
v 2.62497 -0.11314 49.47744
v 2.55847 -0.16000 49.56897
v 2.49197 -0.11314 49.66050
v 2.46443 -0.00000 49.69841
v 2.49197 0.11314 49.66050
v 2.55847 0.16000 49.56897
v 2.62497 0.11314 49.47744
v 2.65252 0.00000 49.43952
v 2.86048 0.00000 49.64748
v 2.82256 -0.11314 49.67503
v 2.73103 -0.16000 49.74153
v 2.63950 -0.11314 49.80803
v 2.60159 -0.00000 49.83557
v 2.63950 0.11314 49.80803
v 2.73103 0.16000 49.74153
v 2.82256 0.11314 49.67503
v 2.86048 0.00000 49.64748
v 2.99399 0.00000 49.90952
v 2.94942 -0.11314 49.92401
v 2.84182 -0.16000 49.95897
v 2.73422 -0.11314 49.99393
v 2.68966 -0.00000 50.00841
v 2.73422 0.11314 49.99393
v 2.84182 0.16000 49.95897
v 2.94942 0.11314 49.92401
v 2.99399 0.00000 49.90952
v 3.04000 0.00000 50.20000
v 2.99314 -0.11314 50.20000
v 2.88000 -0.16000 50.20000
v 2.76686 -0.11314 50.20000
v 2.72000 -0.00000 50.20000
v 2.76686 0.11314 50.20000
v 2.88000 0.16000 50.20000
v 2.99314 0.11314 50.20000
v 3.04000 0.00000 50.20000
v -1.16000 0.00000 49.80000
v -1.20686 -0.11314 49.80000
v -1.32000 -0.16000 49.80000
v -1.43314 -0.11314 49.80000
v -1.48000 -0.00000 49.80000
v -1.43314 0.11314 49.80000
v -1.32000 0.16000 49.80000
v -1.20686 0.11314 49.80000
v -1.16000 0.00000 49.80000
v -1.20601 0.00000 50.09048
v -1.25058 -0.11314 50.07599
v -1.35818 -0.16000 50.04103
v -1.46578 -0.11314 50.00607
v -1.51034 -0.00000 49.99159
v -1.46578 0.11314 50.00607
v -1.35818 0.16000 50.04103
v -1.25058 0.11314 50.07599
v -1.20601 0.00000 50.09048
v -1.33952 0.00000 50.35252
v -1.37744 -0.11314 50.32497
v -1.46897 -0.16000 50.25847
v -1.56050 -0.11314 50.19197
v -1.59841 -0.00000 50.16443
v -1.56050 0.11314 50.19197
v -1.46897 0.16000 50.25847
v -1.37744 0.11314 50.32497
v -1.33952 0.00000 50.35252
v -1.54748 0.00000 50.56048
v -1.57503 -0.11314 50.52256
v -1.64153 -0.16000 50.43103
v -1.70803 -0.11314 50.33950
v -1.73557 -0.00000 50.30159
v -1.70803 0.11314 50.33950
v -1.64153 0.16000 50.43103
v -1.57503 0.11314 50.52256
v -1.54748 0.00000 50.56048
v -1.80952 0.00000 50.69399
v -1.82401 -0.11314 50.64942
v -1.85897 -0.16000 50.54182
v -1.89393 -0.11314 50.43422
v -1.90841 -0.00000 50.38966
v -1.89393 0.11314 50.43422
v -1.85897 0.16000 50.54182
v -1.82401 0.11314 50.64942
v -1.80952 0.00000 50.69399
v -2.10000 0.00000 50.74000
v -2.10000 -0.11314 50.69314
v -2.10000 -0.16000 50.58000
v -2.10000 -0.11314 50.46686
v -2.10000 -0.00000 50.42000
v -2.10000 0.11314 50.46686
v -2.10000 0.16000 50.58000
v -2.10000 0.11314 50.69314
v -2.10000 0.00000 50.74000
v -2.39048 0.00000 50.69399
v -2.37599 -0.11314 50.64942
v -2.34103 -0.16000 50.54182
v -2.30607 -0.11314 50.43422
v -2.29159 -0.00000 50.38966
v -2.30607 0.11314 50.43422
v -2.34103 0.16000 50.54182
v -2.37599 0.11314 50.64942
v -2.39048 0.00000 50.69399
v -2.65252 0.00000 50.56048
v -2.62497 -0.11314 50.52256
v -2.55847 -0.16000 50.43103
v -2.49197 -0.11314 50.33950
v -2.46443 -0.00000 50.30159
v -2.49197 0.11314 50.33950
v -2.55847 0.16000 50.43103
v -2.62497 0.11314 50.52256
v -2.65252 0.00000 50.56048
v -2.86048 0.00000 50.35252
v -2.82256 -0.11314 50.32497
v -2.73103 -0.16000 50.25847
v -2.63950 -0.11314 50.19197
v -2.60159 -0.00000 50.16443
v -2.63950 0.11314 50.19197
v -2.73103 0.16000 50.25847
v -2.82256 0.11314 50.32497
v -2.86048 0.00000 50.35252
v -2.99399 0.00000 50.09048
v -2.94942 -0.11314 50.07599
v -2.84182 -0.16000 50.04103
v -2.73422 -0.11314 50.00607
v -2.68966 -0.00000 49.99159
v -2.73422 0.11314 50.00607
v -2.84182 0.16000 50.04103
v -2.94942 0.11314 50.07599
v -2.99399 0.00000 50.09048
v -3.04000 0.00000 49.80000
v -2.99314 -0.11314 49.80000
v -2.88000 -0.16000 49.80000
v -2.76686 -0.11314 49.80000
v -2.72000 -0.00000 49.80000
v -2.76686 0.11314 49.80000
v -2.88000 0.16000 49.80000
v -2.99314 0.11314 49.80000
v -3.04000 0.00000 49.80000
v -2.99399 0.00000 49.50952
v -2.94942 -0.11314 49.52401
v -2.84182 -0.16000 49.55897
v -2.73422 -0.11314 49.59393
v -2.68966 -0.00000 49.60841
v -2.73422 0.11314 49.59393
v -2.84182 0.16000 49.55897
v -2.94942 0.11314 49.52401
v -2.99399 0.00000 49.50952
v -2.86048 0.00000 49.24748
v -2.82256 -0.11314 49.27503
v -2.73103 -0.16000 49.34153
v -2.63950 -0.11314 49.40803
v -2.60159 -0.00000 49.43557
v -2.63950 0.11314 49.40803
v -2.73103 0.16000 49.34153
v -2.82256 0.11314 49.27503
v -2.86048 0.00000 49.24748
v -2.65252 0.00000 49.03952
v -2.62497 -0.11314 49.07744
v -2.55847 -0.16000 49.16897
v -2.49197 -0.11314 49.26050
v -2.46443 -0.00000 49.29841
v -2.49197 0.11314 49.26050
v -2.55847 0.16000 49.16897
v -2.62497 0.11314 49.07744
v -2.65252 0.00000 49.03952
v -2.39048 0.00000 48.90601
v -2.37599 -0.11314 48.95058
v -2.34103 -0.16000 49.05818
v -2.30607 -0.11314 49.16578
v -2.29159 -0.00000 49.21034
v -2.30607 0.11314 49.16578
v -2.34103 0.16000 49.05818
v -2.37599 0.11314 48.95058
v -2.39048 0.00000 48.90601
v -2.10000 0.00000 48.86000
v -2.10000 -0.11314 48.90686
v -2.10000 -0.16000 49.02000
v -2.10000 -0.11314 49.13314
v -2.10000 -0.00000 49.18000
v -2.10000 0.11314 49.13314
v -2.10000 0.16000 49.02000
v -2.10000 0.11314 48.90686
v -2.10000 0.00000 48.86000
v -1.80952 0.00000 48.90601
v -1.82401 -0.11314 48.95058
v -1.85897 -0.16000 49.05818
v -1.89393 -0.11314 49.16578
v -1.90841 -0.00000 49.21034
v -1.89393 0.11314 49.16578
v -1.85897 0.16000 49.05818
v -1.82401 0.11314 48.95058
v -1.80952 0.00000 48.90601
v -1.54748 0.00000 49.03952
v -1.57503 -0.11314 49.07744
v -1.64153 -0.16000 49.16897
v -1.70803 -0.11314 49.26050
v -1.73557 -0.00000 49.29841
v -1.70803 0.11314 49.26050
v -1.64153 0.16000 49.16897
v -1.57503 0.11314 49.07744
v -1.54748 0.00000 49.03952
v -1.33952 0.00000 49.24748
v -1.37744 -0.11314 49.27503
v -1.46897 -0.16000 49.34153
v -1.56050 -0.11314 49.40803
v -1.59841 -0.00000 49.43557
v -1.56050 0.11314 49.40803
v -1.46897 0.16000 49.34153
v -1.37744 0.11314 49.27503
v -1.33952 0.00000 49.24748
v -1.20601 0.00000 49.50952
v -1.25058 -0.11314 49.52401
v -1.35818 -0.16000 49.55897
v -1.46578 -0.11314 49.59393
v -1.51034 -0.00000 49.60841
v -1.46578 0.11314 49.59393
v -1.35818 0.16000 49.55897
v -1.25058 0.11314 49.52401
v -1.20601 0.00000 49.50952
v -1.16000 0.00000 49.80000
v -1.20686 -0.11314 49.80000
v -1.32000 -0.16000 49.80000
v -1.43314 -0.11314 49.80000
v -1.48000 -0.00000 49.80000
v -1.43314 0.11314 49.80000
v -1.32000 0.16000 49.80000
v -1.20686 0.11314 49.80000
v -1.16000 0.00000 49.80000
v 4.09000 0.00000 50.20000
v 4.04314 -0.11314 50.20000
v 3.93000 -0.16000 50.20000
v 3.81686 -0.11314 50.20000
v 3.77000 -0.00000 50.20000
v 3.81686 0.11314 50.20000
v 3.93000 0.16000 50.20000
v 4.04314 0.11314 50.20000
v 4.09000 0.00000 50.20000
v 4.04399 0.00000 50.49048
v 3.99942 -0.11314 50.47599
v 3.89182 -0.16000 50.44103
v 3.78422 -0.11314 50.40607
v 3.73966 -0.00000 50.39159
v 3.78422 0.11314 50.40607
v 3.89182 0.16000 50.44103
v 3.99942 0.11314 50.47599
v 4.04399 0.00000 50.49048
v 3.91048 0.00000 50.75252
v 3.87256 -0.11314 50.72497
v 3.78103 -0.16000 50.65847
v 3.68950 -0.11314 50.59197
v 3.65159 -0.00000 50.56443
v 3.68950 0.11314 50.59197
v 3.78103 0.16000 50.65847
v 3.87256 0.11314 50.72497
v 3.91048 0.00000 50.75252
v 3.70252 0.00000 50.96048
v 3.67497 -0.11314 50.92256
v 3.60847 -0.16000 50.83103
v 3.54197 -0.11314 50.73950
v 3.51443 -0.00000 50.70159
v 3.54197 0.11314 50.73950
v 3.60847 0.16000 50.83103
v 3.67497 0.11314 50.92256
v 3.70252 0.00000 50.96048
v 3.44048 0.00000 51.09399
v 3.42599 -0.11314 51.04942
v 3.39103 -0.16000 50.94182
v 3.35607 -0.11314 50.83422
v 3.34159 -0.00000 50.78966
v 3.35607 0.11314 50.83422
v 3.39103 0.16000 50.94182
v 3.42599 0.11314 51.04942
v 3.44048 0.00000 51.09399
v 3.15000 0.00000 51.14000
v 3.15000 -0.11314 51.09314
v 3.15000 -0.16000 50.98000
v 3.15000 -0.11314 50.86686
v 3.15000 -0.00000 50.82000
v 3.15000 0.11314 50.86686
v 3.15000 0.16000 50.98000
v 3.15000 0.11314 51.09314
v 3.15000 0.00000 51.14000
v 2.85952 0.00000 51.09399
v 2.87401 -0.11314 51.04942
v 2.90897 -0.16000 50.94182
v 2.94393 -0.11314 50.83422
v 2.95841 -0.00000 50.78966
v 2.94393 0.11314 50.83422
v 2.90897 0.16000 50.94182
v 2.87401 0.11314 51.04942
v 2.85952 0.00000 51.09399
v 2.59748 0.00000 50.96048
v 2.62503 -0.11314 50.92256
v 2.69153 -0.16000 50.83103
v 2.75803 -0.11314 50.73950
v 2.78557 -0.00000 50.70159
v 2.75803 0.11314 50.73950
v 2.69153 0.16000 50.83103
v 2.62503 0.11314 50.92256
v 2.59748 0.00000 50.96048
v 2.38952 0.00000 50.75252
v 2.42744 -0.11314 50.72497
v 2.51897 -0.16000 50.65847
v 2.61050 -0.11314 50.59197
v 2.64841 -0.00000 50.56443
v 2.61050 0.11314 50.59197
v 2.51897 0.16000 50.65847
v 2.42744 0.11314 50.72497
v 2.38952 0.00000 50.75252
v 2.25601 0.00000 50.49048
v 2.30058 -0.11314 50.47599
v 2.40818 -0.16000 50.44103
v 2.51578 -0.11314 50.40607
v 2.56034 -0.00000 50.39159
v 2.51578 0.11314 50.40607
v 2.40818 0.16000 50.44103
v 2.30058 0.11314 50.47599
v 2.25601 0.00000 50.49048
v 2.21000 0.00000 50.20000
v 2.25686 -0.11314 50.20000
v 2.37000 -0.16000 50.20000
v 2.48314 -0.11314 50.20000
v 2.53000 -0.00000 50.20000
v 2.48314 0.11314 50.20000
v 2.37000 0.16000 50.20000
v 2.25686 0.11314 50.20000
v 2.21000 0.00000 50.20000
v 2.25601 0.00000 49.90952
v 2.30058 -0.11314 49.92401
v 2.40818 -0.16000 49.95897
v 2.51578 -0.11314 49.99393
v 2.56034 -0.00000 50.00841
v 2.51578 0.11314 49.99393
v 2.40818 0.16000 49.95897
v 2.30058 0.11314 49.92401
v 2.25601 0.00000 49.90952
v 2.38952 0.00000 49.64748
v 2.42744 -0.11314 49.67503
v 2.51897 -0.16000 49.74153
v 2.61050 -0.11314 49.80803
v 2.64841 -0.00000 49.83557
v 2.61050 0.11314 49.80803
v 2.51897 0.16000 49.74153
v 2.42744 0.11314 49.67503
v 2.38952 0.00000 49.64748
v 2.59748 0.00000 49.43952
v 2.62503 -0.11314 49.47744
v 2.69153 -0.16000 49.56897
v 2.75803 -0.11314 49.66050
v 2.78557 -0.00000 49.69841
v 2.75803 0.11314 49.66050
v 2.69153 0.16000 49.56897
v 2.62503 0.11314 49.47744
v 2.59748 0.00000 49.43952
v 2.85952 0.00000 49.30601
v 2.87401 -0.11314 49.35058
v 2.90897 -0.16000 49.45818
v 2.94393 -0.11314 49.56578
v 2.95841 -0.00000 49.61034
v 2.94393 0.11314 49.56578
v 2.90897 0.16000 49.45818
v 2.87401 0.11314 49.35058
v 2.85952 0.00000 49.30601
v 3.15000 0.00000 49.26000
v 3.15000 -0.11314 49.30686
v 3.15000 -0.16000 49.42000
v 3.15000 -0.11314 49.53314
v 3.15000 -0.00000 49.58000
v 3.15000 0.11314 49.53314
v 3.15000 0.16000 49.42000
v 3.15000 0.11314 49.30686
v 3.15000 0.00000 49.26000
v 3.44048 0.00000 49.30601
v 3.42599 -0.11314 49.35058
v 3.39103 -0.16000 49.45818
v 3.35607 -0.11314 49.56578
v 3.34159 -0.00000 49.61034
v 3.35607 0.11314 49.56578
v 3.39103 0.16000 49.45818
v 3.42599 0.11314 49.35058
v 3.44048 0.00000 49.30601
v 3.70252 0.00000 49.43952
v 3.67497 -0.11314 49.47744
v 3.60847 -0.16000 49.56897
v 3.54197 -0.11314 49.66050
v 3.51443 -0.00000 49.69841
v 3.54197 0.11314 49.66050
v 3.60847 0.16000 49.56897
v 3.67497 0.11314 49.47744
v 3.70252 0.00000 49.43952
v 3.91048 0.00000 49.64748
v 3.87256 -0.11314 49.67503
v 3.78103 -0.16000 49.74153
v 3.68950 -0.11314 49.80803
v 3.65159 -0.00000 49.83557
v 3.68950 0.11314 49.80803
v 3.78103 0.16000 49.74153
v 3.87256 0.11314 49.67503
v 3.91048 0.00000 49.64748
v 4.04399 0.00000 49.90952
v 3.99942 -0.11314 49.92401
v 3.89182 -0.16000 49.95897
v 3.78422 -0.11314 49.99393
v 3.73966 -0.00000 50.00841
v 3.78422 0.11314 49.99393
v 3.89182 0.16000 49.95897
v 3.99942 0.11314 49.92401
v 4.04399 0.00000 49.90952
v 4.09000 0.00000 50.20000
v 4.04314 -0.11314 50.20000
v 3.93000 -0.16000 50.20000
v 3.81686 -0.11314 50.20000
v 3.77000 -0.00000 50.20000
v 3.81686 0.11314 50.20000
v 3.93000 0.16000 50.20000
v 4.04314 0.11314 50.20000
v 4.09000 0.00000 50.20000
vt 0.00000 0.00000
vt 0.00000 0.12500
vt 0.00000 0.25000
vt 0.00000 0.37500
vt 0.00000 0.50000
vt 0.00000 0.62500
vt 0.00000 0.75000
vt 0.00000 0.87500
vt 0.00000 1.00000
vt 0.05000 0.00000
vt 0.05000 0.12500
vt 0.05000 0.25000
vt 0.05000 0.37500
vt 0.05000 0.50000
vt 0.05000 0.62500
vt 0.05000 0.75000
vt 0.05000 0.87500
vt 0.05000 1.00000
vt 0.10000 0.00000
vt 0.10000 0.12500
vt 0.10000 0.25000
vt 0.10000 0.37500
vt 0.10000 0.50000
vt 0.10000 0.62500
vt 0.10000 0.75000
vt 0.10000 0.87500
vt 0.10000 1.00000
vt 0.15000 0.00000
vt 0.15000 0.12500
vt 0.15000 0.25000
vt 0.15000 0.37500
vt 0.15000 0.50000
vt 0.15000 0.62500
vt 0.15000 0.75000
vt 0.15000 0.87500
vt 0.15000 1.00000
vt 0.20000 0.00000
vt 0.20000 0.12500
vt 0.20000 0.25000
vt 0.20000 0.37500
vt 0.20000 0.50000
vt 0.20000 0.62500
vt 0.20000 0.75000
vt 0.20000 0.87500
vt 0.20000 1.00000
vt 0.25000 0.00000
vt 0.25000 0.12500
vt 0.25000 0.25000
vt 0.25000 0.37500
vt 0.25000 0.50000
vt 0.25000 0.62500
vt 0.25000 0.75000
vt 0.25000 0.87500
vt 0.25000 1.00000
vt 0.30000 0.00000
vt 0.30000 0.12500
vt 0.30000 0.25000
vt 0.30000 0.37500
vt 0.30000 0.50000
vt 0.30000 0.62500
vt 0.30000 0.75000
vt 0.30000 0.87500
vt 0.30000 1.00000
vt 0.35000 0.00000
vt 0.35000 0.12500
vt 0.35000 0.25000
vt 0.35000 0.37500
vt 0.35000 0.50000
vt 0.35000 0.62500
vt 0.35000 0.75000
vt 0.35000 0.87500
vt 0.35000 1.00000
vt 0.40000 0.00000
vt 0.40000 0.12500
vt 0.40000 0.25000
vt 0.40000 0.37500
vt 0.40000 0.50000
vt 0.40000 0.62500
vt 0.40000 0.75000
vt 0.40000 0.87500
vt 0.40000 1.00000
vt 0.45000 0.00000
vt 0.45000 0.12500
vt 0.45000 0.25000
vt 0.45000 0.37500
vt 0.45000 0.50000
vt 0.45000 0.62500
vt 0.45000 0.75000
vt 0.45000 0.87500
vt 0.45000 1.00000
vt 0.50000 0.00000
vt 0.50000 0.12500
vt 0.50000 0.25000
vt 0.50000 0.37500
vt 0.50000 0.50000
vt 0.50000 0.62500
vt 0.50000 0.75000
vt 0.50000 0.87500
vt 0.50000 1.00000
vt 0.55000 0.00000
vt 0.55000 0.12500
vt 0.55000 0.25000
vt 0.55000 0.37500
vt 0.55000 0.50000
vt 0.55000 0.62500
vt 0.55000 0.75000
vt 0.55000 0.87500
vt 0.55000 1.00000
vt 0.60000 0.00000
vt 0.60000 0.12500
vt 0.60000 0.25000
vt 0.60000 0.37500
vt 0.60000 0.50000
vt 0.60000 0.62500
vt 0.60000 0.75000
vt 0.60000 0.87500
vt 0.60000 1.00000
vt 0.65000 0.00000
vt 0.65000 0.12500
vt 0.65000 0.25000
vt 0.65000 0.37500
vt 0.65000 0.50000
vt 0.65000 0.62500
vt 0.65000 0.75000
vt 0.65000 0.87500
vt 0.65000 1.00000
vt 0.70000 0.00000
vt 0.70000 0.12500
vt 0.70000 0.25000
vt 0.70000 0.37500
vt 0.70000 0.50000
vt 0.70000 0.62500
vt 0.70000 0.75000
vt 0.70000 0.87500
vt 0.70000 1.00000
vt 0.75000 0.00000
vt 0.75000 0.12500
vt 0.75000 0.25000
vt 0.75000 0.37500
vt 0.75000 0.50000
vt 0.75000 0.62500
vt 0.75000 0.75000
vt 0.75000 0.87500
vt 0.75000 1.00000
vt 0.80000 0.00000
vt 0.80000 0.12500
vt 0.80000 0.25000
vt 0.80000 0.37500
vt 0.80000 0.50000
vt 0.80000 0.62500
vt 0.80000 0.75000
vt 0.80000 0.87500
vt 0.80000 1.00000
vt 0.85000 0.00000
vt 0.85000 0.12500
vt 0.85000 0.25000
vt 0.85000 0.37500
vt 0.85000 0.50000
vt 0.85000 0.62500
vt 0.85000 0.75000
vt 0.85000 0.87500
vt 0.85000 1.00000
vt 0.90000 0.00000
vt 0.90000 0.12500
vt 0.90000 0.25000
vt 0.90000 0.37500
vt 0.90000 0.50000
vt 0.90000 0.62500
vt 0.90000 0.75000
vt 0.90000 0.87500
vt 0.90000 1.00000
vt 0.95000 0.00000
vt 0.95000 0.12500
vt 0.95000 0.25000
vt 0.95000 0.37500
vt 0.95000 0.50000
vt 0.95000 0.62500
vt 0.95000 0.75000
vt 0.95000 0.87500
vt 0.95000 1.00000
vt 1.00000 0.00000
vt 1.00000 0.12500
vt 1.00000 0.25000
vt 1.00000 0.37500
vt 1.00000 0.50000
vt 1.00000 0.62500
vt 1.00000 0.75000
vt 1.00000 0.87500
vt 1.00000 1.00000
vt 0.00000 0.00000
vt 0.00000 0.12500
vt 0.00000 0.25000
vt 0.00000 0.37500
vt 0.00000 0.50000
vt 0.00000 0.62500
vt 0.00000 0.75000
vt 0.00000 0.87500
vt 0.00000 1.00000
vt 0.05000 0.00000
vt 0.05000 0.12500
vt 0.05000 0.25000
vt 0.05000 0.37500
vt 0.05000 0.50000
vt 0.05000 0.62500
vt 0.05000 0.75000
vt 0.05000 0.87500
vt 0.05000 1.00000
vt 0.10000 0.00000
vt 0.10000 0.12500
vt 0.10000 0.25000
vt 0.10000 0.37500
vt 0.10000 0.50000
vt 0.10000 0.62500
vt 0.10000 0.75000
vt 0.10000 0.87500
vt 0.10000 1.00000
vt 0.15000 0.00000
vt 0.15000 0.12500
vt 0.15000 0.25000
vt 0.15000 0.37500
vt 0.15000 0.50000
vt 0.15000 0.62500
vt 0.15000 0.75000
vt 0.15000 0.87500
vt 0.15000 1.00000
vt 0.20000 0.00000
vt 0.20000 0.12500
vt 0.20000 0.25000
vt 0.20000 0.37500
vt 0.20000 0.50000
vt 0.20000 0.62500
vt 0.20000 0.75000
vt 0.20000 0.87500
vt 0.20000 1.00000
vt 0.25000 0.00000
vt 0.25000 0.12500
vt 0.25000 0.25000
vt 0.25000 0.37500
vt 0.25000 0.50000
vt 0.25000 0.62500
vt 0.25000 0.75000
vt 0.25000 0.87500
vt 0.25000 1.00000
vt 0.30000 0.00000
vt 0.30000 0.12500
vt 0.30000 0.25000
vt 0.30000 0.37500
vt 0.30000 0.50000
vt 0.30000 0.62500
vt 0.30000 0.75000
vt 0.30000 0.87500
vt 0.30000 1.00000
vt 0.35000 0.00000
vt 0.35000 0.12500
vt 0.35000 0.25000
vt 0.35000 0.37500
vt 0.35000 0.50000
vt 0.35000 0.62500
vt 0.35000 0.75000
vt 0.35000 0.87500
vt 0.35000 1.00000
vt 0.40000 0.00000
vt 0.40000 0.12500
vt 0.40000 0.25000
vt 0.40000 0.37500
vt 0.40000 0.50000
vt 0.40000 0.62500
vt 0.40000 0.75000
vt 0.40000 0.87500
vt 0.40000 1.00000
vt 0.45000 0.00000
vt 0.45000 0.12500
vt 0.45000 0.25000
vt 0.45000 0.37500
vt 0.45000 0.50000
vt 0.45000 0.62500
vt 0.45000 0.75000
vt 0.45000 0.87500
vt 0.45000 1.00000
vt 0.50000 0.00000
vt 0.50000 0.12500
vt 0.50000 0.25000
vt 0.50000 0.37500
vt 0.50000 0.50000
vt 0.50000 0.62500
vt 0.50000 0.75000
vt 0.50000 0.87500
vt 0.50000 1.00000
vt 0.55000 0.00000
vt 0.55000 0.12500
vt 0.55000 0.25000
vt 0.55000 0.37500
vt 0.55000 0.50000
vt 0.55000 0.62500
vt 0.55000 0.75000
vt 0.55000 0.87500
vt 0.55000 1.00000
vt 0.60000 0.00000
vt 0.60000 0.12500
vt 0.60000 0.25000
vt 0.60000 0.37500
vt 0.60000 0.50000
vt 0.60000 0.62500
vt 0.60000 0.75000
vt 0.60000 0.87500
vt 0.60000 1.00000
vt 0.65000 0.00000
vt 0.65000 0.12500
vt 0.65000 0.25000
vt 0.65000 0.37500
vt 0.65000 0.50000
vt 0.65000 0.62500
vt 0.65000 0.75000
vt 0.65000 0.87500
vt 0.65000 1.00000
vt 0.70000 0.00000
vt 0.70000 0.12500
vt 0.70000 0.25000
vt 0.70000 0.37500
vt 0.70000 0.50000
vt 0.70000 0.62500
vt 0.70000 0.75000
vt 0.70000 0.87500
vt 0.70000 1.00000
vt 0.75000 0.00000
vt 0.75000 0.12500
vt 0.75000 0.25000
vt 0.75000 0.37500
vt 0.75000 0.50000
vt 0.75000 0.62500
vt 0.75000 0.75000
vt 0.75000 0.87500
vt 0.75000 1.00000
vt 0.80000 0.00000
vt 0.80000 0.12500
vt 0.80000 0.25000
vt 0.80000 0.37500
vt 0.80000 0.50000
vt 0.80000 0.62500
vt 0.80000 0.75000
vt 0.80000 0.87500
vt 0.80000 1.00000
vt 0.85000 0.00000
vt 0.85000 0.12500
vt 0.85000 0.25000
vt 0.85000 0.37500
vt 0.85000 0.50000
vt 0.85000 0.62500
vt 0.85000 0.75000
vt 0.85000 0.87500
vt 0.85000 1.00000
vt 0.90000 0.00000
vt 0.90000 0.12500
vt 0.90000 0.25000
vt 0.90000 0.37500
vt 0.90000 0.50000
vt 0.90000 0.62500
vt 0.90000 0.75000
vt 0.90000 0.87500
vt 0.90000 1.00000
vt 0.95000 0.00000
vt 0.95000 0.12500
vt 0.95000 0.25000
vt 0.95000 0.37500
vt 0.95000 0.50000
vt 0.95000 0.62500
vt 0.95000 0.75000
vt 0.95000 0.87500
vt 0.95000 1.00000
vt 1.00000 0.00000
vt 1.00000 0.12500
vt 1.00000 0.25000
vt 1.00000 0.37500
vt 1.00000 0.50000
vt 1.00000 0.62500
vt 1.00000 0.75000
vt 1.00000 0.87500
vt 1.00000 1.00000
vt 0.00000 0.00000
vt 0.00000 0.12500
vt 0.00000 0.25000
vt 0.00000 0.37500
vt 0.00000 0.50000
vt 0.00000 0.62500
vt 0.00000 0.75000
vt 0.00000 0.87500
vt 0.00000 1.00000
vt 0.05000 0.00000
vt 0.05000 0.12500
vt 0.05000 0.25000
vt 0.05000 0.37500
vt 0.05000 0.50000
vt 0.05000 0.62500
vt 0.05000 0.75000
vt 0.05000 0.87500
vt 0.05000 1.00000
vt 0.10000 0.00000
vt 0.10000 0.12500
vt 0.10000 0.25000
vt 0.10000 0.37500
vt 0.10000 0.50000
vt 0.10000 0.62500
vt 0.10000 0.75000
vt 0.10000 0.87500
vt 0.10000 1.00000
vt 0.15000 0.00000
vt 0.15000 0.12500
vt 0.15000 0.25000
vt 0.15000 0.37500
vt 0.15000 0.50000
vt 0.15000 0.62500
vt 0.15000 0.75000
vt 0.15000 0.87500
vt 0.15000 1.00000
vt 0.20000 0.00000
vt 0.20000 0.12500
vt 0.20000 0.25000
vt 0.20000 0.37500
vt 0.20000 0.50000
vt 0.20000 0.62500
vt 0.20000 0.75000
vt 0.20000 0.87500
vt 0.20000 1.00000
vt 0.25000 0.00000
vt 0.25000 0.12500
vt 0.25000 0.25000
vt 0.25000 0.37500
vt 0.25000 0.50000
vt 0.25000 0.62500
vt 0.25000 0.75000
vt 0.25000 0.87500
vt 0.25000 1.00000
vt 0.30000 0.00000
vt 0.30000 0.12500
vt 0.30000 0.25000
vt 0.30000 0.37500
vt 0.30000 0.50000
vt 0.30000 0.62500
vt 0.30000 0.75000
vt 0.30000 0.87500
vt 0.30000 1.00000
vt 0.35000 0.00000
vt 0.35000 0.12500
vt 0.35000 0.25000
vt 0.35000 0.37500
vt 0.35000 0.50000
vt 0.35000 0.62500
vt 0.35000 0.75000
vt 0.35000 0.87500
vt 0.35000 1.00000
vt 0.40000 0.00000
vt 0.40000 0.12500
vt 0.40000 0.25000
vt 0.40000 0.37500
vt 0.40000 0.50000
vt 0.40000 0.62500
vt 0.40000 0.75000
vt 0.40000 0.87500
vt 0.40000 1.00000
vt 0.45000 0.00000
vt 0.45000 0.12500
vt 0.45000 0.25000
vt 0.45000 0.37500
vt 0.45000 0.50000
vt 0.45000 0.62500
vt 0.45000 0.75000
vt 0.45000 0.87500
vt 0.45000 1.00000
vt 0.50000 0.00000
vt 0.50000 0.12500
vt 0.50000 0.25000
vt 0.50000 0.37500
vt 0.50000 0.50000
vt 0.50000 0.62500
vt 0.50000 0.75000
vt 0.50000 0.87500
vt 0.50000 1.00000
vt 0.55000 0.00000
vt 0.55000 0.12500
vt 0.55000 0.25000
vt 0.55000 0.37500
vt 0.55000 0.50000
vt 0.55000 0.62500
vt 0.55000 0.75000
vt 0.55000 0.87500
vt 0.55000 1.00000
vt 0.60000 0.00000
vt 0.60000 0.12500
vt 0.60000 0.25000
vt 0.60000 0.37500
vt 0.60000 0.50000
vt 0.60000 0.62500
vt 0.60000 0.75000
vt 0.60000 0.87500
vt 0.60000 1.00000
vt 0.65000 0.00000
vt 0.65000 0.12500
vt 0.65000 0.25000
vt 0.65000 0.37500
vt 0.65000 0.50000
vt 0.65000 0.62500
vt 0.65000 0.75000
vt 0.65000 0.87500
vt 0.65000 1.00000
vt 0.70000 0.00000
vt 0.70000 0.12500
vt 0.70000 0.25000
vt 0.70000 0.37500
vt 0.70000 0.50000
vt 0.70000 0.62500
vt 0.70000 0.75000
vt 0.70000 0.87500
vt 0.70000 1.00000
vt 0.75000 0.00000
vt 0.75000 0.12500
vt 0.75000 0.25000
vt 0.75000 0.37500
vt 0.75000 0.50000
vt 0.75000 0.62500
vt 0.75000 0.75000
vt 0.75000 0.87500
vt 0.75000 1.00000
vt 0.80000 0.00000
vt 0.80000 0.12500
vt 0.80000 0.25000
vt 0.80000 0.37500
vt 0.80000 0.50000
vt 0.80000 0.62500
vt 0.80000 0.75000
vt 0.80000 0.87500
vt 0.80000 1.00000
vt 0.85000 0.00000
vt 0.85000 0.12500
vt 0.85000 0.25000
vt 0.85000 0.37500
vt 0.85000 0.50000
vt 0.85000 0.62500
vt 0.85000 0.75000
vt 0.85000 0.87500
vt 0.85000 1.00000
vt 0.90000 0.00000
vt 0.90000 0.12500
vt 0.90000 0.25000
vt 0.90000 0.37500
vt 0.90000 0.50000
vt 0.90000 0.62500
vt 0.90000 0.75000
vt 0.90000 0.87500
vt 0.90000 1.00000
vt 0.95000 0.00000
vt 0.95000 0.12500
vt 0.95000 0.25000
vt 0.95000 0.37500
vt 0.95000 0.50000
vt 0.95000 0.62500
vt 0.95000 0.75000
vt 0.95000 0.87500
vt 0.95000 1.00000
vt 1.00000 0.00000
vt 1.00000 0.12500
vt 1.00000 0.25000
vt 1.00000 0.37500
vt 1.00000 0.50000
vt 1.00000 0.62500
vt 1.00000 0.75000
vt 1.00000 0.87500
vt 1.00000 1.00000
vt 0.00000 0.00000
vt 0.00000 0.12500
vt 0.00000 0.25000
vt 0.00000 0.37500
vt 0.00000 0.50000
vt 0.00000 0.62500
vt 0.00000 0.75000
vt 0.00000 0.87500
vt 0.00000 1.00000
vt 0.05000 0.00000
vt 0.05000 0.12500
vt 0.05000 0.25000
vt 0.05000 0.37500
vt 0.05000 0.50000
vt 0.05000 0.62500
vt 0.05000 0.75000
vt 0.05000 0.87500
vt 0.05000 1.00000
vt 0.10000 0.00000
vt 0.10000 0.12500
vt 0.10000 0.25000
vt 0.10000 0.37500
vt 0.10000 0.50000
vt 0.10000 0.62500
vt 0.10000 0.75000
vt 0.10000 0.87500
vt 0.10000 1.00000
vt 0.15000 0.00000
vt 0.15000 0.12500
vt 0.15000 0.25000
vt 0.15000 0.37500
vt 0.15000 0.50000
vt 0.15000 0.62500
vt 0.15000 0.75000
vt 0.15000 0.87500
vt 0.15000 1.00000
vt 0.20000 0.00000
vt 0.20000 0.12500
vt 0.20000 0.25000
vt 0.20000 0.37500
vt 0.20000 0.50000
vt 0.20000 0.62500
vt 0.20000 0.75000
vt 0.20000 0.87500
vt 0.20000 1.00000
vt 0.25000 0.00000
vt 0.25000 0.12500
vt 0.25000 0.25000
vt 0.25000 0.37500
vt 0.25000 0.50000
vt 0.25000 0.62500
vt 0.25000 0.75000
vt 0.25000 0.87500
vt 0.25000 1.00000
vt 0.30000 0.00000
vt 0.30000 0.12500
vt 0.30000 0.25000
vt 0.30000 0.37500
vt 0.30000 0.50000
vt 0.30000 0.62500
vt 0.30000 0.75000
vt 0.30000 0.87500
vt 0.30000 1.00000
vt 0.35000 0.00000
vt 0.35000 0.12500
vt 0.35000 0.25000
vt 0.35000 0.37500
vt 0.35000 0.50000
vt 0.35000 0.62500
vt 0.35000 0.75000
vt 0.35000 0.87500
vt 0.35000 1.00000
vt 0.40000 0.00000
vt 0.40000 0.12500
vt 0.40000 0.25000
vt 0.40000 0.37500
vt 0.40000 0.50000
vt 0.40000 0.62500
vt 0.40000 0.75000
vt 0.40000 0.87500
vt 0.40000 1.00000
vt 0.45000 0.00000
vt 0.45000 0.12500
vt 0.45000 0.25000
vt 0.45000 0.37500
vt 0.45000 0.50000
vt 0.45000 0.62500
vt 0.45000 0.75000
vt 0.45000 0.87500
vt 0.45000 1.00000
vt 0.50000 0.00000
vt 0.50000 0.12500
vt 0.50000 0.25000
vt 0.50000 0.37500
vt 0.50000 0.50000
vt 0.50000 0.62500
vt 0.50000 0.75000
vt 0.50000 0.87500
vt 0.50000 1.00000
vt 0.55000 0.00000
vt 0.55000 0.12500
vt 0.55000 0.25000
vt 0.55000 0.37500
vt 0.55000 0.50000
vt 0.55000 0.62500
vt 0.55000 0.75000
vt 0.55000 0.87500
vt 0.55000 1.00000
vt 0.60000 0.00000
vt 0.60000 0.12500
vt 0.60000 0.25000
vt 0.60000 0.37500
vt 0.60000 0.50000
vt 0.60000 0.62500
vt 0.60000 0.75000
vt 0.60000 0.87500
vt 0.60000 1.00000
vt 0.65000 0.00000
vt 0.65000 0.12500
vt 0.65000 0.25000
vt 0.65000 0.37500
vt 0.65000 0.50000
vt 0.65000 0.62500
vt 0.65000 0.75000
vt 0.65000 0.87500
vt 0.65000 1.00000
vt 0.70000 0.00000
vt 0.70000 0.12500
vt 0.70000 0.25000
vt 0.70000 0.37500
vt 0.70000 0.50000
vt 0.70000 0.62500
vt 0.70000 0.75000
vt 0.70000 0.87500
vt 0.70000 1.00000
vt 0.75000 0.00000
vt 0.75000 0.12500
vt 0.75000 0.25000
vt 0.75000 0.37500
vt 0.75000 0.50000
vt 0.75000 0.62500
vt 0.75000 0.75000
vt 0.75000 0.87500
vt 0.75000 1.00000
vt 0.80000 0.00000
vt 0.80000 0.12500
vt 0.80000 0.25000
vt 0.80000 0.37500
vt 0.80000 0.50000
vt 0.80000 0.62500
vt 0.80000 0.75000
vt 0.80000 0.87500
vt 0.80000 1.00000
vt 0.85000 0.00000
vt 0.85000 0.12500
vt 0.85000 0.25000
vt 0.85000 0.37500
vt 0.85000 0.50000
vt 0.85000 0.62500
vt 0.85000 0.75000
vt 0.85000 0.87500
vt 0.85000 1.00000
vt 0.90000 0.00000
vt 0.90000 0.12500
vt 0.90000 0.25000
vt 0.90000 0.37500
vt 0.90000 0.50000
vt 0.90000 0.62500
vt 0.90000 0.75000
vt 0.90000 0.87500
vt 0.90000 1.00000
vt 0.95000 0.00000
vt 0.95000 0.12500
vt 0.95000 0.25000
vt 0.95000 0.37500
vt 0.95000 0.50000
vt 0.95000 0.62500
vt 0.95000 0.75000
vt 0.95000 0.87500
vt 0.95000 1.00000
vt 1.00000 0.00000
vt 1.00000 0.12500
vt 1.00000 0.25000
vt 1.00000 0.37500
vt 1.00000 0.50000
vt 1.00000 0.62500
vt 1.00000 0.75000
vt 1.00000 0.87500
vt 1.00000 1.00000
vt 0.00000 0.00000
vt 0.00000 0.12500
vt 0.00000 0.25000
vt 0.00000 0.37500
vt 0.00000 0.50000
vt 0.00000 0.62500
vt 0.00000 0.75000
vt 0.00000 0.87500
vt 0.00000 1.00000
vt 0.05000 0.00000
vt 0.05000 0.12500
vt 0.05000 0.25000
vt 0.05000 0.37500
vt 0.05000 0.50000
vt 0.05000 0.62500
vt 0.05000 0.75000
vt 0.05000 0.87500
vt 0.05000 1.00000
vt 0.10000 0.00000
vt 0.10000 0.12500
vt 0.10000 0.25000
vt 0.10000 0.37500
vt 0.10000 0.50000
vt 0.10000 0.62500
vt 0.10000 0.75000
vt 0.10000 0.87500
vt 0.10000 1.00000
vt 0.15000 0.00000
vt 0.15000 0.12500
vt 0.15000 0.25000
vt 0.15000 0.37500
vt 0.15000 0.50000
vt 0.15000 0.62500
vt 0.15000 0.75000
vt 0.15000 0.87500
vt 0.15000 1.00000
vt 0.20000 0.00000
vt 0.20000 0.12500
vt 0.20000 0.25000
vt 0.20000 0.37500
vt 0.20000 0.50000
vt 0.20000 0.62500
vt 0.20000 0.75000
vt 0.20000 0.87500
vt 0.20000 1.00000
vt 0.25000 0.00000
vt 0.25000 0.12500
vt 0.25000 0.25000
vt 0.25000 0.37500
vt 0.25000 0.50000
vt 0.25000 0.62500
vt 0.25000 0.75000
vt 0.25000 0.87500
vt 0.25000 1.00000
vt 0.30000 0.00000
vt 0.30000 0.12500
vt 0.30000 0.25000
vt 0.30000 0.37500
vt 0.30000 0.50000
vt 0.30000 0.62500
vt 0.30000 0.75000
vt 0.30000 0.87500
vt 0.30000 1.00000
vt 0.35000 0.00000
vt 0.35000 0.12500
vt 0.35000 0.25000
vt 0.35000 0.37500
vt 0.35000 0.50000
vt 0.35000 0.62500
vt 0.35000 0.75000
vt 0.35000 0.87500
vt 0.35000 1.00000
vt 0.40000 0.00000
vt 0.40000 0.12500
vt 0.40000 0.25000
vt 0.40000 0.37500
vt 0.40000 0.50000
vt 0.40000 0.62500
vt 0.40000 0.75000
vt 0.40000 0.87500
vt 0.40000 1.00000
vt 0.45000 0.00000
vt 0.45000 0.12500
vt 0.45000 0.25000
vt 0.45000 0.37500
vt 0.45000 0.50000
vt 0.45000 0.62500
vt 0.45000 0.75000
vt 0.45000 0.87500
vt 0.45000 1.00000
vt 0.50000 0.00000
vt 0.50000 0.12500
vt 0.50000 0.25000
vt 0.50000 0.37500
vt 0.50000 0.50000
vt 0.50000 0.62500
vt 0.50000 0.75000
vt 0.50000 0.87500
vt 0.50000 1.00000
vt 0.55000 0.00000
vt 0.55000 0.12500
vt 0.55000 0.25000
vt 0.55000 0.37500
vt 0.55000 0.50000
vt 0.55000 0.62500
vt 0.55000 0.75000
vt 0.55000 0.87500
vt 0.55000 1.00000
vt 0.60000 0.00000
vt 0.60000 0.12500
vt 0.60000 0.25000
vt 0.60000 0.37500
vt 0.60000 0.50000
vt 0.60000 0.62500
vt 0.60000 0.75000
vt 0.60000 0.87500
vt 0.60000 1.00000
vt 0.65000 0.00000
vt 0.65000 0.12500
vt 0.65000 0.25000
vt 0.65000 0.37500
vt 0.65000 0.50000
vt 0.65000 0.62500
vt 0.65000 0.75000
vt 0.65000 0.87500
vt 0.65000 1.00000
vt 0.70000 0.00000
vt 0.70000 0.12500
vt 0.70000 0.25000
vt 0.70000 0.37500
vt 0.70000 0.50000
vt 0.70000 0.62500
vt 0.70000 0.75000
vt 0.70000 0.87500
vt 0.70000 1.00000
vt 0.75000 0.00000
vt 0.75000 0.12500
vt 0.75000 0.25000
vt 0.75000 0.37500
vt 0.75000 0.50000
vt 0.75000 0.62500
vt 0.75000 0.75000
vt 0.75000 0.87500
vt 0.75000 1.00000
vt 0.80000 0.00000
vt 0.80000 0.12500
vt 0.80000 0.25000
vt 0.80000 0.37500
vt 0.80000 0.50000
vt 0.80000 0.62500
vt 0.80000 0.75000
vt 0.80000 0.87500
vt 0.80000 1.00000
vt 0.85000 0.00000
vt 0.85000 0.12500
vt 0.85000 0.25000
vt 0.85000 0.37500
vt 0.85000 0.50000
vt 0.85000 0.62500
vt 0.85000 0.75000
vt 0.85000 0.87500
vt 0.85000 1.00000
vt 0.90000 0.00000
vt 0.90000 0.12500
vt 0.90000 0.25000
vt 0.90000 0.37500
vt 0.90000 0.50000
vt 0.90000 0.62500
vt 0.90000 0.75000
vt 0.90000 0.87500
vt 0.90000 1.00000
vt 0.95000 0.00000
vt 0.95000 0.12500
vt 0.95000 0.25000
vt 0.95000 0.37500
vt 0.95000 0.50000
vt 0.95000 0.62500
vt 0.95000 0.75000
vt 0.95000 0.87500
vt 0.95000 1.00000
vt 1.00000 0.00000
vt 1.00000 0.12500
vt 1.00000 0.25000
vt 1.00000 0.37500
vt 1.00000 0.50000
vt 1.00000 0.62500
vt 1.00000 0.75000
vt 1.00000 0.87500
vt 1.00000 1.00000
f 1/1 10/10 11/11 2/2
f 2/2 11/11 12/12 3/3
f 3/3 12/12 13/13 4/4
f 4/4 13/13 14/14 5/5
f 5/5 14/14 15/15 6/6
f 6/6 15/15 16/16 7/7
f 7/7 16/16 17/17 8/8
f 8/8 17/17 18/18 9/9
f 10/10 19/19 20/20 11/11
f 11/11 20/20 21/21 12/12
f 12/12 21/21 22/22 13/13
f 13/13 22/22 23/23 14/14
f 14/14 23/23 24/24 15/15
f 15/15 24/24 25/25 16/16
f 16/16 25/25 26/26 17/17
f 17/17 26/26 27/27 18/18
f 19/19 28/28 29/29 20/20
f 20/20 29/29 30/30 21/21
f 21/21 30/30 31/31 22/22
f 22/22 31/31 32/32 23/23
f 23/23 32/32 33/33 24/24
f 24/24 33/33 34/34 25/25
f 25/25 34/34 35/35 26/26
f 26/26 35/35 36/36 27/27
f 28/28 37/37 38/38 29/29
f 29/29 38/38 39/39 30/30
f 30/30 39/39 40/40 31/31
f 31/31 40/40 41/41 32/32
f 32/32 41/41 42/42 33/33
f 33/33 42/42 43/43 34/34
f 34/34 43/43 44/44 35/35
f 35/35 44/44 45/45 36/36
f 37/37 46/46 47/47 38/38
f 38/38 47/47 48/48 39/39
f 39/39 48/48 49/49 40/40
f 40/40 49/49 50/50 41/41
f 41/41 50/50 51/51 42/42
f 42/42 51/51 52/52 43/43
f 43/43 52/52 53/53 44/44
f 44/44 53/53 54/54 45/45
f 46/46 55/55 56/56 47/47
f 47/47 56/56 57/57 48/48
f 48/48 57/57 58/58 49/49
f 49/49 58/58 59/59 50/50
f 50/50 59/59 60/60 51/51
f 51/51 60/60 61/61 52/52
f 52/52 61/61 62/62 53/53
f 53/53 62/62 63/63 54/54
f 55/55 64/64 65/65 56/56
f 56/56 65/65 66/66 57/57
f 57/57 66/66 67/67 58/58
f 58/58 67/67 68/68 59/59
f 59/59 68/68 69/69 60/60
f 60/60 69/69 70/70 61/61
f 61/61 70/70 71/71 62/62
f 62/62 71/71 72/72 63/63
f 64/64 73/73 74/74 65/65
f 65/65 74/74 75/75 66/66
f 66/66 75/75 76/76 67/67
f 67/67 76/76 77/77 68/68
f 68/68 77/77 78/78 69/69
f 69/69 78/78 79/79 70/70
f 70/70 79/79 80/80 71/71
f 71/71 80/80 81/81 72/72
f 73/73 82/82 83/83 74/74
f 74/74 83/83 84/84 75/75
f 75/75 84/84 85/85 76/76
f 76/76 85/85 86/86 77/77
f 77/77 86/86 87/87 78/78
f 78/78 87/87 88/88 79/79
f 79/79 88/88 89/89 80/80
f 80/80 89/89 90/90 81/81
f 82/82 91/91 92/92 83/83
f 83/83 92/92 93/93 84/84
f 84/84 93/93 94/94 85/85
f 85/85 94/94 95/95 86/86
f 86/86 95/95 96/96 87/87
f 87/87 96/96 97/97 88/88
f 88/88 97/97 98/98 89/89
f 89/89 98/98 99/99 90/90
f 91/91 100/100 101/101 92/92
f 92/92 101/101 102/102 93/93
f 93/93 102/102 103/103 94/94
f 94/94 103/103 104/104 95/95
f 95/95 104/104 105/105 96/96
f 96/96 105/105 106/106 97/97
f 97/97 106/106 107/107 98/98
f 98/98 107/107 108/108 99/99
f 100/100 109/109 110/110 101/101
f 101/101 110/110 111/111 102/102
f 102/102 111/111 112/112 103/103
f 103/103 112/112 113/113 104/104
f 104/104 113/113 114/114 105/105
f 105/105 114/114 115/115 106/106
f 106/106 115/115 116/116 107/107
f 107/107 116/116 117/117 108/108
f 109/109 118/118 119/119 110/110
f 110/110 119/119 120/120 111/111
f 111/111 120/120 121/121 112/112
f 112/112 121/121 122/122 113/113
f 113/113 122/122 123/123 114/114
f 114/114 123/123 124/124 115/115
f 115/115 124/124 125/125 116/116
f 116/116 125/125 126/126 117/117
f 118/118 127/127 128/128 119/119
f 119/119 128/128 129/129 120/120
f 120/120 129/129 130/130 121/121
f 121/121 130/130 131/131 122/122
f 122/122 131/131 132/132 123/123
f 123/123 132/132 133/133 124/124
f 124/124 133/133 134/134 125/125
f 125/125 134/134 135/135 126/126
f 127/127 136/136 137/137 128/128
f 128/128 137/137 138/138 129/129
f 129/129 138/138 139/139 130/130
f 130/130 139/139 140/140 131/131
f 131/131 140/140 141/141 132/132
f 132/132 141/141 142/142 133/133
f 133/133 142/142 143/143 134/134
f 134/134 143/143 144/144 135/135
f 136/136 145/145 146/146 137/137
f 137/137 146/146 147/147 138/138
f 138/138 147/147 148/148 139/139
f 139/139 148/148 149/149 140/140
f 140/140 149/149 150/150 141/141
f 141/141 150/150 151/151 142/142
f 142/142 151/151 152/152 143/143
f 143/143 152/152 153/153 144/144
f 145/145 154/154 155/155 146/146
f 146/146 155/155 156/156 147/147
f 147/147 156/156 157/157 148/148
f 148/148 157/157 158/158 149/149
f 149/149 158/158 159/159 150/150
f 150/150 159/159 160/160 151/151
f 151/151 160/160 161/161 152/152
f 152/152 161/161 162/162 153/153
f 154/154 163/163 164/164 155/155
f 155/155 164/164 165/165 156/156
f 156/156 165/165 166/166 157/157
f 157/157 166/166 167/167 158/158
f 158/158 167/167 168/168 159/159
f 159/159 168/168 169/169 160/160
f 160/160 169/169 170/170 161/161
f 161/161 170/170 171/171 162/162
f 163/163 172/172 173/173 164/164
f 164/164 173/173 174/174 165/165
f 165/165 174/174 175/175 166/166
f 166/166 175/175 176/176 167/167
f 167/167 176/176 177/177 168/168
f 168/168 177/177 178/178 169/169
f 169/169 178/178 179/179 170/170
f 170/170 179/179 180/180 171/171
f 172/172 181/181 182/182 173/173
f 173/173 182/182 183/183 174/174
f 174/174 183/183 184/184 175/175
f 175/175 184/184 185/185 176/176
f 176/176 185/185 186/186 177/177
f 177/177 186/186 187/187 178/178
f 178/178 187/187 188/188 179/179
f 179/179 188/188 189/189 180/180
f 190/190 199/199 200/200 191/191
f 191/191 200/200 201/201 192/192
f 192/192 201/201 202/202 193/193
f 193/193 202/202 203/203 194/194
f 194/194 203/203 204/204 195/195
f 195/195 204/204 205/205 196/196
f 196/196 205/205 206/206 197/197
f 197/197 206/206 207/207 198/198
f 199/199 208/208 209/209 200/200
f 200/200 209/209 210/210 201/201
f 201/201 210/210 211/211 202/202
f 202/202 211/211 212/212 203/203
f 203/203 212/212 213/213 204/204
f 204/204 213/213 214/214 205/205
f 205/205 214/214 215/215 206/206
f 206/206 215/215 216/216 207/207
f 208/208 217/217 218/218 209/209
f 209/209 218/218 219/219 210/210
f 210/210 219/219 220/220 211/211
f 211/211 220/220 221/221 212/212
f 212/212 221/221 222/222 213/213
f 213/213 222/222 223/223 214/214
f 214/214 223/223 224/224 215/215
f 215/215 224/224 225/225 216/216
f 217/217 226/226 227/227 218/218
f 218/218 227/227 228/228 219/219
f 219/219 228/228 229/229 220/220
f 220/220 229/229 230/230 221/221
f 221/221 230/230 231/231 222/222
f 222/222 231/231 232/232 223/223
f 223/223 232/232 233/233 224/224
f 224/224 233/233 234/234 225/225
f 226/226 235/235 236/236 227/227
f 227/227 236/236 237/237 228/228
f 228/228 237/237 238/238 229/229
f 229/229 238/238 239/239 230/230
f 230/230 239/239 240/240 231/231
f 231/231 240/240 241/241 232/232
f 232/232 241/241 242/242 233/233
f 233/233 242/242 243/243 234/234
f 235/235 244/244 245/245 236/236
f 236/236 245/245 246/246 237/237
f 237/237 246/246 247/247 238/238
f 238/238 247/247 248/248 239/239
f 239/239 248/248 249/249 240/240
f 240/240 249/249 250/250 241/241
f 241/241 250/250 251/251 242/242
f 242/242 251/251 252/252 243/243
f 244/244 253/253 254/254 245/245
f 245/245 254/254 255/255 246/246
f 246/246 255/255 256/256 247/247
f 247/247 256/256 257/257 248/248
f 248/248 257/257 258/258 249/249
f 249/249 258/258 259/259 250/250
f 250/250 259/259 260/260 251/251
f 251/251 260/260 261/261 252/252
f 253/253 262/262 263/263 254/254
f 254/254 263/263 264/264 255/255
f 255/255 264/264 265/265 256/256
f 256/256 265/265 266/266 257/257
f 257/257 266/266 267/267 258/258
f 258/258 267/267 268/268 259/259
f 259/259 268/268 269/269 260/260
f 260/260 269/269 270/270 261/261
f 262/262 271/271 272/272 263/263
f 263/263 272/272 273/273 264/264
f 264/264 273/273 274/274 265/265
f 265/265 274/274 275/275 266/266
f 266/266 275/275 276/276 267/267
f 267/267 276/276 277/277 268/268
f 268/268 277/277 278/278 269/269
f 269/269 278/278 279/279 270/270
f 271/271 280/280 281/281 272/272
f 272/272 281/281 282/282 273/273
f 273/273 282/282 283/283 274/274
f 274/274 283/283 284/284 275/275
f 275/275 284/284 285/285 276/276
f 276/276 285/285 286/286 277/277
f 277/277 286/286 287/287 278/278
f 278/278 287/287 288/288 279/279
f 280/280 289/289 290/290 281/281
f 281/281 290/290 291/291 282/282
f 282/282 291/291 292/292 283/283
f 283/283 292/292 293/293 284/284
f 284/284 293/293 294/294 285/285
f 285/285 294/294 295/295 286/286
f 286/286 295/295 296/296 287/287
f 287/287 296/296 297/297 288/288
f 289/289 298/298 299/299 290/290
f 290/290 299/299 300/300 291/291
f 291/291 300/300 301/301 292/292
f 292/292 301/301 302/302 293/293
f 293/293 302/302 303/303 294/294
f 294/294 303/303 304/304 295/295
f 295/295 304/304 305/305 296/296
f 296/296 305/305 306/306 297/297
f 298/298 307/307 308/308 299/299
f 299/299 308/308 309/309 300/300
f 300/300 309/309 310/310 301/301
f 301/301 310/310 311/311 302/302
f 302/302 311/311 312/312 303/303
f 303/303 312/312 313/313 304/304
f 304/304 313/313 314/314 305/305
f 305/305 314/314 315/315 306/306
f 307/307 316/316 317/317 308/308
f 308/308 317/317 318/318 309/309
f 309/309 318/318 319/319 310/310
f 310/310 319/319 320/320 311/311
f 311/311 320/320 321/321 312/312
f 312/312 321/321 322/322 313/313
f 313/313 322/322 323/323 314/314
f 314/314 323/323 324/324 315/315
f 316/316 325/325 326/326 317/317
f 317/317 326/326 327/327 318/318
f 318/318 327/327 328/328 319/319
f 319/319 328/328 329/329 320/320
f 320/320 329/329 330/330 321/321
f 321/321 330/330 331/331 322/322
f 322/322 331/331 332/332 323/323
f 323/323 332/332 333/333 324/324
f 325/325 334/334 335/335 326/326
f 326/326 335/335 336/336 327/327
f 327/327 336/336 337/337 328/328
f 328/328 337/337 338/338 329/329
f 329/329 338/338 339/339 330/330
f 330/330 339/339 340/340 331/331
f 331/331 340/340 341/341 332/332
f 332/332 341/341 342/342 333/333
f 334/334 343/343 344/344 335/335
f 335/335 344/344 345/345 336/336
f 336/336 345/345 346/346 337/337
f 337/337 346/346 347/347 338/338
f 338/338 347/347 348/348 339/339
f 339/339 348/348 349/349 340/340
f 340/340 349/349 350/350 341/341
f 341/341 350/350 351/351 342/342
f 343/343 352/352 353/353 344/344
f 344/344 353/353 354/354 345/345
f 345/345 354/354 355/355 346/346
f 346/346 355/355 356/356 347/347
f 347/347 356/356 357/357 348/348
f 348/348 357/357 358/358 349/349
f 349/349 358/358 359/359 350/350
f 350/350 359/359 360/360 351/351
f 352/352 361/361 362/362 353/353
f 353/353 362/362 363/363 354/354
f 354/354 363/363 364/364 355/355
f 355/355 364/364 365/365 356/356
f 356/356 365/365 366/366 357/357
f 357/357 366/366 367/367 358/358
f 358/358 367/367 368/368 359/359
f 359/359 368/368 369/369 360/360
f 361/361 370/370 371/371 362/362
f 362/362 371/371 372/372 363/363
f 363/363 372/372 373/373 364/364
f 364/364 373/373 374/374 365/365
f 365/365 374/374 375/375 366/366
f 366/366 375/375 376/376 367/367
f 367/367 376/376 377/377 368/368
f 368/368 377/377 378/378 369/369
f 379/379 388/388 389/389 380/380
f 380/380 389/389 390/390 381/381
f 381/381 390/390 391/391 382/382
f 382/382 391/391 392/392 383/383
f 383/383 392/392 393/393 384/384
f 384/384 393/393 394/394 385/385
f 385/385 394/394 395/395 386/386
f 386/386 395/395 396/396 387/387
f 388/388 397/397 398/398 389/389
f 389/389 398/398 399/399 390/390
f 390/390 399/399 400/400 391/391
f 391/391 400/400 401/401 392/392
f 392/392 401/401 402/402 393/393
f 393/393 402/402 403/403 394/394
f 394/394 403/403 404/404 395/395
f 395/395 404/404 405/405 396/396
f 397/397 406/406 407/407 398/398
f 398/398 407/407 408/408 399/399
f 399/399 408/408 409/409 400/400
f 400/400 409/409 410/410 401/401
f 401/401 410/410 411/411 402/402
f 402/402 411/411 412/412 403/403
f 403/403 412/412 413/413 404/404
f 404/404 413/413 414/414 405/405
f 406/406 415/415 416/416 407/407
f 407/407 416/416 417/417 408/408
f 408/408 417/417 418/418 409/409
f 409/409 418/418 419/419 410/410
f 410/410 419/419 420/420 411/411
f 411/411 420/420 421/421 412/412
f 412/412 421/421 422/422 413/413
f 413/413 422/422 423/423 414/414
f 415/415 424/424 425/425 416/416
f 416/416 425/425 426/426 417/417
f 417/417 426/426 427/427 418/418
f 418/418 427/427 428/428 419/419
f 419/419 428/428 429/429 420/420
f 420/420 429/429 430/430 421/421
f 421/421 430/430 431/431 422/422
f 422/422 431/431 432/432 423/423
f 424/424 433/433 434/434 425/425
f 425/425 434/434 435/435 426/426
f 426/426 435/435 436/436 427/427
f 427/427 436/436 437/437 428/428
f 428/428 437/437 438/438 429/429
f 429/429 438/438 439/439 430/430
f 430/430 439/439 440/440 431/431
f 431/431 440/440 441/441 432/432
f 433/433 442/442 443/443 434/434
f 434/434 443/443 444/444 435/435
f 435/435 444/444 445/445 436/436
f 436/436 445/445 446/446 437/437
f 437/437 446/446 447/447 438/438
f 438/438 447/447 448/448 439/439
f 439/439 448/448 449/449 440/440
f 440/440 449/449 450/450 441/441
f 442/442 451/451 452/452 443/443
f 443/443 452/452 453/453 444/444
f 444/444 453/453 454/454 445/445
f 445/445 454/454 455/455 446/446
f 446/446 455/455 456/456 447/447
f 447/447 456/456 457/457 448/448
f 448/448 457/457 458/458 449/449
f 449/449 458/458 459/459 450/450
f 451/451 460/460 461/461 452/452
f 452/452 461/461 462/462 453/453
f 453/453 462/462 463/463 454/454
f 454/454 463/463 464/464 455/455
f 455/455 464/464 465/465 456/456
f 456/456 465/465 466/466 457/457
f 457/457 466/466 467/467 458/458
f 458/458 467/467 468/468 459/459
f 460/460 469/469 470/470 461/461
f 461/461 470/470 471/471 462/462
f 462/462 471/471 472/472 463/463
f 463/463 472/472 473/473 464/464
f 464/464 473/473 474/474 465/465
f 465/465 474/474 475/475 466/466
f 466/466 475/475 476/476 467/467
f 467/467 476/476 477/477 468/468
f 469/469 478/478 479/479 470/470
f 470/470 479/479 480/480 471/471
f 471/471 480/480 481/481 472/472
f 472/472 481/481 482/482 473/473
f 473/473 482/482 483/483 474/474
f 474/474 483/483 484/484 475/475
f 475/475 484/484 485/485 476/476
f 476/476 485/485 486/486 477/477
f 478/478 487/487 488/488 479/479
f 479/479 488/488 489/489 480/480
f 480/480 489/489 490/490 481/481
f 481/481 490/490 491/491 482/482
f 482/482 491/491 492/492 483/483
f 483/483 492/492 493/493 484/484
f 484/484 493/493 494/494 485/485
f 485/485 494/494 495/495 486/486
f 487/487 496/496 497/497 488/488
f 488/488 497/497 498/498 489/489
f 489/489 498/498 499/499 490/490
f 490/490 499/499 500/500 491/491
f 491/491 500/500 501/501 492/492
f 492/492 501/501 502/502 493/493
f 493/493 502/502 503/503 494/494
f 494/494 503/503 504/504 495/495
f 496/496 505/505 506/506 497/497
f 497/497 506/506 507/507 498/498
f 498/498 507/507 508/508 499/499
f 499/499 508/508 509/509 500/500
f 500/500 509/509 510/510 501/501
f 501/501 510/510 511/511 502/502
f 502/502 511/511 512/512 503/503
f 503/503 512/512 513/513 504/504
f 505/505 514/514 515/515 506/506
f 506/506 515/515 516/516 507/507
f 507/507 516/516 517/517 508/508
f 508/508 517/517 518/518 509/509
f 509/509 518/518 519/519 510/510
f 510/510 519/519 520/520 511/511
f 511/511 520/520 521/521 512/512
f 512/512 521/521 522/522 513/513
f 514/514 523/523 524/524 515/515
f 515/515 524/524 525/525 516/516
f 516/516 525/525 526/526 517/517
f 517/517 526/526 527/527 518/518
f 518/518 527/527 528/528 519/519
f 519/519 528/528 529/529 520/520
f 520/520 529/529 530/530 521/521
f 521/521 530/530 531/531 522/522
f 523/523 532/532 533/533 524/524
f 524/524 533/533 534/534 525/525
f 525/525 534/534 535/535 526/526
f 526/526 535/535 536/536 527/527
f 527/527 536/536 537/537 528/528
f 528/528 537/537 538/538 529/529
f 529/529 538/538 539/539 530/530
f 530/530 539/539 540/540 531/531
f 532/532 541/541 542/542 533/533
f 533/533 542/542 543/543 534/534
f 534/534 543/543 544/544 535/535
f 535/535 544/544 545/545 536/536
f 536/536 545/545 546/546 537/537
f 537/537 546/546 547/547 538/538
f 538/538 547/547 548/548 539/539
f 539/539 548/548 549/549 540/540
f 541/541 550/550 551/551 542/542
f 542/542 551/551 552/552 543/543
f 543/543 552/552 553/553 544/544
f 544/544 553/553 554/554 545/545
f 545/545 554/554 555/555 546/546
f 546/546 555/555 556/556 547/547
f 547/547 556/556 557/557 548/548
f 548/548 557/557 558/558 549/549
f 550/550 559/559 560/560 551/551
f 551/551 560/560 561/561 552/552
f 552/552 561/561 562/562 553/553
f 553/553 562/562 563/563 554/554
f 554/554 563/563 564/564 555/555
f 555/555 564/564 565/565 556/556
f 556/556 565/565 566/566 557/557
f 557/557 566/566 567/567 558/558
f 568/568 577/577 578/578 569/569
f 569/569 578/578 579/579 570/570
f 570/570 579/579 580/580 571/571
f 571/571 580/580 581/581 572/572
f 572/572 581/581 582/582 573/573
f 573/573 582/582 583/583 574/574
f 574/574 583/583 584/584 575/575
f 575/575 584/584 585/585 576/576
f 577/577 586/586 587/587 578/578
f 578/578 587/587 588/588 579/579
f 579/579 588/588 589/589 580/580
f 580/580 589/589 590/590 581/581
f 581/581 590/590 591/591 582/582
f 582/582 591/591 592/592 583/583
f 583/583 592/592 593/593 584/584
f 584/584 593/593 594/594 585/585
f 586/586 595/595 596/596 587/587
f 587/587 596/596 597/597 588/588
f 588/588 597/597 598/598 589/589
f 589/589 598/598 599/599 590/590
f 590/590 599/599 600/600 591/591
f 591/591 600/600 601/601 592/592
f 592/592 601/601 602/602 593/593
f 593/593 602/602 603/603 594/594
f 595/595 604/604 605/605 596/596
f 596/596 605/605 606/606 597/597
f 597/597 606/606 607/607 598/598
f 598/598 607/607 608/608 599/599
f 599/599 608/608 609/609 600/600
f 600/600 609/609 610/610 601/601
f 601/601 610/610 611/611 602/602
f 602/602 611/611 612/612 603/603
f 604/604 613/613 614/614 605/605
f 605/605 614/614 615/615 606/606
f 606/606 615/615 616/616 607/607
f 607/607 616/616 617/617 608/608
f 608/608 617/617 618/618 609/609
f 609/609 618/618 619/619 610/610
f 610/610 619/619 620/620 611/611
f 611/611 620/620 621/621 612/612
f 613/613 622/622 623/623 614/614
f 614/614 623/623 624/624 615/615
f 615/615 624/624 625/625 616/616
f 616/616 625/625 626/626 617/617
f 617/617 626/626 627/627 618/618
f 618/618 627/627 628/628 619/619
f 619/619 628/628 629/629 620/620
f 620/620 629/629 630/630 621/621
f 622/622 631/631 632/632 623/623
f 623/623 632/632 633/633 624/624
f 624/624 633/633 634/634 625/625
f 625/625 634/634 635/635 626/626
f 626/626 635/635 636/636 627/627
f 627/627 636/636 637/637 628/628
f 628/628 637/637 638/638 629/629
f 629/629 638/638 639/639 630/630
f 631/631 640/640 641/641 632/632
f 632/632 641/641 642/642 633/633
f 633/633 642/642 643/643 634/634
f 634/634 643/643 644/644 635/635
f 635/635 644/644 645/645 636/636
f 636/636 645/645 646/646 637/637
f 637/637 646/646 647/647 638/638
f 638/638 647/647 648/648 639/639
f 640/640 649/649 650/650 641/641
f 641/641 650/650 651/651 642/642
f 642/642 651/651 652/652 643/643
f 643/643 652/652 653/653 644/644
f 644/644 653/653 654/654 645/645
f 645/645 654/654 655/655 646/646
f 646/646 655/655 656/656 647/647
f 647/647 656/656 657/657 648/648
f 649/649 658/658 659/659 650/650
f 650/650 659/659 660/660 651/651
f 651/651 660/660 661/661 652/652
f 652/652 661/661 662/662 653/653
f 653/653 662/662 663/663 654/654
f 654/654 663/663 664/664 655/655
f 655/655 664/664 665/665 656/656
f 656/656 665/665 666/666 657/657
f 658/658 667/667 668/668 659/659
f 659/659 668/668 669/669 660/660
f 660/660 669/669 670/670 661/661
f 661/661 670/670 671/671 662/662
f 662/662 671/671 672/672 663/663
f 663/663 672/672 673/673 664/664
f 664/664 673/673 674/674 665/665
f 665/665 674/674 675/675 666/666
f 667/667 676/676 677/677 668/668
f 668/668 677/677 678/678 669/669
f 669/669 678/678 679/679 670/670
f 670/670 679/679 680/680 671/671
f 671/671 680/680 681/681 672/672
f 672/672 681/681 682/682 673/673
f 673/673 682/682 683/683 674/674
f 674/674 683/683 684/684 675/675
f 676/676 685/685 686/686 677/677
f 677/677 686/686 687/687 678/678
f 678/678 687/687 688/688 679/679
f 679/679 688/688 689/689 680/680
f 680/680 689/689 690/690 681/681
f 681/681 690/690 691/691 682/682
f 682/682 691/691 692/692 683/683
f 683/683 692/692 693/693 684/684
f 685/685 694/694 695/695 686/686
f 686/686 695/695 696/696 687/687
f 687/687 696/696 697/697 688/688
f 688/688 697/697 698/698 689/689
f 689/689 698/698 699/699 690/690
f 690/690 699/699 700/700 691/691
f 691/691 700/700 701/701 692/692
f 692/692 701/701 702/702 693/693
f 694/694 703/703 704/704 695/695
f 695/695 704/704 705/705 696/696
f 696/696 705/705 706/706 697/697
f 697/697 706/706 707/707 698/698
f 698/698 707/707 708/708 699/699
f 699/699 708/708 709/709 700/700
f 700/700 709/709 710/710 701/701
f 701/701 710/710 711/711 702/702
f 703/703 712/712 713/713 704/704
f 704/704 713/713 714/714 705/705
f 705/705 714/714 715/715 706/706
f 706/706 715/715 716/716 707/707
f 707/707 716/716 717/717 708/708
f 708/708 717/717 718/718 709/709
f 709/709 718/718 719/719 710/710
f 710/710 719/719 720/720 711/711
f 712/712 721/721 722/722 713/713
f 713/713 722/722 723/723 714/714
f 714/714 723/723 724/724 715/715
f 715/715 724/724 725/725 716/716
f 716/716 725/725 726/726 717/717
f 717/717 726/726 727/727 718/718
f 718/718 727/727 728/728 719/719
f 719/719 728/728 729/729 720/720
f 721/721 730/730 731/731 722/722
f 722/722 731/731 732/732 723/723
f 723/723 732/732 733/733 724/724
f 724/724 733/733 734/734 725/725
f 725/725 734/734 735/735 726/726
f 726/726 735/735 736/736 727/727
f 727/727 736/736 737/737 728/728
f 728/728 737/737 738/738 729/729
f 730/730 739/739 740/740 731/731
f 731/731 740/740 741/741 732/732
f 732/732 741/741 742/742 733/733
f 733/733 742/742 743/743 734/734
f 734/734 743/743 744/744 735/735
f 735/735 744/744 745/745 736/736
f 736/736 745/745 746/746 737/737
f 737/737 746/746 747/747 738/738
f 739/739 748/748 749/749 740/740
f 740/740 749/749 750/750 741/741
f 741/741 750/750 751/751 742/742
f 742/742 751/751 752/752 743/743
f 743/743 752/752 753/753 744/744
f 744/744 753/753 754/754 745/745
f 745/745 754/754 755/755 746/746
f 746/746 755/755 756/756 747/747
f 757/757 766/766 767/767 758/758
f 758/758 767/767 768/768 759/759
f 759/759 768/768 769/769 760/760
f 760/760 769/769 770/770 761/761
f 761/761 770/770 771/771 762/762
f 762/762 771/771 772/772 763/763
f 763/763 772/772 773/773 764/764
f 764/764 773/773 774/774 765/765
f 766/766 775/775 776/776 767/767
f 767/767 776/776 777/777 768/768
f 768/768 777/777 778/778 769/769
f 769/769 778/778 779/779 770/770
f 770/770 779/779 780/780 771/771
f 771/771 780/780 781/781 772/772
f 772/772 781/781 782/782 773/773
f 773/773 782/782 783/783 774/774
f 775/775 784/784 785/785 776/776
f 776/776 785/785 786/786 777/777
f 777/777 786/786 787/787 778/778
f 778/778 787/787 788/788 779/779
f 779/779 788/788 789/789 780/780
f 780/780 789/789 790/790 781/781
f 781/781 790/790 791/791 782/782
f 782/782 791/791 792/792 783/783
f 784/784 793/793 794/794 785/785
f 785/785 794/794 795/795 786/786
f 786/786 795/795 796/796 787/787
f 787/787 796/796 797/797 788/788
f 788/788 797/797 798/798 789/789
f 789/789 798/798 799/799 790/790
f 790/790 799/799 800/800 791/791
f 791/791 800/800 801/801 792/792
f 793/793 802/802 803/803 794/794
f 794/794 803/803 804/804 795/795
f 795/795 804/804 805/805 796/796
f 796/796 805/805 806/806 797/797
f 797/797 806/806 807/807 798/798
f 798/798 807/807 808/808 799/799
f 799/799 808/808 809/809 800/800
f 800/800 809/809 810/810 801/801
f 802/802 811/811 812/812 803/803
f 803/803 812/812 813/813 804/804
f 804/804 813/813 814/814 805/805
f 805/805 814/814 815/815 806/806
f 806/806 815/815 816/816 807/807
f 807/807 816/816 817/817 808/808
f 808/808 817/817 818/818 809/809
f 809/809 818/818 819/819 810/810
f 811/811 820/820 821/821 812/812
f 812/812 821/821 822/822 813/813
f 813/813 822/822 823/823 814/814
f 814/814 823/823 824/824 815/815
f 815/815 824/824 825/825 816/816
f 816/816 825/825 826/826 817/817
f 817/817 826/826 827/827 818/818
f 818/818 827/827 828/828 819/819
f 820/820 829/829 830/830 821/821
f 821/821 830/830 831/831 822/822
f 822/822 831/831 832/832 823/823
f 823/823 832/832 833/833 824/824
f 824/824 833/833 834/834 825/825
f 825/825 834/834 835/835 826/826
f 826/826 835/835 836/836 827/827
f 827/827 836/836 837/837 828/828
f 829/829 838/838 839/839 830/830
f 830/830 839/839 840/840 831/831
f 831/831 840/840 841/841 832/832
f 832/832 841/841 842/842 833/833
f 833/833 842/842 843/843 834/834
f 834/834 843/843 844/844 835/835
f 835/835 844/844 845/845 836/836
f 836/836 845/845 846/846 837/837
f 838/838 847/847 848/848 839/839
f 839/839 848/848 849/849 840/840
f 840/840 849/849 850/850 841/841
f 841/841 850/850 851/851 842/842
f 842/842 851/851 852/852 843/843
f 843/843 852/852 853/853 844/844
f 844/844 853/853 854/854 845/845
f 845/845 854/854 855/855 846/846
f 847/847 856/856 857/857 848/848
f 848/848 857/857 858/858 849/849
f 849/849 858/858 859/859 850/850
f 850/850 859/859 860/860 851/851
f 851/851 860/860 861/861 852/852
f 852/852 861/861 862/862 853/853
f 853/853 862/862 863/863 854/854
f 854/854 863/863 864/864 855/855
f 856/856 865/865 866/866 857/857
f 857/857 866/866 867/867 858/858
f 858/858 867/867 868/868 859/859
f 859/859 868/868 869/869 860/860
f 860/860 869/869 870/870 861/861
f 861/861 870/870 871/871 862/862
f 862/862 871/871 872/872 863/863
f 863/863 872/872 873/873 864/864
f 865/865 874/874 875/875 866/866
f 866/866 875/875 876/876 867/867
f 867/867 876/876 877/877 868/868
f 868/868 877/877 878/878 869/869
f 869/869 878/878 879/879 870/870
f 870/870 879/879 880/880 871/871
f 871/871 880/880 881/881 872/872
f 872/872 881/881 882/882 873/873
f 874/874 883/883 884/884 875/875
f 875/875 884/884 885/885 876/876
f 876/876 885/885 886/886 877/877
f 877/877 886/886 887/887 878/878
f 878/878 887/887 888/888 879/879
f 879/879 888/888 889/889 880/880
f 880/880 889/889 890/890 881/881
f 881/881 890/890 891/891 882/882
f 883/883 892/892 893/893 884/884
f 884/884 893/893 894/894 885/885
f 885/885 894/894 895/895 886/886
f 886/886 895/895 896/896 887/887
f 887/887 896/896 897/897 888/888
f 888/888 897/897 898/898 889/889
f 889/889 898/898 899/899 890/890
f 890/890 899/899 900/900 891/891
f 892/892 901/901 902/902 893/893
f 893/893 902/902 903/903 894/894
f 894/894 903/903 904/904 895/895
f 895/895 904/904 905/905 896/896
f 896/896 905/905 906/906 897/897
f 897/897 906/906 907/907 898/898
f 898/898 907/907 908/908 899/899
f 899/899 908/908 909/909 900/900
f 901/901 910/910 911/911 902/902
f 902/902 911/911 912/912 903/903
f 903/903 912/912 913/913 904/904
f 904/904 913/913 914/914 905/905
f 905/905 914/914 915/915 906/906
f 906/906 915/915 916/916 907/907
f 907/907 916/916 917/917 908/908
f 908/908 917/917 918/918 909/909
f 910/910 919/919 920/920 911/911
f 911/911 920/920 921/921 912/912
f 912/912 921/921 922/922 913/913
f 913/913 922/922 923/923 914/914
f 914/914 923/923 924/924 915/915
f 915/915 924/924 925/925 916/916
f 916/916 925/925 926/926 917/917
f 917/917 926/926 927/927 918/918
f 919/919 928/928 929/929 920/920
f 920/920 929/929 930/930 921/921
f 921/921 930/930 931/931 922/922
f 922/922 931/931 932/932 923/923
f 923/923 932/932 933/933 924/924
f 924/924 933/933 934/934 925/925
f 925/925 934/934 935/935 926/926
f 926/926 935/935 936/936 927/927
f 928/928 937/937 938/938 929/929
f 929/929 938/938 939/939 930/930
f 930/930 939/939 940/940 931/931
f 931/931 940/940 941/941 932/932
f 932/932 941/941 942/942 933/933
f 933/933 942/942 943/943 934/934
f 934/934 943/943 944/944 935/935
f 935/935 944/944 945/945 936/936
