# staff_talismans - original Tiangang Star staff recreation
o staff_talismans
v 1.35000 1.25000 32.30000
v 1.35000 -1.25000 32.30000
v 1.35000 -1.25000 27.70000
v 1.35000 1.25000 27.70000
v -1.83981 -0.00987 36.30000
v -0.15115 1.83362 36.30000
v -0.15115 1.83362 31.70000
v -1.83981 -0.00987 31.70000
v 0.24683 -1.82320 29.30000
v -1.79886 -0.38614 29.30000
v -1.79886 -0.38614 24.70000
v 0.24683 -1.82320 24.70000
v -0.67587 1.71120 34.30000
v 1.65423 0.80531 34.30000
v 1.65423 0.80531 29.70000
v -0.67587 1.71120 29.70000
v 1.58160 -0.93997 31.30000
v -0.81571 -1.64913 31.30000
v -0.81571 -1.64913 26.70000
v 1.58160 -0.93997 26.70000
v 0.10184 1.89793 40.00000
v 1.82516 0.53039 40.00000
v 2.69541 1.62704 34.00000
v 0.97209 2.99459 34.00000
v -0.36865 -1.86456 40.00000
v -1.88174 -0.26751 40.00000
v -2.89804 -1.23038 34.00000
v -1.38496 -2.82744 34.00000
vt 0.00000 1.00000
vt 1.00000 1.00000
vt 1.00000 0.00000
vt 0.00000 0.00000
vt 0.00000 1.00000
vt 1.00000 1.00000
vt 1.00000 0.00000
vt 0.00000 0.00000
vt 0.00000 1.00000
vt 1.00000 1.00000
vt 1.00000 0.00000
vt 0.00000 0.00000
vt 0.00000 1.00000
vt 1.00000 1.00000
vt 1.00000 0.00000
vt 0.00000 0.00000
vt 0.00000 1.00000
vt 1.00000 1.00000
vt 1.00000 0.00000
vt 0.00000 0.00000
vt 0.00000 1.00000
vt 1.00000 1.00000
vt 1.00000 0.00000
vt 0.00000 0.00000
vt 0.00000 1.00000
vt 1.00000 1.00000
vt 1.00000 0.00000
vt 0.00000 0.00000
f 1/1 2/2 3/3 4/4
f 4/4 3/3 2/2 1/1
f 5/5 6/6 7/7 8/8
f 8/8 7/7 6/6 5/5
f 9/9 10/10 11/11 12/12
f 12/12 11/11 10/10 9/9
f 13/13 14/14 15/15 16/16
f 16/16 15/15 14/14 13/13
f 17/17 18/18 19/19 20/20
f 20/20 19/19 18/18 17/17
f 21/21 22/22 23/23 24/24
f 24/24 23/23 22/22 21/21
f 25/25 26/26 27/27 28/28
f 28/28 27/27 26/26 25/25
