# staff_wrap - original Tiangang Star staff recreation
o staff_wrap
v 1.47977 0.00000 2.75000
v 1.47977 0.00000 0.25000
v 1.41288 0.43783 2.83913
v 1.41288 0.43783 0.33913
v 1.21947 0.83608 2.92826
v 1.21947 0.83608 0.42826
v 0.91697 1.15909 3.01739
v 0.91697 1.15909 0.51739
v 0.53257 1.37801 3.10652
v 0.53257 1.37801 0.60652
v 0.10078 1.47329 3.19565
v 0.10078 1.47329 0.69565
v -0.33969 1.43651 3.28478
v -0.33969 1.43651 0.78478
v -0.74936 1.27107 3.37391
v -0.74936 1.27107 0.87391
v -1.09157 0.99189 3.46304
v -1.09157 0.99189 0.96304
v -1.33570 0.62408 3.55217
v -1.33570 0.62408 1.05217
v -1.45997 0.20067 3.64130
v -1.45997 0.20067 1.14130
v -1.45334 -0.24037 3.73043
v -1.45334 -0.24037 1.23043
v -1.31652 -0.65952 3.81957
v -1.31652 -0.65952 1.31957
v -1.06188 -1.01923 3.90870
v -1.06188 -1.01923 1.40870
v -0.71231 -1.28734 3.99783
v -0.71231 -1.28734 1.49783
v -0.29921 -1.43990 4.08696
v -0.29921 -1.43990 1.58696
v 0.14034 -1.46333 4.17609
v 0.14034 -1.46333 1.67609
v 0.56696 -1.35566 4.26522
v 0.56696 -1.35566 1.76522
v 0.94244 -1.12662 4.35435
v 0.94244 -1.12662 1.85435
v 1.23318 -0.79685 4.44348
v 1.23318 -0.79685 1.94348
v 1.41320 -0.39596 4.53261
v 1.41320 -0.39596 2.03261
v 1.46646 0.04007 4.62174
v 1.46646 0.04007 2.12174
v 1.38831 0.47215 4.71087
v 1.38831 0.47215 2.21087
v 1.18585 0.86157 4.80000
v 1.18585 0.86157 2.30000
v 0.87733 1.17349 4.88913
v 0.87733 1.17349 2.38913
v 0.49046 1.38002 4.97826
v 0.49046 1.38002 2.47826
v 0.05997 1.46274 5.06739
v 0.05997 1.46274 2.56739
v -0.37553 1.41436 5.15652
v -0.37553 1.41436 2.65652
v -0.77702 1.23931 5.24565
v -0.77702 1.23931 2.74565
v -1.10858 0.95338 5.33478
v -1.10858 0.95338 2.83478
v -1.34054 0.58228 5.42391
v -1.34054 0.58228 2.92391
v -1.45222 0.15932 5.51304
v -1.45222 0.15932 3.01304
v -1.43371 -0.27756 5.60217
v -1.43371 -0.27756 3.10217
v -1.28677 -0.68921 5.69130
v -1.28677 -0.68921 3.19130
v -1.02468 -1.03877 5.78043
v -1.02468 -1.03877 3.28043
v -0.67101 -1.29498 5.86957
v -0.67101 -1.29498 3.36957
v -0.25752 -1.43497 5.95870
v -0.25752 -1.43497 3.45870
v 0.17870 -1.44629 6.04783
v 0.17870 -1.44629 3.54783
v 0.59854 -1.32803 6.13696
v 0.59854 -1.32803 3.63696
v 0.96441 -1.09090 6.22609
v 0.96441 -1.09090 3.72609
v 1.24358 -0.75624 6.31522
v 1.24358 -0.75624 3.81522
v 1.41111 -0.35410 6.40435
v 1.41111 -0.35410 3.90435
v 1.45208 0.07942 6.49348
v 1.45208 0.07942 3.99348
v 1.36293 0.50546 6.58261
v 1.36293 0.50546 4.08261
v 1.15176 0.88586 6.67174
v 1.15176 0.88586 4.17174
v 0.83759 1.18659 6.76087
v 0.83759 1.18659 4.26087
v 0.44864 1.38076 6.85000
v 0.44864 1.38076 4.35000
v 0.01982 1.45108 6.93913
v 0.01982 1.45108 4.43913
v -0.41041 1.39133 7.02826
v -0.41041 1.39133 4.52826
v -0.80351 1.20700 7.11739
v -0.80351 1.20700 4.61739
v -1.12431 0.91469 7.20652
v -1.12431 0.91469 4.70652
v -1.34411 0.54068 7.29565
v -1.34411 0.54068 4.79565
v -1.44331 0.11855 7.38478
v -1.44331 0.11855 4.88478
v -1.41313 -0.31385 7.47391
v -1.41313 -0.31385 4.97391
v -1.25638 -0.71777 7.56304
v -1.25638 -0.71777 5.06304
v -0.98721 -1.05704 7.65217
v -0.98721 -1.05704 5.15217
v -0.62982 -1.30134 7.74130
v -0.62982 -1.30134 5.24130
v -0.21632 -1.42885 7.83043
v -0.21632 -1.42885 5.33043
v 0.21622 -1.42825 7.91957
v 0.21622 -1.42825 5.41957
v 0.62903 -1.29970 8.00870
v 0.62903 -1.29970 5.50870
v 0.98514 -1.05482 8.09783
v 0.98514 -1.05482 5.59783
v 1.25269 -0.71566 8.18696
v 1.25269 -0.71566 5.68696
v 1.40779 -0.31266 8.27609
v 1.40779 -0.31266 5.77609
v 1.43665 0.11800 8.36522
v 1.43665 0.11800 5.86522
v 1.33678 0.53773 8.45435
v 1.33678 0.53773 5.95435
v 1.11724 0.90894 8.54348
v 1.11724 0.90894 6.04348
v 0.79779 1.19840 8.63261
v 0.79779 1.19840 6.13261
v 0.40714 1.38026 8.72174
v 0.40714 1.38026 6.22174
v -0.01965 1.43831 8.81087
v -0.01965 1.43831 6.31087
v -0.44432 1.36747 8.90000
v -0.44432 1.36747 6.40000
v -0.82882 1.17418 8.98913
v -0.82882 1.17418 6.48913
v -1.13876 0.87586 9.07826
v -1.13876 0.87586 6.57826
v -1.34641 0.49933 9.16739
v -1.34641 0.49933 6.66739
v -1.43327 0.07839 9.25652
v -1.43327 0.07839 6.75652
v -1.39165 -0.34922 9.34565
v -1.39165 -0.34922 6.84565
v -1.22540 -0.74518 9.43478
v -1.22540 -0.74518 6.93478
v -0.94952 -1.07405 9.52391
v -0.94952 -1.07405 7.02391
v -0.58880 -1.30642 9.61304
v -0.58880 -1.30642 7.11304
v -0.17564 -1.42156 9.70217
v -0.17564 -1.42156 7.20217
v 0.25290 -1.40925 9.79130
v 0.25290 -1.40925 7.29130
v 0.65842 -1.27070 9.88043
v 0.65842 -1.27070 7.38043
v 1.00462 -1.01844 9.96957
v 1.00462 -1.01844 7.46957
v 1.26052 -0.67515 10.05870
v 1.26052 -0.67515 7.55870
v 1.40328 -0.27166 10.14783
v 1.40328 -0.27166 7.64783
v 1.42020 0.15581 10.23696
v 1.42020 0.15581 7.73696
v 1.30989 0.56896 10.32609
v 1.30989 0.56896 7.82609
v 1.08231 0.93079 10.41522
v 1.08231 0.93079 7.91522
v 0.75798 1.20893 10.50435
v 0.75798 1.20893 8.00435
v 0.36601 1.37853 10.59348
v 0.36601 1.37853 8.09348
v -0.05840 1.42449 10.68261
v -0.05840 1.42449 8.18261
v -0.47723 1.34280 10.77174
v -0.47723 1.34280 8.27174
v -0.85295 1.14088 10.86087
v -0.85295 1.14088 8.36087
v -1.15193 0.83693 10.95000
v -1.15193 0.83693 8.45000
v -1.34746 0.45826 11.03913
v -1.34746 0.45826 8.53913
v -1.42212 0.03886 11.12826
v -1.42212 0.03886 8.62826
v -1.36931 -0.38366 11.21739
v -1.36931 -0.38366 8.71739
v -1.19387 -0.77145 11.30652
v -1.19387 -0.77145 8.80652
v -0.91164 -1.08980 11.39565
v -0.91164 -1.08980 8.89565
v -0.54797 -1.31025 11.48478
v -0.54797 -1.31025 8.98478
v -0.13553 -1.41313 11.57391
v -0.13553 -1.41313 9.07391
v 0.28870 -1.38932 11.66304
v 0.28870 -1.38932 9.16304
v 0.68671 -1.24108 11.75217
v 0.68671 -1.24108 9.25217
v 1.02286 -0.98178 11.84130
v 1.02286 -0.98178 9.34130
v 1.26708 -0.63475 11.93043
v 1.26708 -0.63475 9.43043
v 1.39758 -0.23115 12.01957
v 1.39758 -0.23115 9.51957
v 1.40278 0.19281 12.10870
v 1.40278 0.19281 9.60870
v 1.28229 0.59913 12.19783
v 1.28229 0.59913 9.69783
v 1.04704 0.95143 12.28696
v 1.04704 0.95143 9.78696
v 0.71819 1.21819 12.37609
v 0.71819 1.21819 9.87609
v 0.32529 1.37560 12.46522
v 0.32529 1.37560 9.96522
v -0.09642 1.40963 12.55435
v -0.09642 1.40963 10.05435
v -0.50913 1.31736 12.64348
v -0.50913 1.31736 10.14348
v -0.87587 1.10715 12.73261
v -0.87587 1.10715 10.23261
v -1.16383 0.79793 12.82174
v -1.16383 0.79793 10.32174
v -1.34729 0.41750 12.91087
v -1.34729 0.41750 10.41087
v -1.40989 0.00000 13.00000
v -1.40989 0.00000 10.50000
v -1.34613 -0.41714 13.08913
v -1.34613 -0.41714 10.58913
v -1.16183 -0.79656 13.17826
v -1.16183 -0.79656 10.67826
v -0.87361 -1.10429 13.26739
v -0.87361 -1.10429 10.76739
v -0.50738 -1.31282 13.35652
v -0.50738 -1.31282 10.85652
v -0.09601 -1.40357 13.44565
v -0.09601 -1.40357 10.94565
v 0.32361 -1.36850 13.53478
v 0.32361 -1.36850 11.03478
v 0.71387 -1.21086 13.62391
v 0.71387 -1.21086 11.12391
v 1.03985 -0.94489 13.71304
v 1.03985 -0.94489 11.21304
v 1.27238 -0.59450 13.80217
v 1.27238 -0.59450 11.30217
v 1.39073 -0.19115 13.89130
v 1.39073 -0.19115 11.39130
v 1.38439 0.22897 13.98043
v 1.38439 0.22897 11.48043
v 1.25404 0.62821 14.06957
v 1.25404 0.62821 11.56957
v 1.01146 0.97084 14.15870
v 1.01146 0.97084 11.65870
v 0.67847 1.22619 14.24783
v 0.67847 1.22619 11.74783
v 0.28500 1.37147 14.33696
v 0.28500 1.37147 11.83696
v -0.13367 1.39377 14.42609
v -0.13367 1.39377 11.92609
v -0.54000 1.29118 14.51522
v -0.54000 1.29118 12.01522
v -0.89760 1.07302 14.60435
v -0.89760 1.07302 12.10435
v -1.17448 0.75892 14.69348
v -1.17448 0.75892 12.19348
v -1.34590 0.37710 14.78261
v -1.34590 0.37710 12.28261
v -1.39660 -0.03816 14.87174
v -1.39660 -0.03816 12.37174
v -1.32215 -0.44965 14.96087
v -1.32215 -0.44965 12.46087
v -1.12931 -0.82049 15.05000
v -1.12931 -0.82049 12.55000
v -0.83548 -1.11752 15.13913
v -0.83548 -1.11752 12.63913
v -0.46705 -1.31417 15.22826
v -0.46705 -1.31417 12.72826
v -0.05711 -1.39292 15.31739
v -0.05711 -1.39292 12.81739
v 0.35759 -1.34681 15.40652
v 0.35759 -1.34681 12.90652
v 0.73990 -1.18010 15.49565
v 0.73990 -1.18010 12.99565
v 1.05559 -0.90781 15.58478
v 1.05559 -0.90781 13.08478
v 1.27644 -0.55444 15.67391
v 1.27644 -0.55444 13.17391
v 1.38275 -0.15170 15.76304
v 1.38275 -0.15170 13.26304
v 1.36509 0.26427 15.85217
v 1.36509 0.26427 13.35217
v 1.22516 0.65621 15.94130
v 1.22516 0.65621 13.44130
v 0.97560 0.98902 16.03043
v 0.97560 0.98902 13.53043
v 0.63885 1.23293 16.11957
v 0.63885 1.23293 13.61957
v 0.24517 1.36618 16.20870
v 0.24517 1.36618 13.70870
v -0.17013 1.37693 16.29783
v -0.17013 1.37693 13.79783
v -0.56982 1.26432 16.38696
v -0.56982 1.26432 13.88696
v -0.91812 1.03854 16.47609
v -0.91812 1.03854 13.97609
v -1.18386 0.71992 16.56522
v -1.18386 0.71992 14.06522
v -1.34332 0.33709 16.65435
v -1.34332 0.33709 14.15435
v -1.38230 -0.07560 16.74348
v -1.38230 -0.07560 14.24348
v -1.29741 -0.48116 16.83261
v -1.29741 -0.48116 14.33261
v -1.09637 -0.84326 16.92174
v -1.09637 -0.84326 14.42174
v -0.79728 -1.12949 17.01087
v -0.79728 -1.12949 14.51087
v -0.42704 -1.31430 17.10000
v -0.42704 -1.31430 14.60000
v -0.01887 -1.38120 17.18913
v -0.01887 -1.38120 14.68913
v 0.39064 -1.32430 17.27826
v 0.39064 -1.32430 14.77826
v 0.76479 -1.14883 17.36739
v 0.76479 -1.14883 14.86739
v 1.07009 -0.87059 17.45652
v 1.07009 -0.87059 14.95652
v 1.27927 -0.51460 17.54565
v 1.27927 -0.51460 15.04565
v 1.37366 -0.11283 17.63478
v 1.37366 -0.11283 15.13478
v 1.34491 0.29869 17.72391
v 1.34491 0.29869 15.22391
v 1.19570 0.68310 17.81304
v 1.19570 0.68310 15.31304
v 0.93951 1.00597 17.90217
v 0.93951 1.00597 15.40217
v 0.59938 1.23844 17.99130
v 0.59938 1.23844 15.49130
v 0.20585 1.35975 18.08043
v 0.20585 1.35975 15.58043
v -0.20576 1.35915 18.16957
v -0.20576 1.35915 15.66957
v -0.59858 1.23679 18.25870
v -0.59858 1.23679 15.75870
v -0.93743 1.00375 18.34783
v -0.93743 1.00375 15.84783
v -1.19201 0.68099 18.43696
v -1.19201 0.68099 15.93696
v -1.33957 0.29751 18.52609
v -1.33957 0.29751 16.02609
v -1.36700 -0.11228 18.61522
v -1.36700 -0.11228 16.11522
v -1.27194 -0.51165 18.70435
v -1.27194 -0.51165 16.20435
v -1.06302 -0.86483 18.79348
v -1.06302 -0.86483 16.29348
v -0.75906 -1.14023 18.88261
v -0.75906 -1.14023 16.38261
v -0.38737 -1.31323 18.97174
v -0.38737 -1.31323 16.47174
v 0.01869 -1.36843 19.06087
v 0.01869 -1.36843 16.56087
v 0.42272 -1.30100 19.15000
v 0.42272 -1.30100 16.65000
v 0.78852 -1.11708 19.23913
v 0.78852 -1.11708 16.73913
v 1.08336 -0.83325 19.32826
v 1.08336 -0.83325 16.82826
v 1.28088 -0.47503 19.41739
v 1.28088 -0.47503 16.91739
v 1.36349 -0.07457 19.50652
v 1.36349 -0.07457 17.00652
v 1.32387 0.33221 19.59565
v 1.32387 0.33221 17.09565
v 1.16569 0.70887 19.68478
v 1.16569 0.70887 17.18478
v 0.90323 1.02169 19.77391
v 0.90323 1.02169 17.27391
v 0.56008 1.24271 19.86304
v 0.56008 1.24271 17.36304
v 0.16707 1.35220 19.95217
v 0.16707 1.35220 17.45217
v -0.24056 1.34046 20.04130
v -0.24056 1.34046 17.54130
v -0.62627 1.20865 20.13043
v -0.62627 1.20865 17.63043
v -0.95554 0.96868 20.21957
v -0.95554 0.96868 17.71957
v -1.19891 0.64215 20.30870
v -1.19891 0.64215 17.80870
v -1.33467 0.25838 20.39783
v -1.33467 0.25838 17.89783
v -1.35073 -0.14819 20.48696
v -1.35073 -0.14819 17.98696
v -1.24579 -0.54112 20.57609
v -1.24579 -0.54112 18.07609
v -1.02933 -0.88523 20.66522
v -1.02933 -0.88523 18.16522
v -0.72085 -1.14972 20.75435
v -0.72085 -1.14972 18.25435
v -0.34808 -1.31099 20.84348
v -0.34808 -1.31099 18.34348
v 0.05554 -1.35466 20.93261
v 0.05554 -1.35466 18.43261
v 0.45383 -1.27695 21.02174
v 0.45383 -1.27695 18.52174
v 0.81110 -1.08490 21.11087
v 0.81110 -1.08490 18.61087
v 1.09539 -0.79585 21.20000
v 1.09539 -0.79585 18.70000
v 1.28130 -0.43576 21.28913
v 1.28130 -0.43576 18.78913
v 1.35226 -0.03695 21.37826
v 1.35226 -0.03695 18.87826
v 1.30201 0.36481 21.46739
v 1.30201 0.36481 18.96739
v 1.13518 0.73352 21.55652
v 1.13518 0.73352 19.05652
v 0.86680 1.03620 21.64565
v 0.86680 1.03620 19.14565
v 0.52101 1.24577 21.73478
v 0.52101 1.24577 19.23478
v 0.12886 1.34356 21.82391
v 0.12886 1.34356 19.32391
v -0.27449 1.32090 21.91304
v -0.27449 1.32090 19.41304
v -0.65287 1.17993 22.00217
v -0.65287 1.17993 19.50217
v -0.97244 0.93338 22.09130
v -0.97244 0.93338 19.59130
v -1.20460 0.60345 22.18043
v -1.20460 0.60345 19.68043
v -1.32864 0.21975 22.26957
v -1.32864 0.21975 19.76957
v -1.33354 -0.18329 22.35870
v -1.33354 -0.18329 19.85870
v -1.21898 -0.56955 22.44783
v -1.21898 -0.56955 19.94783
v -0.99532 -0.90443 22.53696
v -0.99532 -0.90443 20.03696
v -0.68270 -1.15799 22.62609
v -0.68270 -1.15799 20.12609
v -0.30920 -1.30758 22.71522
v -0.30920 -1.30758 20.21522
v 0.09165 -1.33991 22.80435
v 0.09165 -1.33991 20.30435
v 0.48394 -1.25217 22.89348
v 0.48394 -1.25217 20.39348
v 0.83251 -1.05234 22.98261
v 0.83251 -1.05234 20.48261
v 1.10619 -0.75841 23.07174
v 1.10619 -0.75841 20.57174
v 1.28053 -0.39682 23.16087
v 1.28053 -0.39682 20.66087
v 1.34000 -0.00000 23.25000
v 1.34000 -0.00000 20.75000
v 1.27937 0.39646 23.33913
v 1.27937 0.39646 20.83913
v 1.10419 0.75704 23.42826
v 1.10419 0.75704 20.92826
v 0.83025 1.04948 23.51739
v 0.83025 1.04948 21.01739
v 0.48218 1.24763 23.60652
v 0.48218 1.24763 21.10652
v 0.09124 1.33384 23.69565
v 0.09124 1.33384 21.19565
v -0.30753 1.30049 23.78478
v -0.30753 1.30049 21.28478
v -0.67838 1.15066 23.87391
v -0.67838 1.15066 21.37391
v -0.98812 0.89789 23.96304
v -0.98812 0.89789 21.46304
v -1.20907 0.56491 24.05217
v -1.20907 0.56491 21.55217
v -1.32150 0.18164 24.14130
v -1.32150 0.18164 21.64130
v -1.31544 -0.21757 24.23043
v -1.31544 -0.21757 21.73043
v -1.19156 -0.59691 24.31957
v -1.19156 -0.59691 21.81957
v -0.96104 -0.92244 24.40870
v -0.96104 -0.92244 21.90870
v -0.64464 -1.16504 24.49783
v -0.64464 -1.16504 21.99783
v -0.27078 -1.30305 24.58696
v -0.27078 -1.30305 22.08696
v 0.12700 -1.32420 24.67609
v 0.12700 -1.32420 22.17609
v 0.51303 -1.22671 24.76522
v 0.51303 -1.22671 22.26522
v 0.85276 -1.01942 24.85435
v 0.85276 -1.01942 22.35435
v 1.11578 -0.72099 24.94348
v 1.11578 -0.72099 22.44348
v 1.27861 -0.35825 25.03261
v 1.27861 -0.35825 22.53261
v 1.32674 0.03625 25.12174
v 1.32674 0.03625 22.62174
v 1.25598 0.42715 25.21087
v 1.25598 0.42715 22.71087
v 1.07277 0.77942 25.30000
v 1.07277 0.77942 22.80000
v 0.79363 1.06154 25.38913
v 0.79363 1.06154 22.88913
v 0.44365 1.24831 25.47826
v 0.44365 1.24831 22.97826
v 0.05425 1.32309 25.56739
v 0.05425 1.32309 23.06739
v -0.33966 1.27927 25.65652
v -0.33966 1.27927 23.15652
v -0.70278 1.12089 25.74565
v -0.70278 1.12089 23.24565
v -1.00260 0.86224 25.83478
v -1.00260 0.86224 23.33478
v -1.21234 0.52659 25.92391
v -1.21234 0.52659 23.42391
v -1.31328 0.14408 26.01304
v -1.31328 0.14408 23.51304
v -1.29648 -0.25099 26.10217
v -1.29648 -0.25099 23.60217
v -1.16356 -0.62321 26.19130
v -1.16356 -0.62321 23.69130
v -0.92652 -0.93926 26.28043
v -0.92652 -0.93926 23.78043
v -0.60670 -1.17088 26.36957
v -0.60670 -1.17088 23.86957
v -0.23283 -1.29740 26.45870
v -0.23283 -1.29740 23.95870
v 0.16156 -1.30757 26.54783
v 0.16156 -1.30757 24.04783
v 0.54111 -1.20060 26.63696
v 0.54111 -1.20060 24.13696
v 0.87183 -0.98618 26.72609
v 0.87183 -0.98618 24.22609
v 1.12415 -0.68361 26.81522
v 1.12415 -0.68361 24.31522
v 1.27554 -0.32008 26.90435
v 1.27554 -0.32008 24.40435
v 1.31251 0.07178 26.99348
v 1.31251 0.07178 24.49348
v 1.23188 0.45686 27.08261
v 1.23188 0.45686 24.58261
v 1.04097 0.80065 27.17174
v 1.04097 0.80065 24.67174
v 0.75698 1.07240 27.26087
v 0.75698 1.07240 24.76087
v 0.40544 1.24783 27.35000
v 0.40544 1.24783 24.85000
v 0.01791 1.31132 27.43913
v 0.01791 1.31132 24.93913
v -0.37086 1.25727 27.52826
v -0.37086 1.25727 25.02826
v -0.72606 1.09065 27.61739
v -0.72606 1.09065 25.11739
v -1.01588 0.82648 27.70652
v -1.01588 0.82648 25.20652
v -1.21443 0.48852 27.79565
v -1.21443 0.48852 25.29565
v -1.30401 0.10711 27.88478
v -1.30401 0.10711 25.38478
v -1.27668 -0.28354 27.97391
v -1.27668 -0.28354 25.47391
v -1.13502 -0.64843 28.06304
v -1.13502 -0.64843 25.56304
v -0.89181 -0.95489 28.15217
v -0.89181 -0.95489 25.65217
v -0.56893 -1.17553 28.24130
v -0.56893 -1.17553 25.74130
v -0.19539 -1.29065 28.33043
v -0.19539 -1.29065 25.83043
v 0.19530 -1.29005 28.41957
v 0.19530 -1.29005 25.91957
v 0.56814 -1.17389 28.50870
v 0.56814 -1.17389 26.00870
v 0.88973 -0.95267 28.59783
v 0.88973 -0.95267 26.09783
v 1.13132 -0.64632 28.68696
v 1.13132 -0.64632 26.18696
v 1.27134 -0.28236 28.77609
v 1.27134 -0.28236 26.27609
v 1.29735 0.10656 28.86522
v 1.29735 0.10656 26.36522
v 1.20710 0.48557 28.95435
v 1.20710 0.48557 26.45435
v 1.00881 0.82073 29.04348
v 1.00881 0.82073 26.54348
v 0.72033 1.08205 29.13261
v 0.72033 1.08205 26.63261
v 0.36760 1.24620 29.22174
v 0.36760 1.24620 26.72174
v -0.01774 1.29855 29.31087
v -0.01774 1.29855 26.81087
v -0.40113 1.23454 29.40000
v -0.40113 1.23454 26.90000
v -0.74822 1.05999 29.48913
v -0.74822 1.05999 26.98913
v -1.02796 0.79064 29.57826
v -1.02796 0.79064 27.07826
v -1.21536 0.45073 29.66739
v -1.21536 0.45073 27.16739
v -1.29370 0.07075 29.75652
v -1.29370 0.07075 27.25652
v -1.25608 -0.31520 29.84565
v -1.25608 -0.31520 27.34565
v -1.10598 -0.67256 29.93478
v -1.10598 -0.67256 27.43478
v -0.85694 -0.96933 30.02391
v -0.85694 -0.96933 27.52391
v -0.53137 -1.17900 30.11304
v -0.53137 -1.17900 27.61304
v -0.15850 -1.28284 30.20217
v -0.15850 -1.28284 27.70217
v 0.22821 -1.27168 30.29130
v 0.22821 -1.27168 27.79130
v 0.59412 -1.14660 30.38043
v 0.59412 -1.14660 27.88043
v 0.90646 -0.91893 30.46957
v 0.90646 -0.91893 27.96957
v 1.13731 -0.60915 30.55870
v 1.13731 -0.60915 28.05870
v 1.26605 -0.24510 30.64783
v 1.26605 -0.24510 28.14783
v 1.28126 0.14057 30.73696
v 1.28126 0.14057 28.23696
v 1.18168 0.51328 30.82609
v 1.18168 0.51328 28.32609
v 0.97634 0.83966 30.91522
v 0.97634 0.83966 28.41522
v 0.68373 1.09051 31.00435
v 0.68373 1.09051 28.50435
v 0.33015 1.24344 31.09348
v 0.33015 1.24344 28.59348
v -0.05268 1.28483 31.18261
v -0.05268 1.28483 28.68261
v -0.43042 1.21109 31.27174
v -0.43042 1.21109 28.77174
v -0.76925 1.02893 31.36087
v -0.76925 1.02893 28.86087
v -1.03885 0.75477 31.45000
v -1.03885 0.75477 28.95000
v -1.21513 0.41325 31.53913
v -1.21513 0.41325 29.03913
v -1.28240 0.03504 31.62826
v -1.28240 0.03504 29.12826
v -1.23472 -0.34595 31.71739
v -1.23472 -0.34595 29.21739
v -1.07648 -0.69559 31.80652
v -1.07648 -0.69559 29.30652
v -0.82195 -0.98259 31.89565
v -0.82195 -0.98259 29.39565
v -0.49404 -1.18130 31.98478
v -0.49404 -1.18130 29.48478
v -0.12218 -1.27399 32.07391
v -0.12218 -1.27399 29.57391
v 0.26027 -1.25247 32.16304
v 0.26027 -1.25247 29.66304
v 0.61904 -1.11878 32.25217
v 0.61904 -1.11878 29.75217
v 0.92202 -0.88499 32.34130
v 0.92202 -0.88499 29.84130
v 1.14211 -0.57214 32.43043
v 1.14211 -0.57214 29.93043
v 1.25969 -0.20834 32.51957
v 1.25969 -0.20834 30.01957
v 1.26430 0.17377 32.60870
v 1.26430 0.17377 30.10870
v 1.15566 0.53996 32.69783
v 1.15566 0.53996 30.19783
v 0.94360 0.85743 32.78696
v 0.94360 0.85743 30.28696
v 0.64721 1.09779 32.87609
v 0.64721 1.09779 30.37609
v 0.29312 1.23957 32.96522
v 0.29312 1.23957 30.46522
v -0.08688 1.27018 33.05435
v -0.08688 1.27018 30.55435
v -0.45874 1.18698 33.14348
v -0.45874 1.18698 30.64348
v -0.78915 0.99753 33.23261
v -0.78915 0.99753 30.73261
v -1.04855 0.71890 33.32174
v -1.04855 0.71890 30.82174
v -1.21378 0.37613 33.41087
v -1.21378 0.37613 30.91087
v -1.27011 0.00000 33.50000
v -1.27011 0.00000 31.00000
v -1.21262 -0.37577 33.58913
v -1.21262 -0.37577 31.08913
v -1.04655 -0.71752 33.67826
v -1.04655 -0.71752 31.17826
v -0.78689 -0.99467 33.76739
v -0.78689 -0.99467 31.26739
v -0.45699 -1.18245 33.85652
v -0.45699 -1.18245 31.35652
v -0.08647 -1.26412 33.94565
v -0.08647 -1.26412 31.44565
v 0.29144 -1.23248 34.03478
v 0.29144 -1.23248 31.53478
v 0.64289 -1.09046 34.12391
v 0.64289 -1.09046 31.62391
v 0.93640 -0.85089 34.21304
v 0.93640 -0.85089 31.71304
v 1.14575 -0.53533 34.30217
v 1.14575 -0.53533 31.80217
v 1.25226 -0.17212 34.39130
v 1.25226 -0.17212 31.89130
v 1.24650 0.20616 34.48043
v 1.24650 0.20616 31.98043
v 1.12907 0.56561 34.56957
v 1.12907 0.56561 32.06957
v 0.91062 0.87405 34.65870
v 0.91062 0.87405 32.15870
v 0.61080 1.10389 34.74783
v 0.61080 1.10389 32.24783
v 0.25656 1.23462 34.83696
v 0.25656 1.23462 32.33696
v -0.12033 1.25463 34.92609
v -0.12033 1.25463 32.42609
v -0.48607 1.16223 35.01522
v -0.48607 1.16223 32.51522
v -0.80792 0.96581 35.10435
v -0.80792 0.96581 32.60435
v -1.05708 0.68306 35.19348
v -1.05708 0.68306 32.69348
v -1.21131 0.33939 35.28261
v -1.21131 0.33939 32.78261
v -1.25688 -0.03434 35.37174
v -1.25688 -0.03434 32.87174
v -1.18982 -0.40464 35.46087
v -1.18982 -0.40464 32.96087
v -1.01624 -0.73834 35.55000
v -1.01624 -0.73834 33.05000
v -0.75179 -1.00557 35.63913
v -0.75179 -1.00557 33.13913
v -0.42025 -1.18246 35.72826
v -0.42025 -1.18246 33.22826
v -0.05138 -1.25326 35.81739
v -0.05138 -1.25326 33.31739
v 0.32173 -1.21172 35.90652
v 0.32173 -1.21172 33.40652
v 0.66565 -1.06168 35.99565
v 0.66565 -1.06168 33.49565
v 0.94962 -0.81667 36.08478
v 0.94962 -0.81667 33.58478
v 1.14824 -0.49875 36.17391
v 1.14824 -0.49875 33.67391
v 1.24381 -0.13646 36.26304
v 1.24381 -0.13646 33.76304
v 1.22787 0.23771 36.35217
v 1.22787 0.23771 33.85217
v 1.10195 0.59021 36.44130
v 1.10195 0.59021 33.94130
v 0.87744 0.88951 36.53043
v 0.87744 0.88951 34.03043
v 0.57455 1.10883 36.61957
v 0.57455 1.10883 34.11957
v 0.22048 1.22861 36.70870
v 0.22048 1.22861 34.20870
v -0.15299 1.23821 36.79783
v -0.15299 1.23821 34.29783
v -0.51239 1.13689 36.88696
v -0.51239 1.13689 34.38696
v -0.82554 0.93382 36.97609
v -0.82554 0.93382 34.47609
v -1.06444 0.64730 37.06522
v -1.06444 0.64730 34.56522
v -1.20775 0.30307 37.15435
v -1.20775 0.30307 34.65435
v -1.24273 -0.06797 37.24348
v -1.24273 -0.06797 34.74348
v -1.16636 -0.43256 37.33261
v -1.16636 -0.43256 34.83261
v -0.98557 -0.75804 37.42174
v -0.98557 -0.75804 34.92174
v -0.71668 -1.01530 37.51087
v -0.71668 -1.01530 35.01087
v -0.38385 -1.18136 37.60000
v -0.38385 -1.18136 35.10000
v -0.01696 -1.24144 37.68913
v -0.01696 -1.24144 35.18913
v 0.35109 -1.19024 37.77826
v 0.35109 -1.19024 35.27826
v 0.68733 -1.03248 37.86739
v 0.68733 -1.03248 35.36739
v 0.96167 -0.78238 37.95652
v 0.96167 -0.78238 35.45652
v 1.14960 -0.46244 38.04565
v 1.14960 -0.46244 35.54565
v 1.23436 -0.10139 38.13478
v 1.23436 -0.10139 35.63478
v 1.20846 0.26839 38.22391
v 1.20846 0.26839 35.72391
v 1.07434 0.61376 38.31304
v 1.07434 0.61376 35.81304
v 0.84411 0.90382 38.40217
v 0.84411 0.90382 35.90217
v 0.53849 1.11262 38.49130
v 0.53849 1.11262 35.99130
v 0.18493 1.22156 38.58043
v 0.18493 1.22156 36.08043
v -0.18484 1.22095 38.66957
v -0.18484 1.22095 36.16957
v -0.53769 1.11098 38.75870
v -0.53769 1.11098 36.25870
v -0.84203 0.90160 38.84783
v -0.84203 0.90160 36.34783
v -1.07064 0.61165 38.93696
v -1.07064 0.61165 36.43696
v -1.20312 0.26720 39.02609
v -1.20312 0.26720 36.52609
v -1.22769 -0.10084 39.11522
v -1.22769 -0.10084 36.61522
v -1.14227 -0.45949 39.20435
v -1.14227 -0.45949 36.70435
v -0.95460 -0.77662 39.29348
v -0.95460 -0.77662 36.79348
v -0.68161 -1.02388 39.38261
v -0.68161 -1.02388 36.88261
v -0.34783 -1.17917 39.47174
v -0.34783 -1.17917 36.97174
v 0.01678 -1.22867 39.56087
v 0.01678 -1.22867 37.06087
v 0.37953 -1.16807 39.65000
v 0.37953 -1.16807 37.15000
v 0.70792 -1.00289 39.73913
v 0.70792 -1.00289 37.23913
v 0.97257 -0.74804 39.82826
v 0.97257 -0.74804 37.32826
v 1.14983 -0.42643 39.91739
v 1.14983 -0.42643 37.41739
v 1.22392 -0.06694 40.00652
v 1.22392 -0.06694 37.50652
v 1.18830 0.29819 40.09565
v 1.18830 0.29819 37.59565
v 1.04627 0.63625 40.18478
v 1.04627 0.63625 37.68478
v 0.81065 0.91698 40.27391
v 0.81065 0.91698 37.77391
v 0.50265 1.11528 40.36304
v 0.50265 1.11528 37.86304
v 0.14993 1.21349 40.45217
v 0.14993 1.21349 37.95217
v -0.21587 1.20289 40.54130
v -0.21587 1.20289 38.04130
v -0.56197 1.08455 40.63043
v -0.56197 1.08455 38.13043
v -0.85738 0.86917 40.71957
v -0.85738 0.86917 38.21957
v -1.07570 0.57616 40.80870
v -1.07570 0.57616 38.30870
v -1.19744 0.23182 40.89783
v -1.19744 0.23182 38.39783
v -1.21180 -0.13295 40.98696
v -1.21180 -0.13295 38.48696
v -1.11758 -0.48544 41.07609
v -1.11758 -0.48544 38.57609
v -0.92335 -0.79409 41.16522
v -0.92335 -0.79409 38.66522
v -0.64661 -1.03130 41.25435
v -0.64661 -1.03130 38.75435
v -0.31221 -1.17589 41.34348
v -0.31221 -1.17589 38.84348
v 0.04982 -1.21501 41.43261
v 0.04982 -1.21501 38.93261
v 0.40702 -1.14524 41.52174
v 0.40702 -1.14524 39.02174
v 0.72741 -0.97296 41.61087
v 0.72741 -0.97296 39.11087
v 0.98231 -0.71369 41.70000
v 0.98231 -0.71369 39.20000
v 1.14897 -0.39075 41.78913
v 1.14897 -0.39075 39.28913
v 1.21254 -0.03313 41.87826
v 1.21254 -0.03313 39.37826
v 1.16742 0.32710 41.96739
v 1.16742 0.32710 39.46739
v 1.01778 0.65766 42.05652
v 1.01778 0.65766 39.55652
v 0.77711 0.92899 42.14565
v 0.77711 0.92899 39.64565
v 0.46708 1.11682 42.23478
v 0.46708 1.11682 39.73478
v 0.11551 1.20442 42.32391
v 0.11551 1.20442 39.82391
v -0.24605 1.18405 42.41304
v -0.24605 1.18405 39.91304
v -0.58520 1.05763 42.50217
v -0.58520 1.05763 40.00217
v -0.87160 0.83659 42.59130
v -0.87160 0.83659 40.09130
v -1.07963 0.54084 42.68043
v -1.07963 0.54084 40.18043
v -1.19074 0.19694 42.76957
v -1.19074 0.19694 40.26957
v -1.19507 -0.16426 42.85870
v -1.19507 -0.16426 40.35870
v -1.09235 -0.51038 42.94783
v -1.09235 -0.51038 40.44783
v -0.89187 -0.81043 43.03696
v -0.89187 -0.81043 40.53696
v -0.61171 -1.03758 43.12609
v -0.61171 -1.03758 40.62609
v -0.27704 -1.17156 43.21522
v -0.27704 -1.17156 40.71522
v 0.08211 -1.20046 43.30435
v 0.08211 -1.20046 40.80435
v 0.43355 -1.12179 43.39348
v 0.43355 -1.12179 40.89348
v 0.74579 -0.94272 43.48261
v 0.74579 -0.94272 40.98261
v 0.99091 -0.67938 43.57174
v 0.99091 -0.67938 41.07174
v 1.14702 -0.35544 43.66087
v 1.14702 -0.35544 41.16087
v 1.20023 -0.00000 43.75000
v 1.20023 -0.00000 41.25000
vt 0.00000 1.00000
vt 0.00000 0.00000
vt 0.04783 1.00000
vt 0.04783 0.00000
vt 0.09565 1.00000
vt 0.09565 0.00000
vt 0.14348 1.00000
vt 0.14348 0.00000
vt 0.19130 1.00000
vt 0.19130 0.00000
vt 0.23913 1.00000
vt 0.23913 0.00000
vt 0.28696 1.00000
vt 0.28696 0.00000
vt 0.33478 1.00000
vt 0.33478 0.00000
vt 0.38261 1.00000
vt 0.38261 0.00000
vt 0.43043 1.00000
vt 0.43043 0.00000
vt 0.47826 1.00000
vt 0.47826 0.00000
vt 0.52609 1.00000
vt 0.52609 0.00000
vt 0.57391 1.00000
vt 0.57391 0.00000
vt 0.62174 1.00000
vt 0.62174 0.00000
vt 0.66957 1.00000
vt 0.66957 0.00000
vt 0.71739 1.00000
vt 0.71739 0.00000
vt 0.76522 1.00000
vt 0.76522 0.00000
vt 0.81304 1.00000
vt 0.81304 0.00000
vt 0.86087 1.00000
vt 0.86087 0.00000
vt 0.90870 1.00000
vt 0.90870 0.00000
vt 0.95652 1.00000
vt 0.95652 0.00000
vt 1.00435 1.00000
vt 1.00435 0.00000
vt 1.05217 1.00000
vt 1.05217 0.00000
vt 1.10000 1.00000
vt 1.10000 0.00000
vt 1.14783 1.00000
vt 1.14783 0.00000
vt 1.19565 1.00000
vt 1.19565 0.00000
vt 1.24348 1.00000
vt 1.24348 0.00000
vt 1.29130 1.00000
vt 1.29130 0.00000
vt 1.33913 1.00000
vt 1.33913 0.00000
vt 1.38696 1.00000
vt 1.38696 0.00000
vt 1.43478 1.00000
vt 1.43478 0.00000
vt 1.48261 1.00000
vt 1.48261 0.00000
vt 1.53043 1.00000
vt 1.53043 0.00000
vt 1.57826 1.00000
vt 1.57826 0.00000
vt 1.62609 1.00000
vt 1.62609 0.00000
vt 1.67391 1.00000
vt 1.67391 0.00000
vt 1.72174 1.00000
vt 1.72174 0.00000
vt 1.76957 1.00000
vt 1.76957 0.00000
vt 1.81739 1.00000
vt 1.81739 0.00000
vt 1.86522 1.00000
vt 1.86522 0.00000
vt 1.91304 1.00000
vt 1.91304 0.00000
vt 1.96087 1.00000
vt 1.96087 0.00000
vt 2.00870 1.00000
vt 2.00870 0.00000
vt 2.05652 1.00000
vt 2.05652 0.00000
vt 2.10435 1.00000
vt 2.10435 0.00000
vt 2.15217 1.00000
vt 2.15217 0.00000
vt 2.20000 1.00000
vt 2.20000 0.00000
vt 2.24783 1.00000
vt 2.24783 0.00000
vt 2.29565 1.00000
vt 2.29565 0.00000
vt 2.34348 1.00000
vt 2.34348 0.00000
vt 2.39130 1.00000
vt 2.39130 0.00000
vt 2.43913 1.00000
vt 2.43913 0.00000
vt 2.48696 1.00000
vt 2.48696 0.00000
vt 2.53478 1.00000
vt 2.53478 0.00000
vt 2.58261 1.00000
vt 2.58261 0.00000
vt 2.63043 1.00000
vt 2.63043 0.00000
vt 2.67826 1.00000
vt 2.67826 0.00000
vt 2.72609 1.00000
vt 2.72609 0.00000
vt 2.77391 1.00000
vt 2.77391 0.00000
vt 2.82174 1.00000
vt 2.82174 0.00000
vt 2.86957 1.00000
vt 2.86957 0.00000
vt 2.91739 1.00000
vt 2.91739 0.00000
vt 2.96522 1.00000
vt 2.96522 0.00000
vt 3.01304 1.00000
vt 3.01304 0.00000
vt 3.06087 1.00000
vt 3.06087 0.00000
vt 3.10870 1.00000
vt 3.10870 0.00000
vt 3.15652 1.00000
vt 3.15652 0.00000
vt 3.20435 1.00000
vt 3.20435 0.00000
vt 3.25217 1.00000
vt 3.25217 0.00000
vt 3.30000 1.00000
vt 3.30000 0.00000
vt 3.34783 1.00000
vt 3.34783 0.00000
vt 3.39565 1.00000
vt 3.39565 0.00000
vt 3.44348 1.00000
vt 3.44348 0.00000
vt 3.49130 1.00000
vt 3.49130 0.00000
vt 3.53913 1.00000
vt 3.53913 0.00000
vt 3.58696 1.00000
vt 3.58696 0.00000
vt 3.63478 1.00000
vt 3.63478 0.00000
vt 3.68261 1.00000
vt 3.68261 0.00000
vt 3.73043 1.00000
vt 3.73043 0.00000
vt 3.77826 1.00000
vt 3.77826 0.00000
vt 3.82609 1.00000
vt 3.82609 0.00000
vt 3.87391 1.00000
vt 3.87391 0.00000
vt 3.92174 1.00000
vt 3.92174 0.00000
vt 3.96957 1.00000
vt 3.96957 0.00000
vt 4.01739 1.00000
vt 4.01739 0.00000
vt 4.06522 1.00000
vt 4.06522 0.00000
vt 4.11304 1.00000
vt 4.11304 0.00000
vt 4.16087 1.00000
vt 4.16087 0.00000
vt 4.20870 1.00000
vt 4.20870 0.00000
vt 4.25652 1.00000
vt 4.25652 0.00000
vt 4.30435 1.00000
vt 4.30435 0.00000
vt 4.35217 1.00000
vt 4.35217 0.00000
vt 4.40000 1.00000
vt 4.40000 0.00000
vt 4.44783 1.00000
vt 4.44783 0.00000
vt 4.49565 1.00000
vt 4.49565 0.00000
vt 4.54348 1.00000
vt 4.54348 0.00000
vt 4.59130 1.00000
vt 4.59130 0.00000
vt 4.63913 1.00000
vt 4.63913 0.00000
vt 4.68696 1.00000
vt 4.68696 0.00000
vt 4.73478 1.00000
vt 4.73478 0.00000
vt 4.78261 1.00000
vt 4.78261 0.00000
vt 4.83043 1.00000
vt 4.83043 0.00000
vt 4.87826 1.00000
vt 4.87826 0.00000
vt 4.92609 1.00000
vt 4.92609 0.00000
vt 4.97391 1.00000
vt 4.97391 0.00000
vt 5.02174 1.00000
vt 5.02174 0.00000
vt 5.06957 1.00000
vt 5.06957 0.00000
vt 5.11739 1.00000
vt 5.11739 0.00000
vt 5.16522 1.00000
vt 5.16522 0.00000
vt 5.21304 1.00000
vt 5.21304 0.00000
vt 5.26087 1.00000
vt 5.26087 0.00000
vt 5.30870 1.00000
vt 5.30870 0.00000
vt 5.35652 1.00000
vt 5.35652 0.00000
vt 5.40435 1.00000
vt 5.40435 0.00000
vt 5.45217 1.00000
vt 5.45217 0.00000
vt 5.50000 1.00000
vt 5.50000 0.00000
vt 5.54783 1.00000
vt 5.54783 0.00000
vt 5.59565 1.00000
vt 5.59565 0.00000
vt 5.64348 1.00000
vt 5.64348 0.00000
vt 5.69130 1.00000
vt 5.69130 0.00000
vt 5.73913 1.00000
vt 5.73913 0.00000
vt 5.78696 1.00000
vt 5.78696 0.00000
vt 5.83478 1.00000
vt 5.83478 0.00000
vt 5.88261 1.00000
vt 5.88261 0.00000
vt 5.93043 1.00000
vt 5.93043 0.00000
vt 5.97826 1.00000
vt 5.97826 0.00000
vt 6.02609 1.00000
vt 6.02609 0.00000
vt 6.07391 1.00000
vt 6.07391 0.00000
vt 6.12174 1.00000
vt 6.12174 0.00000
vt 6.16957 1.00000
vt 6.16957 0.00000
vt 6.21739 1.00000
vt 6.21739 0.00000
vt 6.26522 1.00000
vt 6.26522 0.00000
vt 6.31304 1.00000
vt 6.31304 0.00000
vt 6.36087 1.00000
vt 6.36087 0.00000
vt 6.40870 1.00000
vt 6.40870 0.00000
vt 6.45652 1.00000
vt 6.45652 0.00000
vt 6.50435 1.00000
vt 6.50435 0.00000
vt 6.55217 1.00000
vt 6.55217 0.00000
vt 6.60000 1.00000
vt 6.60000 0.00000
vt 6.64783 1.00000
vt 6.64783 0.00000
vt 6.69565 1.00000
vt 6.69565 0.00000
vt 6.74348 1.00000
vt 6.74348 0.00000
vt 6.79130 1.00000
vt 6.79130 0.00000
vt 6.83913 1.00000
vt 6.83913 0.00000
vt 6.88696 1.00000
vt 6.88696 0.00000
vt 6.93478 1.00000
vt 6.93478 0.00000
vt 6.98261 1.00000
vt 6.98261 0.00000
vt 7.03043 1.00000
vt 7.03043 0.00000
vt 7.07826 1.00000
vt 7.07826 0.00000
vt 7.12609 1.00000
vt 7.12609 0.00000
vt 7.17391 1.00000
vt 7.17391 0.00000
vt 7.22174 1.00000
vt 7.22174 0.00000
vt 7.26957 1.00000
vt 7.26957 0.00000
vt 7.31739 1.00000
vt 7.31739 0.00000
vt 7.36522 1.00000
vt 7.36522 0.00000
vt 7.41304 1.00000
vt 7.41304 0.00000
vt 7.46087 1.00000
vt 7.46087 0.00000
vt 7.50870 1.00000
vt 7.50870 0.00000
vt 7.55652 1.00000
vt 7.55652 0.00000
vt 7.60435 1.00000
vt 7.60435 0.00000
vt 7.65217 1.00000
vt 7.65217 0.00000
vt 7.70000 1.00000
vt 7.70000 0.00000
vt 7.74783 1.00000
vt 7.74783 0.00000
vt 7.79565 1.00000
vt 7.79565 0.00000
vt 7.84348 1.00000
vt 7.84348 0.00000
vt 7.89130 1.00000
vt 7.89130 0.00000
vt 7.93913 1.00000
vt 7.93913 0.00000
vt 7.98696 1.00000
vt 7.98696 0.00000
vt 8.03478 1.00000
vt 8.03478 0.00000
vt 8.08261 1.00000
vt 8.08261 0.00000
vt 8.13043 1.00000
vt 8.13043 0.00000
vt 8.17826 1.00000
vt 8.17826 0.00000
vt 8.22609 1.00000
vt 8.22609 0.00000
vt 8.27391 1.00000
vt 8.27391 0.00000
vt 8.32174 1.00000
vt 8.32174 0.00000
vt 8.36957 1.00000
vt 8.36957 0.00000
vt 8.41739 1.00000
vt 8.41739 0.00000
vt 8.46522 1.00000
vt 8.46522 0.00000
vt 8.51304 1.00000
vt 8.51304 0.00000
vt 8.56087 1.00000
vt 8.56087 0.00000
vt 8.60870 1.00000
vt 8.60870 0.00000
vt 8.65652 1.00000
vt 8.65652 0.00000
vt 8.70435 1.00000
vt 8.70435 0.00000
vt 8.75217 1.00000
vt 8.75217 0.00000
vt 8.80000 1.00000
vt 8.80000 0.00000
vt 8.84783 1.00000
vt 8.84783 0.00000
vt 8.89565 1.00000
vt 8.89565 0.00000
vt 8.94348 1.00000
vt 8.94348 0.00000
vt 8.99130 1.00000
vt 8.99130 0.00000
vt 9.03913 1.00000
vt 9.03913 0.00000
vt 9.08696 1.00000
vt 9.08696 0.00000
vt 9.13478 1.00000
vt 9.13478 0.00000
vt 9.18261 1.00000
vt 9.18261 0.00000
vt 9.23043 1.00000
vt 9.23043 0.00000
vt 9.27826 1.00000
vt 9.27826 0.00000
vt 9.32609 1.00000
vt 9.32609 0.00000
vt 9.37391 1.00000
vt 9.37391 0.00000
vt 9.42174 1.00000
vt 9.42174 0.00000
vt 9.46957 1.00000
vt 9.46957 0.00000
vt 9.51739 1.00000
vt 9.51739 0.00000
vt 9.56522 1.00000
vt 9.56522 0.00000
vt 9.61304 1.00000
vt 9.61304 0.00000
vt 9.66087 1.00000
vt 9.66087 0.00000
vt 9.70870 1.00000
vt 9.70870 0.00000
vt 9.75652 1.00000
vt 9.75652 0.00000
vt 9.80435 1.00000
vt 9.80435 0.00000
vt 9.85217 1.00000
vt 9.85217 0.00000
vt 9.90000 1.00000
vt 9.90000 0.00000
vt 9.94783 1.00000
vt 9.94783 0.00000
vt 9.99565 1.00000
vt 9.99565 0.00000
vt 10.04348 1.00000
vt 10.04348 0.00000
vt 10.09130 1.00000
vt 10.09130 0.00000
vt 10.13913 1.00000
vt 10.13913 0.00000
vt 10.18696 1.00000
vt 10.18696 0.00000
vt 10.23478 1.00000
vt 10.23478 0.00000
vt 10.28261 1.00000
vt 10.28261 0.00000
vt 10.33043 1.00000
vt 10.33043 0.00000
vt 10.37826 1.00000
vt 10.37826 0.00000
vt 10.42609 1.00000
vt 10.42609 0.00000
vt 10.47391 1.00000
vt 10.47391 0.00000
vt 10.52174 1.00000
vt 10.52174 0.00000
vt 10.56957 1.00000
vt 10.56957 0.00000
vt 10.61739 1.00000
vt 10.61739 0.00000
vt 10.66522 1.00000
vt 10.66522 0.00000
vt 10.71304 1.00000
vt 10.71304 0.00000
vt 10.76087 1.00000
vt 10.76087 0.00000
vt 10.80870 1.00000
vt 10.80870 0.00000
vt 10.85652 1.00000
vt 10.85652 0.00000
vt 10.90435 1.00000
vt 10.90435 0.00000
vt 10.95217 1.00000
vt 10.95217 0.00000
vt 11.00000 1.00000
vt 11.00000 0.00000
vt 11.04783 1.00000
vt 11.04783 0.00000
vt 11.09565 1.00000
vt 11.09565 0.00000
vt 11.14348 1.00000
vt 11.14348 0.00000
vt 11.19130 1.00000
vt 11.19130 0.00000
vt 11.23913 1.00000
vt 11.23913 0.00000
vt 11.28696 1.00000
vt 11.28696 0.00000
vt 11.33478 1.00000
vt 11.33478 0.00000
vt 11.38261 1.00000
vt 11.38261 0.00000
vt 11.43043 1.00000
vt 11.43043 0.00000
vt 11.47826 1.00000
vt 11.47826 0.00000
vt 11.52609 1.00000
vt 11.52609 0.00000
vt 11.57391 1.00000
vt 11.57391 0.00000
vt 11.62174 1.00000
vt 11.62174 0.00000
vt 11.66957 1.00000
vt 11.66957 0.00000
vt 11.71739 1.00000
vt 11.71739 0.00000
vt 11.76522 1.00000
vt 11.76522 0.00000
vt 11.81304 1.00000
vt 11.81304 0.00000
vt 11.86087 1.00000
vt 11.86087 0.00000
vt 11.90870 1.00000
vt 11.90870 0.00000
vt 11.95652 1.00000
vt 11.95652 0.00000
vt 12.00435 1.00000
vt 12.00435 0.00000
vt 12.05217 1.00000
vt 12.05217 0.00000
vt 12.10000 1.00000
vt 12.10000 0.00000
vt 12.14783 1.00000
vt 12.14783 0.00000
vt 12.19565 1.00000
vt 12.19565 0.00000
vt 12.24348 1.00000
vt 12.24348 0.00000
vt 12.29130 1.00000
vt 12.29130 0.00000
vt 12.33913 1.00000
vt 12.33913 0.00000
vt 12.38696 1.00000
vt 12.38696 0.00000
vt 12.43478 1.00000
vt 12.43478 0.00000
vt 12.48261 1.00000
vt 12.48261 0.00000
vt 12.53043 1.00000
vt 12.53043 0.00000
vt 12.57826 1.00000
vt 12.57826 0.00000
vt 12.62609 1.00000
vt 12.62609 0.00000
vt 12.67391 1.00000
vt 12.67391 0.00000
vt 12.72174 1.00000
vt 12.72174 0.00000
vt 12.76957 1.00000
vt 12.76957 0.00000
vt 12.81739 1.00000
vt 12.81739 0.00000
vt 12.86522 1.00000
vt 12.86522 0.00000
vt 12.91304 1.00000
vt 12.91304 0.00000
vt 12.96087 1.00000
vt 12.96087 0.00000
vt 13.00870 1.00000
vt 13.00870 0.00000
vt 13.05652 1.00000
vt 13.05652 0.00000
vt 13.10435 1.00000
vt 13.10435 0.00000
vt 13.15217 1.00000
vt 13.15217 0.00000
vt 13.20000 1.00000
vt 13.20000 0.00000
vt 13.24783 1.00000
vt 13.24783 0.00000
vt 13.29565 1.00000
vt 13.29565 0.00000
vt 13.34348 1.00000
vt 13.34348 0.00000
vt 13.39130 1.00000
vt 13.39130 0.00000
vt 13.43913 1.00000
vt 13.43913 0.00000
vt 13.48696 1.00000
vt 13.48696 0.00000
vt 13.53478 1.00000
vt 13.53478 0.00000
vt 13.58261 1.00000
vt 13.58261 0.00000
vt 13.63043 1.00000
vt 13.63043 0.00000
vt 13.67826 1.00000
vt 13.67826 0.00000
vt 13.72609 1.00000
vt 13.72609 0.00000
vt 13.77391 1.00000
vt 13.77391 0.00000
vt 13.82174 1.00000
vt 13.82174 0.00000
vt 13.86957 1.00000
vt 13.86957 0.00000
vt 13.91739 1.00000
vt 13.91739 0.00000
vt 13.96522 1.00000
vt 13.96522 0.00000
vt 14.01304 1.00000
vt 14.01304 0.00000
vt 14.06087 1.00000
vt 14.06087 0.00000
vt 14.10870 1.00000
vt 14.10870 0.00000
vt 14.15652 1.00000
vt 14.15652 0.00000
vt 14.20435 1.00000
vt 14.20435 0.00000
vt 14.25217 1.00000
vt 14.25217 0.00000
vt 14.30000 1.00000
vt 14.30000 0.00000
vt 14.34783 1.00000
vt 14.34783 0.00000
vt 14.39565 1.00000
vt 14.39565 0.00000
vt 14.44348 1.00000
vt 14.44348 0.00000
vt 14.49130 1.00000
vt 14.49130 0.00000
vt 14.53913 1.00000
vt 14.53913 0.00000
vt 14.58696 1.00000
vt 14.58696 0.00000
vt 14.63478 1.00000
vt 14.63478 0.00000
vt 14.68261 1.00000
vt 14.68261 0.00000
vt 14.73043 1.00000
vt 14.73043 0.00000
vt 14.77826 1.00000
vt 14.77826 0.00000
vt 14.82609 1.00000
vt 14.82609 0.00000
vt 14.87391 1.00000
vt 14.87391 0.00000
vt 14.92174 1.00000
vt 14.92174 0.00000
vt 14.96957 1.00000
vt 14.96957 0.00000
vt 15.01739 1.00000
vt 15.01739 0.00000
vt 15.06522 1.00000
vt 15.06522 0.00000
vt 15.11304 1.00000
vt 15.11304 0.00000
vt 15.16087 1.00000
vt 15.16087 0.00000
vt 15.20870 1.00000
vt 15.20870 0.00000
vt 15.25652 1.00000
vt 15.25652 0.00000
vt 15.30435 1.00000
vt 15.30435 0.00000
vt 15.35217 1.00000
vt 15.35217 0.00000
vt 15.40000 1.00000
vt 15.40000 0.00000
vt 15.44783 1.00000
vt 15.44783 0.00000
vt 15.49565 1.00000
vt 15.49565 0.00000
vt 15.54348 1.00000
vt 15.54348 0.00000
vt 15.59130 1.00000
vt 15.59130 0.00000
vt 15.63913 1.00000
vt 15.63913 0.00000
vt 15.68696 1.00000
vt 15.68696 0.00000
vt 15.73478 1.00000
vt 15.73478 0.00000
vt 15.78261 1.00000
vt 15.78261 0.00000
vt 15.83043 1.00000
vt 15.83043 0.00000
vt 15.87826 1.00000
vt 15.87826 0.00000
vt 15.92609 1.00000
vt 15.92609 0.00000
vt 15.97391 1.00000
vt 15.97391 0.00000
vt 16.02174 1.00000
vt 16.02174 0.00000
vt 16.06957 1.00000
vt 16.06957 0.00000
vt 16.11739 1.00000
vt 16.11739 0.00000
vt 16.16522 1.00000
vt 16.16522 0.00000
vt 16.21304 1.00000
vt 16.21304 0.00000
vt 16.26087 1.00000
vt 16.26087 0.00000
vt 16.30870 1.00000
vt 16.30870 0.00000
vt 16.35652 1.00000
vt 16.35652 0.00000
vt 16.40435 1.00000
vt 16.40435 0.00000
vt 16.45217 1.00000
vt 16.45217 0.00000
vt 16.50000 1.00000
vt 16.50000 0.00000
vt 16.54783 1.00000
vt 16.54783 0.00000
vt 16.59565 1.00000
vt 16.59565 0.00000
vt 16.64348 1.00000
vt 16.64348 0.00000
vt 16.69130 1.00000
vt 16.69130 0.00000
vt 16.73913 1.00000
vt 16.73913 0.00000
vt 16.78696 1.00000
vt 16.78696 0.00000
vt 16.83478 1.00000
vt 16.83478 0.00000
vt 16.88261 1.00000
vt 16.88261 0.00000
vt 16.93043 1.00000
vt 16.93043 0.00000
vt 16.97826 1.00000
vt 16.97826 0.00000
vt 17.02609 1.00000
vt 17.02609 0.00000
vt 17.07391 1.00000
vt 17.07391 0.00000
vt 17.12174 1.00000
vt 17.12174 0.00000
vt 17.16957 1.00000
vt 17.16957 0.00000
vt 17.21739 1.00000
vt 17.21739 0.00000
vt 17.26522 1.00000
vt 17.26522 0.00000
vt 17.31304 1.00000
vt 17.31304 0.00000
vt 17.36087 1.00000
vt 17.36087 0.00000
vt 17.40870 1.00000
vt 17.40870 0.00000
vt 17.45652 1.00000
vt 17.45652 0.00000
vt 17.50435 1.00000
vt 17.50435 0.00000
vt 17.55217 1.00000
vt 17.55217 0.00000
vt 17.60000 1.00000
vt 17.60000 0.00000
vt 17.64783 1.00000
vt 17.64783 0.00000
vt 17.69565 1.00000
vt 17.69565 0.00000
vt 17.74348 1.00000
vt 17.74348 0.00000
vt 17.79130 1.00000
vt 17.79130 0.00000
vt 17.83913 1.00000
vt 17.83913 0.00000
vt 17.88696 1.00000
vt 17.88696 0.00000
vt 17.93478 1.00000
vt 17.93478 0.00000
vt 17.98261 1.00000
vt 17.98261 0.00000
vt 18.03043 1.00000
vt 18.03043 0.00000
vt 18.07826 1.00000
vt 18.07826 0.00000
vt 18.12609 1.00000
vt 18.12609 0.00000
vt 18.17391 1.00000
vt 18.17391 0.00000
vt 18.22174 1.00000
vt 18.22174 0.00000
vt 18.26957 1.00000
vt 18.26957 0.00000
vt 18.31739 1.00000
vt 18.31739 0.00000
vt 18.36522 1.00000
vt 18.36522 0.00000
vt 18.41304 1.00000
vt 18.41304 0.00000
vt 18.46087 1.00000
vt 18.46087 0.00000
vt 18.50870 1.00000
vt 18.50870 0.00000
vt 18.55652 1.00000
vt 18.55652 0.00000
vt 18.60435 1.00000
vt 18.60435 0.00000
vt 18.65217 1.00000
vt 18.65217 0.00000
vt 18.70000 1.00000
vt 18.70000 0.00000
vt 18.74783 1.00000
vt 18.74783 0.00000
vt 18.79565 1.00000
vt 18.79565 0.00000
vt 18.84348 1.00000
vt 18.84348 0.00000
vt 18.89130 1.00000
vt 18.89130 0.00000
vt 18.93913 1.00000
vt 18.93913 0.00000
vt 18.98696 1.00000
vt 18.98696 0.00000
vt 19.03478 1.00000
vt 19.03478 0.00000
vt 19.08261 1.00000
vt 19.08261 0.00000
vt 19.13043 1.00000
vt 19.13043 0.00000
vt 19.17826 1.00000
vt 19.17826 0.00000
vt 19.22609 1.00000
vt 19.22609 0.00000
vt 19.27391 1.00000
vt 19.27391 0.00000
vt 19.32174 1.00000
vt 19.32174 0.00000
vt 19.36957 1.00000
vt 19.36957 0.00000
vt 19.41739 1.00000
vt 19.41739 0.00000
vt 19.46522 1.00000
vt 19.46522 0.00000
vt 19.51304 1.00000
vt 19.51304 0.00000
vt 19.56087 1.00000
vt 19.56087 0.00000
vt 19.60870 1.00000
vt 19.60870 0.00000
vt 19.65652 1.00000
vt 19.65652 0.00000
vt 19.70435 1.00000
vt 19.70435 0.00000
vt 19.75217 1.00000
vt 19.75217 0.00000
vt 19.80000 1.00000
vt 19.80000 0.00000
vt 19.84783 1.00000
vt 19.84783 0.00000
vt 19.89565 1.00000
vt 19.89565 0.00000
vt 19.94348 1.00000
vt 19.94348 0.00000
vt 19.99130 1.00000
vt 19.99130 0.00000
vt 20.03913 1.00000
vt 20.03913 0.00000
vt 20.08696 1.00000
vt 20.08696 0.00000
vt 20.13478 1.00000
vt 20.13478 0.00000
vt 20.18261 1.00000
vt 20.18261 0.00000
vt 20.23043 1.00000
vt 20.23043 0.00000
vt 20.27826 1.00000
vt 20.27826 0.00000
vt 20.32609 1.00000
vt 20.32609 0.00000
vt 20.37391 1.00000
vt 20.37391 0.00000
vt 20.42174 1.00000
vt 20.42174 0.00000
vt 20.46957 1.00000
vt 20.46957 0.00000
vt 20.51739 1.00000
vt 20.51739 0.00000
vt 20.56522 1.00000
vt 20.56522 0.00000
vt 20.61304 1.00000
vt 20.61304 0.00000
vt 20.66087 1.00000
vt 20.66087 0.00000
vt 20.70870 1.00000
vt 20.70870 0.00000
vt 20.75652 1.00000
vt 20.75652 0.00000
vt 20.80435 1.00000
vt 20.80435 0.00000
vt 20.85217 1.00000
vt 20.85217 0.00000
vt 20.90000 1.00000
vt 20.90000 0.00000
vt 20.94783 1.00000
vt 20.94783 0.00000
vt 20.99565 1.00000
vt 20.99565 0.00000
vt 21.04348 1.00000
vt 21.04348 0.00000
vt 21.09130 1.00000
vt 21.09130 0.00000
vt 21.13913 1.00000
vt 21.13913 0.00000
vt 21.18696 1.00000
vt 21.18696 0.00000
vt 21.23478 1.00000
vt 21.23478 0.00000
vt 21.28261 1.00000
vt 21.28261 0.00000
vt 21.33043 1.00000
vt 21.33043 0.00000
vt 21.37826 1.00000
vt 21.37826 0.00000
vt 21.42609 1.00000
vt 21.42609 0.00000
vt 21.47391 1.00000
vt 21.47391 0.00000
vt 21.52174 1.00000
vt 21.52174 0.00000
vt 21.56957 1.00000
vt 21.56957 0.00000
vt 21.61739 1.00000
vt 21.61739 0.00000
vt 21.66522 1.00000
vt 21.66522 0.00000
vt 21.71304 1.00000
vt 21.71304 0.00000
vt 21.76087 1.00000
vt 21.76087 0.00000
vt 21.80870 1.00000
vt 21.80870 0.00000
vt 21.85652 1.00000
vt 21.85652 0.00000
vt 21.90435 1.00000
vt 21.90435 0.00000
vt 21.95217 1.00000
vt 21.95217 0.00000
vt 22.00000 1.00000
vt 22.00000 0.00000
f 2/2 4/4 3/3 1/1
f 1/1 3/3 4/4 2/2
f 4/4 6/6 5/5 3/3
f 3/3 5/5 6/6 4/4
f 6/6 8/8 7/7 5/5
f 5/5 7/7 8/8 6/6
f 8/8 10/10 9/9 7/7
f 7/7 9/9 10/10 8/8
f 10/10 12/12 11/11 9/9
f 9/9 11/11 12/12 10/10
f 12/12 14/14 13/13 11/11
f 11/11 13/13 14/14 12/12
f 14/14 16/16 15/15 13/13
f 13/13 15/15 16/16 14/14
f 16/16 18/18 17/17 15/15
f 15/15 17/17 18/18 16/16
f 18/18 20/20 19/19 17/17
f 17/17 19/19 20/20 18/18
f 20/20 22/22 21/21 19/19
f 19/19 21/21 22/22 20/20
f 22/22 24/24 23/23 21/21
f 21/21 23/23 24/24 22/22
f 24/24 26/26 25/25 23/23
f 23/23 25/25 26/26 24/24
f 26/26 28/28 27/27 25/25
f 25/25 27/27 28/28 26/26
f 28/28 30/30 29/29 27/27
f 27/27 29/29 30/30 28/28
f 30/30 32/32 31/31 29/29
f 29/29 31/31 32/32 30/30
f 32/32 34/34 33/33 31/31
f 31/31 33/33 34/34 32/32
f 34/34 36/36 35/35 33/33
f 33/33 35/35 36/36 34/34
f 36/36 38/38 37/37 35/35
f 35/35 37/37 38/38 36/36
f 38/38 40/40 39/39 37/37
f 37/37 39/39 40/40 38/38
f 40/40 42/42 41/41 39/39
f 39/39 41/41 42/42 40/40
f 42/42 44/44 43/43 41/41
f 41/41 43/43 44/44 42/42
f 44/44 46/46 45/45 43/43
f 43/43 45/45 46/46 44/44
f 46/46 48/48 47/47 45/45
f 45/45 47/47 48/48 46/46
f 48/48 50/50 49/49 47/47
f 47/47 49/49 50/50 48/48
f 50/50 52/52 51/51 49/49
f 49/49 51/51 52/52 50/50
f 52/52 54/54 53/53 51/51
f 51/51 53/53 54/54 52/52
f 54/54 56/56 55/55 53/53
f 53/53 55/55 56/56 54/54
f 56/56 58/58 57/57 55/55
f 55/55 57/57 58/58 56/56
f 58/58 60/60 59/59 57/57
f 57/57 59/59 60/60 58/58
f 60/60 62/62 61/61 59/59
f 59/59 61/61 62/62 60/60
f 62/62 64/64 63/63 61/61
f 61/61 63/63 64/64 62/62
f 64/64 66/66 65/65 63/63
f 63/63 65/65 66/66 64/64
f 66/66 68/68 67/67 65/65
f 65/65 67/67 68/68 66/66
f 68/68 70/70 69/69 67/67
f 67/67 69/69 70/70 68/68
f 70/70 72/72 71/71 69/69
f 69/69 71/71 72/72 70/70
f 72/72 74/74 73/73 71/71
f 71/71 73/73 74/74 72/72
f 74/74 76/76 75/75 73/73
f 73/73 75/75 76/76 74/74
f 76/76 78/78 77/77 75/75
f 75/75 77/77 78/78 76/76
f 78/78 80/80 79/79 77/77
f 77/77 79/79 80/80 78/78
f 80/80 82/82 81/81 79/79
f 79/79 81/81 82/82 80/80
f 82/82 84/84 83/83 81/81
f 81/81 83/83 84/84 82/82
f 84/84 86/86 85/85 83/83
f 83/83 85/85 86/86 84/84
f 86/86 88/88 87/87 85/85
f 85/85 87/87 88/88 86/86
f 88/88 90/90 89/89 87/87
f 87/87 89/89 90/90 88/88
f 90/90 92/92 91/91 89/89
f 89/89 91/91 92/92 90/90
f 92/92 94/94 93/93 91/91
f 91/91 93/93 94/94 92/92
f 94/94 96/96 95/95 93/93
f 93/93 95/95 96/96 94/94
f 96/96 98/98 97/97 95/95
f 95/95 97/97 98/98 96/96
f 98/98 100/100 99/99 97/97
f 97/97 99/99 100/100 98/98
f 100/100 102/102 101/101 99/99
f 99/99 101/101 102/102 100/100
f 102/102 104/104 103/103 101/101
f 101/101 103/103 104/104 102/102
f 104/104 106/106 105/105 103/103
f 103/103 105/105 106/106 104/104
f 106/106 108/108 107/107 105/105
f 105/105 107/107 108/108 106/106
f 108/108 110/110 109/109 107/107
f 107/107 109/109 110/110 108/108
f 110/110 112/112 111/111 109/109
f 109/109 111/111 112/112 110/110
f 112/112 114/114 113/113 111/111
f 111/111 113/113 114/114 112/112
f 114/114 116/116 115/115 113/113
f 113/113 115/115 116/116 114/114
f 116/116 118/118 117/117 115/115
f 115/115 117/117 118/118 116/116
f 118/118 120/120 119/119 117/117
f 117/117 119/119 120/120 118/118
f 120/120 122/122 121/121 119/119
f 119/119 121/121 122/122 120/120
f 122/122 124/124 123/123 121/121
f 121/121 123/123 124/124 122/122
f 124/124 126/126 125/125 123/123
f 123/123 125/125 126/126 124/124
f 126/126 128/128 127/127 125/125
f 125/125 127/127 128/128 126/126
f 128/128 130/130 129/129 127/127
f 127/127 129/129 130/130 128/128
f 130/130 132/132 131/131 129/129
f 129/129 131/131 132/132 130/130
f 132/132 134/134 133/133 131/131
f 131/131 133/133 134/134 132/132
f 134/134 136/136 135/135 133/133
f 133/133 135/135 136/136 134/134
f 136/136 138/138 137/137 135/135
f 135/135 137/137 138/138 136/136
f 138/138 140/140 139/139 137/137
f 137/137 139/139 140/140 138/138
f 140/140 142/142 141/141 139/139
f 139/139 141/141 142/142 140/140
f 142/142 144/144 143/143 141/141
f 141/141 143/143 144/144 142/142
f 144/144 146/146 145/145 143/143
f 143/143 145/145 146/146 144/144
f 146/146 148/148 147/147 145/145
f 145/145 147/147 148/148 146/146
f 148/148 150/150 149/149 147/147
f 147/147 149/149 150/150 148/148
f 150/150 152/152 151/151 149/149
f 149/149 151/151 152/152 150/150
f 152/152 154/154 153/153 151/151
f 151/151 153/153 154/154 152/152
f 154/154 156/156 155/155 153/153
f 153/153 155/155 156/156 154/154
f 156/156 158/158 157/157 155/155
f 155/155 157/157 158/158 156/156
f 158/158 160/160 159/159 157/157
f 157/157 159/159 160/160 158/158
f 160/160 162/162 161/161 159/159
f 159/159 161/161 162/162 160/160
f 162/162 164/164 163/163 161/161
f 161/161 163/163 164/164 162/162
f 164/164 166/166 165/165 163/163
f 163/163 165/165 166/166 164/164
f 166/166 168/168 167/167 165/165
f 165/165 167/167 168/168 166/166
f 168/168 170/170 169/169 167/167
f 167/167 169/169 170/170 168/168
f 170/170 172/172 171/171 169/169
f 169/169 171/171 172/172 170/170
f 172/172 174/174 173/173 171/171
f 171/171 173/173 174/174 172/172
f 174/174 176/176 175/175 173/173
f 173/173 175/175 176/176 174/174
f 176/176 178/178 177/177 175/175
f 175/175 177/177 178/178 176/176
f 178/178 180/180 179/179 177/177
f 177/177 179/179 180/180 178/178
f 180/180 182/182 181/181 179/179
f 179/179 181/181 182/182 180/180
f 182/182 184/184 183/183 181/181
f 181/181 183/183 184/184 182/182
f 184/184 186/186 185/185 183/183
f 183/183 185/185 186/186 184/184
f 186/186 188/188 187/187 185/185
f 185/185 187/187 188/188 186/186
f 188/188 190/190 189/189 187/187
f 187/187 189/189 190/190 188/188
f 190/190 192/192 191/191 189/189
f 189/189 191/191 192/192 190/190
f 192/192 194/194 193/193 191/191
f 191/191 193/193 194/194 192/192
f 194/194 196/196 195/195 193/193
f 193/193 195/195 196/196 194/194
f 196/196 198/198 197/197 195/195
f 195/195 197/197 198/198 196/196
f 198/198 200/200 199/199 197/197
f 197/197 199/199 200/200 198/198
f 200/200 202/202 201/201 199/199
f 199/199 201/201 202/202 200/200
f 202/202 204/204 203/203 201/201
f 201/201 203/203 204/204 202/202
f 204/204 206/206 205/205 203/203
f 203/203 205/205 206/206 204/204
f 206/206 208/208 207/207 205/205
f 205/205 207/207 208/208 206/206
f 208/208 210/210 209/209 207/207
f 207/207 209/209 210/210 208/208
f 210/210 212/212 211/211 209/209
f 209/209 211/211 212/212 210/210
f 212/212 214/214 213/213 211/211
f 211/211 213/213 214/214 212/212
f 214/214 216/216 215/215 213/213
f 213/213 215/215 216/216 214/214
f 216/216 218/218 217/217 215/215
f 215/215 217/217 218/218 216/216
f 218/218 220/220 219/219 217/217
f 217/217 219/219 220/220 218/218
f 220/220 222/222 221/221 219/219
f 219/219 221/221 222/222 220/220
f 222/222 224/224 223/223 221/221
f 221/221 223/223 224/224 222/222
f 224/224 226/226 225/225 223/223
f 223/223 225/225 226/226 224/224
f 226/226 228/228 227/227 225/225
f 225/225 227/227 228/228 226/226
f 228/228 230/230 229/229 227/227
f 227/227 229/229 230/230 228/228
f 230/230 232/232 231/231 229/229
f 229/229 231/231 232/232 230/230
f 232/232 234/234 233/233 231/231
f 231/231 233/233 234/234 232/232
f 234/234 236/236 235/235 233/233
f 233/233 235/235 236/236 234/234
f 236/236 238/238 237/237 235/235
f 235/235 237/237 238/238 236/236
f 238/238 240/240 239/239 237/237
f 237/237 239/239 240/240 238/238
f 240/240 242/242 241/241 239/239
f 239/239 241/241 242/242 240/240
f 242/242 244/244 243/243 241/241
f 241/241 243/243 244/244 242/242
f 244/244 246/246 245/245 243/243
f 243/243 245/245 246/246 244/244
f 246/246 248/248 247/247 245/245
f 245/245 247/247 248/248 246/246
f 248/248 250/250 249/249 247/247
f 247/247 249/249 250/250 248/248
f 250/250 252/252 251/251 249/249
f 249/249 251/251 252/252 250/250
f 252/252 254/254 253/253 251/251
f 251/251 253/253 254/254 252/252
f 254/254 256/256 255/255 253/253
f 253/253 255/255 256/256 254/254
f 256/256 258/258 257/257 255/255
f 255/255 257/257 258/258 256/256
f 258/258 260/260 259/259 257/257
f 257/257 259/259 260/260 258/258
f 260/260 262/262 261/261 259/259
f 259/259 261/261 262/262 260/260
f 262/262 264/264 263/263 261/261
f 261/261 263/263 264/264 262/262
f 264/264 266/266 265/265 263/263
f 263/263 265/265 266/266 264/264
f 266/266 268/268 267/267 265/265
f 265/265 267/267 268/268 266/266
f 268/268 270/270 269/269 267/267
f 267/267 269/269 270/270 268/268
f 270/270 272/272 271/271 269/269
f 269/269 271/271 272/272 270/270
f 272/272 274/274 273/273 271/271
f 271/271 273/273 274/274 272/272
f 274/274 276/276 275/275 273/273
f 273/273 275/275 276/276 274/274
f 276/276 278/278 277/277 275/275
f 275/275 277/277 278/278 276/276
f 278/278 280/280 279/279 277/277
f 277/277 279/279 280/280 278/278
f 280/280 282/282 281/281 279/279
f 279/279 281/281 282/282 280/280
f 282/282 284/284 283/283 281/281
f 281/281 283/283 284/284 282/282
f 284/284 286/286 285/285 283/283
f 283/283 285/285 286/286 284/284
f 286/286 288/288 287/287 285/285
f 285/285 287/287 288/288 286/286
f 288/288 290/290 289/289 287/287
f 287/287 289/289 290/290 288/288
f 290/290 292/292 291/291 289/289
f 289/289 291/291 292/292 290/290
f 292/292 294/294 293/293 291/291
f 291/291 293/293 294/294 292/292
f 294/294 296/296 295/295 293/293
f 293/293 295/295 296/296 294/294
f 296/296 298/298 297/297 295/295
f 295/295 297/297 298/298 296/296
f 298/298 300/300 299/299 297/297
f 297/297 299/299 300/300 298/298
f 300/300 302/302 301/301 299/299
f 299/299 301/301 302/302 300/300
f 302/302 304/304 303/303 301/301
f 301/301 303/303 304/304 302/302
f 304/304 306/306 305/305 303/303
f 303/303 305/305 306/306 304/304
f 306/306 308/308 307/307 305/305
f 305/305 307/307 308/308 306/306
f 308/308 310/310 309/309 307/307
f 307/307 309/309 310/310 308/308
f 310/310 312/312 311/311 309/309
f 309/309 311/311 312/312 310/310
f 312/312 314/314 313/313 311/311
f 311/311 313/313 314/314 312/312
f 314/314 316/316 315/315 313/313
f 313/313 315/315 316/316 314/314
f 316/316 318/318 317/317 315/315
f 315/315 317/317 318/318 316/316
f 318/318 320/320 319/319 317/317
f 317/317 319/319 320/320 318/318
f 320/320 322/322 321/321 319/319
f 319/319 321/321 322/322 320/320
f 322/322 324/324 323/323 321/321
f 321/321 323/323 324/324 322/322
f 324/324 326/326 325/325 323/323
f 323/323 325/325 326/326 324/324
f 326/326 328/328 327/327 325/325
f 325/325 327/327 328/328 326/326
f 328/328 330/330 329/329 327/327
f 327/327 329/329 330/330 328/328
f 330/330 332/332 331/331 329/329
f 329/329 331/331 332/332 330/330
f 332/332 334/334 333/333 331/331
f 331/331 333/333 334/334 332/332
f 334/334 336/336 335/335 333/333
f 333/333 335/335 336/336 334/334
f 336/336 338/338 337/337 335/335
f 335/335 337/337 338/338 336/336
f 338/338 340/340 339/339 337/337
f 337/337 339/339 340/340 338/338
f 340/340 342/342 341/341 339/339
f 339/339 341/341 342/342 340/340
f 342/342 344/344 343/343 341/341
f 341/341 343/343 344/344 342/342
f 344/344 346/346 345/345 343/343
f 343/343 345/345 346/346 344/344
f 346/346 348/348 347/347 345/345
f 345/345 347/347 348/348 346/346
f 348/348 350/350 349/349 347/347
f 347/347 349/349 350/350 348/348
f 350/350 352/352 351/351 349/349
f 349/349 351/351 352/352 350/350
f 352/352 354/354 353/353 351/351
f 351/351 353/353 354/354 352/352
f 354/354 356/356 355/355 353/353
f 353/353 355/355 356/356 354/354
f 356/356 358/358 357/357 355/355
f 355/355 357/357 358/358 356/356
f 358/358 360/360 359/359 357/357
f 357/357 359/359 360/360 358/358
f 360/360 362/362 361/361 359/359
f 359/359 361/361 362/362 360/360
f 362/362 364/364 363/363 361/361
f 361/361 363/363 364/364 362/362
f 364/364 366/366 365/365 363/363
f 363/363 365/365 366/366 364/364
f 366/366 368/368 367/367 365/365
f 365/365 367/367 368/368 366/366
f 368/368 370/370 369/369 367/367
f 367/367 369/369 370/370 368/368
f 370/370 372/372 371/371 369/369
f 369/369 371/371 372/372 370/370
f 372/372 374/374 373/373 371/371
f 371/371 373/373 374/374 372/372
f 374/374 376/376 375/375 373/373
f 373/373 375/375 376/376 374/374
f 376/376 378/378 377/377 375/375
f 375/375 377/377 378/378 376/376
f 378/378 380/380 379/379 377/377
f 377/377 379/379 380/380 378/378
f 380/380 382/382 381/381 379/379
f 379/379 381/381 382/382 380/380
f 382/382 384/384 383/383 381/381
f 381/381 383/383 384/384 382/382
f 384/384 386/386 385/385 383/383
f 383/383 385/385 386/386 384/384
f 386/386 388/388 387/387 385/385
f 385/385 387/387 388/388 386/386
f 388/388 390/390 389/389 387/387
f 387/387 389/389 390/390 388/388
f 390/390 392/392 391/391 389/389
f 389/389 391/391 392/392 390/390
f 392/392 394/394 393/393 391/391
f 391/391 393/393 394/394 392/392
f 394/394 396/396 395/395 393/393
f 393/393 395/395 396/396 394/394
f 396/396 398/398 397/397 395/395
f 395/395 397/397 398/398 396/396
f 398/398 400/400 399/399 397/397
f 397/397 399/399 400/400 398/398
f 400/400 402/402 401/401 399/399
f 399/399 401/401 402/402 400/400
f 402/402 404/404 403/403 401/401
f 401/401 403/403 404/404 402/402
f 404/404 406/406 405/405 403/403
f 403/403 405/405 406/406 404/404
f 406/406 408/408 407/407 405/405
f 405/405 407/407 408/408 406/406
f 408/408 410/410 409/409 407/407
f 407/407 409/409 410/410 408/408
f 410/410 412/412 411/411 409/409
f 409/409 411/411 412/412 410/410
f 412/412 414/414 413/413 411/411
f 411/411 413/413 414/414 412/412
f 414/414 416/416 415/415 413/413
f 413/413 415/415 416/416 414/414
f 416/416 418/418 417/417 415/415
f 415/415 417/417 418/418 416/416
f 418/418 420/420 419/419 417/417
f 417/417 419/419 420/420 418/418
f 420/420 422/422 421/421 419/419
f 419/419 421/421 422/422 420/420
f 422/422 424/424 423/423 421/421
f 421/421 423/423 424/424 422/422
f 424/424 426/426 425/425 423/423
f 423/423 425/425 426/426 424/424
f 426/426 428/428 427/427 425/425
f 425/425 427/427 428/428 426/426
f 428/428 430/430 429/429 427/427
f 427/427 429/429 430/430 428/428
f 430/430 432/432 431/431 429/429
f 429/429 431/431 432/432 430/430
f 432/432 434/434 433/433 431/431
f 431/431 433/433 434/434 432/432
f 434/434 436/436 435/435 433/433
f 433/433 435/435 436/436 434/434
f 436/436 438/438 437/437 435/435
f 435/435 437/437 438/438 436/436
f 438/438 440/440 439/439 437/437
f 437/437 439/439 440/440 438/438
f 440/440 442/442 441/441 439/439
f 439/439 441/441 442/442 440/440
f 442/442 444/444 443/443 441/441
f 441/441 443/443 444/444 442/442
f 444/444 446/446 445/445 443/443
f 443/443 445/445 446/446 444/444
f 446/446 448/448 447/447 445/445
f 445/445 447/447 448/448 446/446
f 448/448 450/450 449/449 447/447
f 447/447 449/449 450/450 448/448
f 450/450 452/452 451/451 449/449
f 449/449 451/451 452/452 450/450
f 452/452 454/454 453/453 451/451
f 451/451 453/453 454/454 452/452
f 454/454 456/456 455/455 453/453
f 453/453 455/455 456/456 454/454
f 456/456 458/458 457/457 455/455
f 455/455 457/457 458/458 456/456
f 458/458 460/460 459/459 457/457
f 457/457 459/459 460/460 458/458
f 460/460 462/462 461/461 459/459
f 459/459 461/461 462/462 460/460
f 462/462 464/464 463/463 461/461
f 461/461 463/463 464/464 462/462
f 464/464 466/466 465/465 463/463
f 463/463 465/465 466/466 464/464
f 466/466 468/468 467/467 465/465
f 465/465 467/467 468/468 466/466
f 468/468 470/470 469/469 467/467
f 467/467 469/469 470/470 468/468
f 470/470 472/472 471/471 469/469
f 469/469 471/471 472/472 470/470
f 472/472 474/474 473/473 471/471
f 471/471 473/473 474/474 472/472
f 474/474 476/476 475/475 473/473
f 473/473 475/475 476/476 474/474
f 476/476 478/478 477/477 475/475
f 475/475 477/477 478/478 476/476
f 478/478 480/480 479/479 477/477
f 477/477 479/479 480/480 478/478
f 480/480 482/482 481/481 479/479
f 479/479 481/481 482/482 480/480
f 482/482 484/484 483/483 481/481
f 481/481 483/483 484/484 482/482
f 484/484 486/486 485/485 483/483
f 483/483 485/485 486/486 484/484
f 486/486 488/488 487/487 485/485
f 485/485 487/487 488/488 486/486
f 488/488 490/490 489/489 487/487
f 487/487 489/489 490/490 488/488
f 490/490 492/492 491/491 489/489
f 489/489 491/491 492/492 490/490
f 492/492 494/494 493/493 491/491
f 491/491 493/493 494/494 492/492
f 494/494 496/496 495/495 493/493
f 493/493 495/495 496/496 494/494
f 496/496 498/498 497/497 495/495
f 495/495 497/497 498/498 496/496
f 498/498 500/500 499/499 497/497
f 497/497 499/499 500/500 498/498
f 500/500 502/502 501/501 499/499
f 499/499 501/501 502/502 500/500
f 502/502 504/504 503/503 501/501
f 501/501 503/503 504/504 502/502
f 504/504 506/506 505/505 503/503
f 503/503 505/505 506/506 504/504
f 506/506 508/508 507/507 505/505
f 505/505 507/507 508/508 506/506
f 508/508 510/510 509/509 507/507
f 507/507 509/509 510/510 508/508
f 510/510 512/512 511/511 509/509
f 509/509 511/511 512/512 510/510
f 512/512 514/514 513/513 511/511
f 511/511 513/513 514/514 512/512
f 514/514 516/516 515/515 513/513
f 513/513 515/515 516/516 514/514
f 516/516 518/518 517/517 515/515
f 515/515 517/517 518/518 516/516
f 518/518 520/520 519/519 517/517
f 517/517 519/519 520/520 518/518
f 520/520 522/522 521/521 519/519
f 519/519 521/521 522/522 520/520
f 522/522 524/524 523/523 521/521
f 521/521 523/523 524/524 522/522
f 524/524 526/526 525/525 523/523
f 523/523 525/525 526/526 524/524
f 526/526 528/528 527/527 525/525
f 525/525 527/527 528/528 526/526
f 528/528 530/530 529/529 527/527
f 527/527 529/529 530/530 528/528
f 530/530 532/532 531/531 529/529
f 529/529 531/531 532/532 530/530
f 532/532 534/534 533/533 531/531
f 531/531 533/533 534/534 532/532
f 534/534 536/536 535/535 533/533
f 533/533 535/535 536/536 534/534
f 536/536 538/538 537/537 535/535
f 535/535 537/537 538/538 536/536
f 538/538 540/540 539/539 537/537
f 537/537 539/539 540/540 538/538
f 540/540 542/542 541/541 539/539
f 539/539 541/541 542/542 540/540
f 542/542 544/544 543/543 541/541
f 541/541 543/543 544/544 542/542
f 544/544 546/546 545/545 543/543
f 543/543 545/545 546/546 544/544
f 546/546 548/548 547/547 545/545
f 545/545 547/547 548/548 546/546
f 548/548 550/550 549/549 547/547
f 547/547 549/549 550/550 548/548
f 550/550 552/552 551/551 549/549
f 549/549 551/551 552/552 550/550
f 552/552 554/554 553/553 551/551
f 551/551 553/553 554/554 552/552
f 554/554 556/556 555/555 553/553
f 553/553 555/555 556/556 554/554
f 556/556 558/558 557/557 555/555
f 555/555 557/557 558/558 556/556
f 558/558 560/560 559/559 557/557
f 557/557 559/559 560/560 558/558
f 560/560 562/562 561/561 559/559
f 559/559 561/561 562/562 560/560
f 562/562 564/564 563/563 561/561
f 561/561 563/563 564/564 562/562
f 564/564 566/566 565/565 563/563
f 563/563 565/565 566/566 564/564
f 566/566 568/568 567/567 565/565
f 565/565 567/567 568/568 566/566
f 568/568 570/570 569/569 567/567
f 567/567 569/569 570/570 568/568
f 570/570 572/572 571/571 569/569
f 569/569 571/571 572/572 570/570
f 572/572 574/574 573/573 571/571
f 571/571 573/573 574/574 572/572
f 574/574 576/576 575/575 573/573
f 573/573 575/575 576/576 574/574
f 576/576 578/578 577/577 575/575
f 575/575 577/577 578/578 576/576
f 578/578 580/580 579/579 577/577
f 577/577 579/579 580/580 578/578
f 580/580 582/582 581/581 579/579
f 579/579 581/581 582/582 580/580
f 582/582 584/584 583/583 581/581
f 581/581 583/583 584/584 582/582
f 584/584 586/586 585/585 583/583
f 583/583 585/585 586/586 584/584
f 586/586 588/588 587/587 585/585
f 585/585 587/587 588/588 586/586
f 588/588 590/590 589/589 587/587
f 587/587 589/589 590/590 588/588
f 590/590 592/592 591/591 589/589
f 589/589 591/591 592/592 590/590
f 592/592 594/594 593/593 591/591
f 591/591 593/593 594/594 592/592
f 594/594 596/596 595/595 593/593
f 593/593 595/595 596/596 594/594
f 596/596 598/598 597/597 595/595
f 595/595 597/597 598/598 596/596
f 598/598 600/600 599/599 597/597
f 597/597 599/599 600/600 598/598
f 600/600 602/602 601/601 599/599
f 599/599 601/601 602/602 600/600
f 602/602 604/604 603/603 601/601
f 601/601 603/603 604/604 602/602
f 604/604 606/606 605/605 603/603
f 603/603 605/605 606/606 604/604
f 606/606 608/608 607/607 605/605
f 605/605 607/607 608/608 606/606
f 608/608 610/610 609/609 607/607
f 607/607 609/609 610/610 608/608
f 610/610 612/612 611/611 609/609
f 609/609 611/611 612/612 610/610
f 612/612 614/614 613/613 611/611
f 611/611 613/613 614/614 612/612
f 614/614 616/616 615/615 613/613
f 613/613 615/615 616/616 614/614
f 616/616 618/618 617/617 615/615
f 615/615 617/617 618/618 616/616
f 618/618 620/620 619/619 617/617
f 617/617 619/619 620/620 618/618
f 620/620 622/622 621/621 619/619
f 619/619 621/621 622/622 620/620
f 622/622 624/624 623/623 621/621
f 621/621 623/623 624/624 622/622
f 624/624 626/626 625/625 623/623
f 623/623 625/625 626/626 624/624
f 626/626 628/628 627/627 625/625
f 625/625 627/627 628/628 626/626
f 628/628 630/630 629/629 627/627
f 627/627 629/629 630/630 628/628
f 630/630 632/632 631/631 629/629
f 629/629 631/631 632/632 630/630
f 632/632 634/634 633/633 631/631
f 631/631 633/633 634/634 632/632
f 634/634 636/636 635/635 633/633
f 633/633 635/635 636/636 634/634
f 636/636 638/638 637/637 635/635
f 635/635 637/637 638/638 636/636
f 638/638 640/640 639/639 637/637
f 637/637 639/639 640/640 638/638
f 640/640 642/642 641/641 639/639
f 639/639 641/641 642/642 640/640
f 642/642 644/644 643/643 641/641
f 641/641 643/643 644/644 642/642
f 644/644 646/646 645/645 643/643
f 643/643 645/645 646/646 644/644
f 646/646 648/648 647/647 645/645
f 645/645 647/647 648/648 646/646
f 648/648 650/650 649/649 647/647
f 647/647 649/649 650/650 648/648
f 650/650 652/652 651/651 649/649
f 649/649 651/651 652/652 650/650
f 652/652 654/654 653/653 651/651
f 651/651 653/653 654/654 652/652
f 654/654 656/656 655/655 653/653
f 653/653 655/655 656/656 654/654
f 656/656 658/658 657/657 655/655
f 655/655 657/657 658/658 656/656
f 658/658 660/660 659/659 657/657
f 657/657 659/659 660/660 658/658
f 660/660 662/662 661/661 659/659
f 659/659 661/661 662/662 660/660
f 662/662 664/664 663/663 661/661
f 661/661 663/663 664/664 662/662
f 664/664 666/666 665/665 663/663
f 663/663 665/665 666/666 664/664
f 666/666 668/668 667/667 665/665
f 665/665 667/667 668/668 666/666
f 668/668 670/670 669/669 667/667
f 667/667 669/669 670/670 668/668
f 670/670 672/672 671/671 669/669
f 669/669 671/671 672/672 670/670
f 672/672 674/674 673/673 671/671
f 671/671 673/673 674/674 672/672
f 674/674 676/676 675/675 673/673
f 673/673 675/675 676/676 674/674
f 676/676 678/678 677/677 675/675
f 675/675 677/677 678/678 676/676
f 678/678 680/680 679/679 677/677
f 677/677 679/679 680/680 678/678
f 680/680 682/682 681/681 679/679
f 679/679 681/681 682/682 680/680
f 682/682 684/684 683/683 681/681
f 681/681 683/683 684/684 682/682
f 684/684 686/686 685/685 683/683
f 683/683 685/685 686/686 684/684
f 686/686 688/688 687/687 685/685
f 685/685 687/687 688/688 686/686
f 688/688 690/690 689/689 687/687
f 687/687 689/689 690/690 688/688
f 690/690 692/692 691/691 689/689
f 689/689 691/691 692/692 690/690
f 692/692 694/694 693/693 691/691
f 691/691 693/693 694/694 692/692
f 694/694 696/696 695/695 693/693
f 693/693 695/695 696/696 694/694
f 696/696 698/698 697/697 695/695
f 695/695 697/697 698/698 696/696
f 698/698 700/700 699/699 697/697
f 697/697 699/699 700/700 698/698
f 700/700 702/702 701/701 699/699
f 699/699 701/701 702/702 700/700
f 702/702 704/704 703/703 701/701
f 701/701 703/703 704/704 702/702
f 704/704 706/706 705/705 703/703
f 703/703 705/705 706/706 704/704
f 706/706 708/708 707/707 705/705
f 705/705 707/707 708/708 706/706
f 708/708 710/710 709/709 707/707
f 707/707 709/709 710/710 708/708
f 710/710 712/712 711/711 709/709
f 709/709 711/711 712/712 710/710
f 712/712 714/714 713/713 711/711
f 711/711 713/713 714/714 712/712
f 714/714 716/716 715/715 713/713
f 713/713 715/715 716/716 714/714
f 716/716 718/718 717/717 715/715
f 715/715 717/717 718/718 716/716
f 718/718 720/720 719/719 717/717
f 717/717 719/719 720/720 718/718
f 720/720 722/722 721/721 719/719
f 719/719 721/721 722/722 720/720
f 722/722 724/724 723/723 721/721
f 721/721 723/723 724/724 722/722
f 724/724 726/726 725/725 723/723
f 723/723 725/725 726/726 724/724
f 726/726 728/728 727/727 725/725
f 725/725 727/727 728/728 726/726
f 728/728 730/730 729/729 727/727
f 727/727 729/729 730/730 728/728
f 730/730 732/732 731/731 729/729
f 729/729 731/731 732/732 730/730
f 732/732 734/734 733/733 731/731
f 731/731 733/733 734/734 732/732
f 734/734 736/736 735/735 733/733
f 733/733 735/735 736/736 734/734
f 736/736 738/738 737/737 735/735
f 735/735 737/737 738/738 736/736
f 738/738 740/740 739/739 737/737
f 737/737 739/739 740/740 738/738
f 740/740 742/742 741/741 739/739
f 739/739 741/741 742/742 740/740
f 742/742 744/744 743/743 741/741
f 741/741 743/743 744/744 742/742
f 744/744 746/746 745/745 743/743
f 743/743 745/745 746/746 744/744
f 746/746 748/748 747/747 745/745
f 745/745 747/747 748/748 746/746
f 748/748 750/750 749/749 747/747
f 747/747 749/749 750/750 748/748
f 750/750 752/752 751/751 749/749
f 749/749 751/751 752/752 750/750
f 752/752 754/754 753/753 751/751
f 751/751 753/753 754/754 752/752
f 754/754 756/756 755/755 753/753
f 753/753 755/755 756/756 754/754
f 756/756 758/758 757/757 755/755
f 755/755 757/757 758/758 756/756
f 758/758 760/760 759/759 757/757
f 757/757 759/759 760/760 758/758
f 760/760 762/762 761/761 759/759
f 759/759 761/761 762/762 760/760
f 762/762 764/764 763/763 761/761
f 761/761 763/763 764/764 762/762
f 764/764 766/766 765/765 763/763
f 763/763 765/765 766/766 764/764
f 766/766 768/768 767/767 765/765
f 765/765 767/767 768/768 766/766
f 768/768 770/770 769/769 767/767
f 767/767 769/769 770/770 768/768
f 770/770 772/772 771/771 769/769
f 769/769 771/771 772/772 770/770
f 772/772 774/774 773/773 771/771
f 771/771 773/773 774/774 772/772
f 774/774 776/776 775/775 773/773
f 773/773 775/775 776/776 774/774
f 776/776 778/778 777/777 775/775
f 775/775 777/777 778/778 776/776
f 778/778 780/780 779/779 777/777
f 777/777 779/779 780/780 778/778
f 780/780 782/782 781/781 779/779
f 779/779 781/781 782/782 780/780
f 782/782 784/784 783/783 781/781
f 781/781 783/783 784/784 782/782
f 784/784 786/786 785/785 783/783
f 783/783 785/785 786/786 784/784
f 786/786 788/788 787/787 785/785
f 785/785 787/787 788/788 786/786
f 788/788 790/790 789/789 787/787
f 787/787 789/789 790/790 788/788
f 790/790 792/792 791/791 789/789
f 789/789 791/791 792/792 790/790
f 792/792 794/794 793/793 791/791
f 791/791 793/793 794/794 792/792
f 794/794 796/796 795/795 793/793
f 793/793 795/795 796/796 794/794
f 796/796 798/798 797/797 795/795
f 795/795 797/797 798/798 796/796
f 798/798 800/800 799/799 797/797
f 797/797 799/799 800/800 798/798
f 800/800 802/802 801/801 799/799
f 799/799 801/801 802/802 800/800
f 802/802 804/804 803/803 801/801
f 801/801 803/803 804/804 802/802
f 804/804 806/806 805/805 803/803
f 803/803 805/805 806/806 804/804
f 806/806 808/808 807/807 805/805
f 805/805 807/807 808/808 806/806
f 808/808 810/810 809/809 807/807
f 807/807 809/809 810/810 808/808
f 810/810 812/812 811/811 809/809
f 809/809 811/811 812/812 810/810
f 812/812 814/814 813/813 811/811
f 811/811 813/813 814/814 812/812
f 814/814 816/816 815/815 813/813
f 813/813 815/815 816/816 814/814
f 816/816 818/818 817/817 815/815
f 815/815 817/817 818/818 816/816
f 818/818 820/820 819/819 817/817
f 817/817 819/819 820/820 818/818
f 820/820 822/822 821/821 819/819
f 819/819 821/821 822/822 820/820
f 822/822 824/824 823/823 821/821
f 821/821 823/823 824/824 822/822
f 824/824 826/826 825/825 823/823
f 823/823 825/825 826/826 824/824
f 826/826 828/828 827/827 825/825
f 825/825 827/827 828/828 826/826
f 828/828 830/830 829/829 827/827
f 827/827 829/829 830/830 828/828
f 830/830 832/832 831/831 829/829
f 829/829 831/831 832/832 830/830
f 832/832 834/834 833/833 831/831
f 831/831 833/833 834/834 832/832
f 834/834 836/836 835/835 833/833
f 833/833 835/835 836/836 834/834
f 836/836 838/838 837/837 835/835
f 835/835 837/837 838/838 836/836
f 838/838 840/840 839/839 837/837
f 837/837 839/839 840/840 838/838
f 840/840 842/842 841/841 839/839
f 839/839 841/841 842/842 840/840
f 842/842 844/844 843/843 841/841
f 841/841 843/843 844/844 842/842
f 844/844 846/846 845/845 843/843
f 843/843 845/845 846/846 844/844
f 846/846 848/848 847/847 845/845
f 845/845 847/847 848/848 846/846
f 848/848 850/850 849/849 847/847
f 847/847 849/849 850/850 848/848
f 850/850 852/852 851/851 849/849
f 849/849 851/851 852/852 850/850
f 852/852 854/854 853/853 851/851
f 851/851 853/853 854/854 852/852
f 854/854 856/856 855/855 853/853
f 853/853 855/855 856/856 854/854
f 856/856 858/858 857/857 855/855
f 855/855 857/857 858/858 856/856
f 858/858 860/860 859/859 857/857
f 857/857 859/859 860/860 858/858
f 860/860 862/862 861/861 859/859
f 859/859 861/861 862/862 860/860
f 862/862 864/864 863/863 861/861
f 861/861 863/863 864/864 862/862
f 864/864 866/866 865/865 863/863
f 863/863 865/865 866/866 864/864
f 866/866 868/868 867/867 865/865
f 865/865 867/867 868/868 866/866
f 868/868 870/870 869/869 867/867
f 867/867 869/869 870/870 868/868
f 870/870 872/872 871/871 869/869
f 869/869 871/871 872/872 870/870
f 872/872 874/874 873/873 871/871
f 871/871 873/873 874/874 872/872
f 874/874 876/876 875/875 873/873
f 873/873 875/875 876/876 874/874
f 876/876 878/878 877/877 875/875
f 875/875 877/877 878/878 876/876
f 878/878 880/880 879/879 877/877
f 877/877 879/879 880/880 878/878
f 880/880 882/882 881/881 879/879
f 879/879 881/881 882/882 880/880
f 882/882 884/884 883/883 881/881
f 881/881 883/883 884/884 882/882
f 884/884 886/886 885/885 883/883
f 883/883 885/885 886/886 884/884
f 886/886 888/888 887/887 885/885
f 885/885 887/887 888/888 886/886
f 888/888 890/890 889/889 887/887
f 887/887 889/889 890/890 888/888
f 890/890 892/892 891/891 889/889
f 889/889 891/891 892/892 890/890
f 892/892 894/894 893/893 891/891
f 891/891 893/893 894/894 892/892
f 894/894 896/896 895/895 893/893
f 893/893 895/895 896/896 894/894
f 896/896 898/898 897/897 895/895
f 895/895 897/897 898/898 896/896
f 898/898 900/900 899/899 897/897
f 897/897 899/899 900/900 898/898
f 900/900 902/902 901/901 899/899
f 899/899 901/901 902/902 900/900
f 902/902 904/904 903/903 901/901
f 901/901 903/903 904/904 902/902
f 904/904 906/906 905/905 903/903
f 903/903 905/905 906/906 904/904
f 906/906 908/908 907/907 905/905
f 905/905 907/907 908/908 906/906
f 908/908 910/910 909/909 907/907
f 907/907 909/909 910/910 908/908
f 910/910 912/912 911/911 909/909
f 909/909 911/911 912/912 910/910
f 912/912 914/914 913/913 911/911
f 911/911 913/913 914/914 912/912
f 914/914 916/916 915/915 913/913
f 913/913 915/915 916/916 914/914
f 916/916 918/918 917/917 915/915
f 915/915 917/917 918/918 916/916
f 918/918 920/920 919/919 917/917
f 917/917 919/919 920/920 918/918
f 920/920 922/922 921/921 919/919
f 919/919 921/921 922/922 920/920
